<?xml version="1.0" encoding="UTF-8" standalone="no"?>
<svg
   xmlns:dc="http://purl.org/dc/elements/1.1/"
   xmlns:cc="http://creativecommons.org/ns#"
   xmlns:rdf="http://www.w3.org/1999/02/22-rdf-syntax-ns#"
   xmlns:svg="http://www.w3.org/2000/svg"
   xmlns="http://www.w3.org/2000/svg"
   xmlns:xlink="http://www.w3.org/1999/xlink"
   xmlns:sodipodi="http://sodipodi.sourceforge.net/DTD/sodipodi-0.dtd"
   xmlns:inkscape="http://www.inkscape.org/namespaces/inkscape"
   width="24"
   height="24"
   viewBox="0 0 24 24"
   id="svg2"
   version="1.1"
   inkscape:version="1.0.1 (3bc2e813f5, 2020-09-07)"
   sodipodi:docname="com.github.lainsce.icon-previewer.svg">
  <sodipodi:namedview
     pagecolor="#ffffff"
     bordercolor="#666666"
     borderopacity="1"
     objecttolerance="10"
     gridtolerance="10"
     guidetolerance="10"
     inkscape:pageopacity="0"
     inkscape:pageshadow="2"
     inkscape:window-width="2560"
     inkscape:window-height="1016"
     id="namedview33"
     showgrid="true"
     inkscape:zoom="32"
     inkscape:cx="-2.17126"
     inkscape:cy="11.142863"
     inkscape:window-x="0"
     inkscape:window-y="0"
     inkscape:window-maximized="1"
     inkscape:current-layer="svg2"
     inkscape:document-rotation="0">
    <inkscape:grid
       type="xygrid"
       id="grid4167" />
  </sodipodi:namedview>
  <defs
     id="defs4">
    <linearGradient
       id="linearGradient23419">
      <stop
         id="stop23421"
         style="stop-color:#000000;stop-opacity:1"
         offset="0" />
      <stop
         id="stop23423"
         style="stop-color:#000000;stop-opacity:0"
         offset="1" />
    </linearGradient>
    <linearGradient
       id="linearGradient4806-2-9">
      <stop
         id="stop4808-4-6"
         style="stop-color:#ffffff;stop-opacity:1"
         offset="0" />
      <stop
         id="stop4810-0-9"
         style="stop-color:#ffffff;stop-opacity:0.23529412"
         offset="0.42447853" />
      <stop
         id="stop4812-8-7"
         style="stop-color:#ffffff;stop-opacity:0.15686275"
         offset="0.82089913" />
      <stop
         id="stop4814-0-7"
         style="stop-color:#ffffff;stop-opacity:0.39215687"
         offset="1" />
    </linearGradient>
    <linearGradient
       xlink:href="#linearGradient4806-2-9"
       id="linearGradient7487"
       gradientUnits="userSpaceOnUse"
       gradientTransform="matrix(0.5306906,0,0,0.53069056,-26.30317,-2.78869)"
       x1="71.204407"
       y1="15.369057"
       x2="71.204407"
       y2="40.495617" />
    <linearGradient
       xlink:href="#linearGradient4251"
       id="linearGradient7483"
       gradientUnits="userSpaceOnUse"
       gradientTransform="matrix(0.18750001,0,0,0.18750001,-74.99999,-40.875)"
       x1="304"
       y1="98"
       x2="368"
       y2="210" />
    <linearGradient
       id="linearGradient4251">
      <stop
         id="stop4259"
         offset="0"
         style="stop-color:#cccccc;stop-opacity:1" />
      <stop
         style="stop-color:#f4f4f4;stop-opacity:1"
         offset="0.51999998"
         id="stop6460" />
      <stop
         style="stop-color:#c1c1c1;stop-opacity:1"
         offset="1"
         id="stop4183" />
    </linearGradient>
    <linearGradient
       xlink:href="#linearGradient4806-2-9"
       id="linearGradient7475"
       gradientUnits="userSpaceOnUse"
       gradientTransform="matrix(0.77562477,0,0,0.77562473,-43.98156,-9.61425)"
       x1="71.204407"
       y1="15.369057"
       x2="71.204407"
       y2="40.495617" />
    <linearGradient
       xlink:href="#linearGradient4140"
       id="linearGradient6964"
       gradientUnits="userSpaceOnUse"
       gradientTransform="matrix(0.2,0,0,0.2,-55.19999,-18.80001)"
       x1="288"
       y1="106"
       x2="384"
       y2="202" />
    <linearGradient
       id="linearGradient4140">
      <stop
         id="stop4142"
         offset="0"
         style="stop-color:#f9c440;stop-opacity:1" />
      <stop
         style="stop-color:#fff394;stop-opacity:1"
         offset="0.50190115"
         id="stop5784" />
      <stop
         id="stop4144"
         offset="1"
         style="stop-color:#f9c440;stop-opacity:1" />
    </linearGradient>
    <radialGradient
       r="10.625"
       fy="4.625"
       fx="62.625"
       cy="4.625"
       cx="62.625"
       gradientTransform="matrix(1.1294118,0,0,0.2823525,-58.7294,19.69412)"
       gradientUnits="userSpaceOnUse"
       id="radialGradient3090-9-3"
       xlink:href="#linearGradient23419" />
    <linearGradient
       id="linearGradient3924-64">
      <stop
         offset="0"
         style="stop-color:#ffffff;stop-opacity:1"
         id="stop3926-3-6" />
      <stop
         offset="0.06316455"
         style="stop-color:#ffffff;stop-opacity:0.23529412"
         id="stop3928-0" />
      <stop
         offset="0.95056331"
         style="stop-color:#ffffff;stop-opacity:0.15686275"
         id="stop3930-3-59" />
      <stop
         offset="1"
         style="stop-color:#ffffff;stop-opacity:0.39215687"
         id="stop3932-0" />
    </linearGradient>
    <radialGradient
       gradientTransform="matrix(2.003784,0,0,1.4,27.98813,-17.4)"
       gradientUnits="userSpaceOnUse"
       xlink:href="#linearGradient3688-166-749-9"
       id="radialGradient3082-6"
       fy="43.5"
       fx="4.9929786"
       r="2.5"
       cy="43.5"
       cx="4.9929786" />
    <linearGradient
       id="linearGradient3688-166-749-9">
      <stop
         offset="0"
         style="stop-color:#181818;stop-opacity:1"
         id="stop2883-2" />
      <stop
         offset="1"
         style="stop-color:#181818;stop-opacity:0"
         id="stop2885-2" />
    </linearGradient>
    <radialGradient
       gradientTransform="matrix(2.003784,0,0,1.4,-20.01187,-104.4)"
       gradientUnits="userSpaceOnUse"
       xlink:href="#linearGradient3688-166-749-9"
       id="radialGradient3084-4"
       fy="43.5"
       fx="4.9929786"
       r="2.5"
       cy="43.5"
       cx="4.9929786" />
    <linearGradient
       gradientUnits="userSpaceOnUse"
       xlink:href="#linearGradient3702-501-757-1"
       id="linearGradient3086-8"
       y2="39.999443"
       x2="25.058096"
       y1="47.027729"
       x1="25.058096" />
    <linearGradient
       id="linearGradient3702-501-757-1">
      <stop
         offset="0"
         style="stop-color:#181818;stop-opacity:0"
         id="stop2895-2" />
      <stop
         offset="0.5"
         style="stop-color:#181818;stop-opacity:1"
         id="stop2897-89" />
      <stop
         offset="1"
         style="stop-color:#181818;stop-opacity:0"
         id="stop2899-36" />
    </linearGradient>
    <linearGradient
       id="linearGradient3242-7-3-8-0-4-58-06">
      <stop
         offset="0"
         style="stop-color:#8cd5ff;stop-opacity:1"
         id="stop3244-5-8-5-6-4-3-8" />
      <stop
         offset="0.26238"
         style="stop-color:#64baff;stop-opacity:1"
         id="stop3246-9-5-1-5-3-0-7" />
      <stop
         offset="0.66093999"
         style="stop-color:#3689e6;stop-opacity:1"
         id="stop3248-7-2-0-7-5-35-9" />
      <stop
         offset="1"
         style="stop-color:#0d52bf;stop-opacity:1"
         id="stop3250-8-2-8-5-6-40-4" />
    </linearGradient>
    <linearGradient
       gradientTransform="matrix(0.45945947,0,0,0.45945947,0.9742189,0.9717503)"
       gradientUnits="userSpaceOnUse"
       xlink:href="#linearGradient3924-64"
       id="linearGradient3192"
       y2="43"
       x2="23.99999"
       y1="4.999989"
       x1="23.99999" />
    <linearGradient
       gradientTransform="matrix(0.34545454,0,0,0.34545454,0.945454,0.945482)"
       gradientUnits="userSpaceOnUse"
       xlink:href="#linearGradient3242-7-3-8-0-4-58-06"
       id="linearGradient3261"
       y2="48.933952"
       x2="24.169817"
       y1="-12.24244"
       x1="24.169817" />
    <linearGradient
       gradientTransform="matrix(0.49999998,0,0,0.25,1.0885132e-6,4.0000009)"
       gradientUnits="userSpaceOnUse"
       xlink:href="#linearGradient23419"
       id="linearGradient3265"
       y2="19.963179"
       x2="23.954144"
       y1="15.999304"
       x1="23.954144" />
    <linearGradient
       gradientTransform="matrix(0.42230832,0,0,0.40494298,1.8646017,1.1780783)"
       gradientUnits="userSpaceOnUse"
       xlink:href="#linearGradient4658-0"
       id="linearGradient3268-1"
       y2="48.395687"
       x2="25.132275"
       y1="15.499894"
       x1="25.132275" />
    <linearGradient
       id="linearGradient4658-0">
      <stop
         offset="0"
         style="stop-color:#fafafa;stop-opacity:1"
         id="stop4660-1" />
      <stop
         offset="1"
         style="stop-color:#e2e1de;stop-opacity:1"
         id="stop4662-0" />
    </linearGradient>
    <linearGradient
       gradientTransform="matrix(0.45945947,0,0,0.45945947,0.9742189,0.9717507)"
       gradientUnits="userSpaceOnUse"
       xlink:href="#linearGradient3924-64"
       id="linearGradient4125"
       y2="43"
       x2="23.99999"
       y1="4.999989"
       x1="23.99999" />
    <radialGradient
       cx="62.625"
       cy="4.625"
       r="10.625"
       fx="62.625"
       fy="4.625"
       id="radialGradient2436"
       xlink:href="#linearGradient23419"
       gradientUnits="userSpaceOnUse"
       gradientTransform="matrix(1.1294118,0,0,0.2823525,-58.729414,19.694118)" />
    <linearGradient
       id="linearGradient3334-995-903-143-677-209-356-728">
      <stop
         id="stop5026"
         style="stop-color:#808080;stop-opacity:1"
         offset="0" />
      <stop
         id="stop5028"
         style="stop-color:#6d6d6d;stop-opacity:1"
         offset="0.87326682" />
      <stop
         id="stop5030"
         style="stop-color:#4f5053;stop-opacity:1"
         offset="1" />
    </linearGradient>
    <linearGradient
       x1="12.962829"
       y1="2.6837947"
       x2="12.962829"
       y2="45.326431"
       id="linearGradient2433"
       xlink:href="#linearGradient3334-995-903-143-677-209-356-728"
       gradientUnits="userSpaceOnUse"
       gradientTransform="matrix(0.5160413,0,0,0.5160413,-0.384991,-0.3849911)" />
    <linearGradient
       id="linearGradient3268">
      <stop
         id="stop3270"
         style="stop-color:#ffffff;stop-opacity:1"
         offset="0" />
      <stop
         id="stop3272"
         style="stop-color:#cdcdcd;stop-opacity:1"
         offset="1" />
    </linearGradient>
    <linearGradient
       id="linearGradient3227">
      <stop
         id="stop3229"
         style="stop-color:#4d4d4d;stop-opacity:1"
         offset="0" />
      <stop
         id="stop3231"
         style="stop-color:#333333;stop-opacity:1"
         offset="1" />
    </linearGradient>
    <linearGradient
       x1="56.323174"
       y1="25.882757"
       x2="72.451813"
       y2="25.882757"
       id="linearGradient3354"
       xlink:href="#linearGradient3227"
       gradientUnits="userSpaceOnUse"
       gradientTransform="translate(-52.626503,-11.909638)" />
    <linearGradient
       id="linearGradient3356">
      <stop
         id="stop3358"
         style="stop-color:#808080;stop-opacity:1"
         offset="0" />
      <stop
         id="stop3360"
         style="stop-color:#6d6d6d;stop-opacity:1"
         offset="0.54610044" />
      <stop
         id="stop3362"
         style="stop-color:#4f5053;stop-opacity:1"
         offset="1" />
    </linearGradient>
    <linearGradient
       x1="3.6966691"
       y1="16.722891"
       x2="19.821404"
       y2="16.722891"
       id="linearGradient3352"
       xlink:href="#linearGradient3356"
       gradientUnits="userSpaceOnUse" />
    <linearGradient
       id="linearGradient4873">
      <stop
         id="stop4875"
         style="stop-color:#ffffff;stop-opacity:1"
         offset="0" />
      <stop
         id="stop4877"
         style="stop-color:#ffffff;stop-opacity:0"
         offset="1" />
    </linearGradient>
    <linearGradient
       x1="63.397362"
       y1="-12.489107"
       x2="63.397362"
       y2="5.4675598"
       id="linearGradient2428"
       xlink:href="#linearGradient4873"
       gradientUnits="userSpaceOnUse"
       gradientTransform="matrix(1.0862728,0,0,1.0862481,-55.56661,15.813638)" />
    <linearGradient
       x1="17.610361"
       y1="0.99995786"
       x2="17.610361"
       y2="23.062979"
       id="linearGradient3914"
       xlink:href="#linearGradient3268"
       gradientUnits="userSpaceOnUse" />
    <linearGradient
       gradientTransform="matrix(1.0181566,0,0,-1.0195328,-0.215304,32.487317)"
       gradientUnits="userSpaceOnUse"
       xlink:href="#linearGradient23419"
       id="linearGradient3223"
       y2="20.187275"
       x2="12.913282"
       y1="17.533852"
       x1="12.913282" />
    <linearGradient
       gradientTransform="matrix(0.45945947,0,0,0.45945947,-30.514048,0.6788328)"
       gradientUnits="userSpaceOnUse"
       xlink:href="#linearGradient4095"
       id="linearGradient3233"
       y2="41.229313"
       x2="23.99999"
       y1="6.5493407"
       x1="23.99999" />
    <linearGradient
       id="linearGradient4095">
      <stop
         offset="0"
         style="stop-color:#ffffff;stop-opacity:1"
         id="stop4097" />
      <stop
         offset="0.01652508"
         style="stop-color:#ffffff;stop-opacity:0.23529412"
         id="stop4100" />
      <stop
         offset="0.98001981"
         style="stop-color:#ffffff;stop-opacity:0.15686275"
         id="stop4102" />
      <stop
         offset="1"
         style="stop-color:#ffffff;stop-opacity:0.39215687"
         id="stop4104" />
    </linearGradient>
    <radialGradient
       gradientTransform="matrix(0,4.6270127,-5.6804933,0,37.477891,-39.037963)"
       gradientUnits="userSpaceOnUse"
       xlink:href="#linearGradient2867-449-88-871-390-598-476-591-434-148-57-177-8-3-3-6-4-8-8-8-5"
       id="radialGradient3215"
       fy="9.9571075"
       fx="6.2001843"
       r="12.671875"
       cy="9.9571075"
       cx="6.7304144" />
    <linearGradient
       id="linearGradient2867-449-88-871-390-598-476-591-434-148-57-177-8-3-3-6-4-8-8-8-5">
      <stop
         offset="0"
         style="stop-color:#919caf;stop-opacity:1"
         id="stop3750-1-0-7-6-6-1-3-9-3" />
      <stop
         offset="0.26238"
         style="stop-color:#68758e;stop-opacity:1"
         id="stop3752-3-7-4-0-32-8-923-0-7" />
      <stop
         offset="0.704952"
         style="stop-color:#485a6c;stop-opacity:1"
         id="stop3754-1-8-5-2-7-6-7-1-9" />
      <stop
         offset="1"
         style="stop-color:#444c5c;stop-opacity:1"
         id="stop3756-1-6-2-6-6-1-96-6-0" />
    </linearGradient>
    <radialGradient
       gradientTransform="matrix(2.003784,0,0,1.4,27.98813,-17.4)"
       gradientUnits="userSpaceOnUse"
       xlink:href="#linearGradient3688-166-749-9"
       id="radialGradient3082-6-3"
       fy="43.5"
       fx="4.9929786"
       r="2.5"
       cy="43.5"
       cx="4.9929786" />
    <radialGradient
       gradientTransform="matrix(2.003784,0,0,1.4,-20.01187,-104.4)"
       gradientUnits="userSpaceOnUse"
       xlink:href="#linearGradient3688-166-749-9"
       id="radialGradient3084-4-5"
       fy="43.5"
       fx="4.9929786"
       r="2.5"
       cy="43.5"
       cx="4.9929786" />
  </defs>
  <metadata
     id="metadata7">
    <rdf:RDF>
      <cc:Work
         rdf:about="">
        <dc:format>image/svg+xml</dc:format>
        <dc:type
           rdf:resource="http://purl.org/dc/dcmitype/StillImage" />
        <dc:title />
      </cc:Work>
    </rdf:RDF>
  </metadata>
  <g
     id="layer1"
     transform="translate(-2e-6,0.01234795)">
    <path
       d="m 24,21 c 0,1.656854 -5.372583,3 -12,3 C 5.3725828,24 -2.5e-7,22.656854 -2.5e-7,21 -2.5e-7,19.343146 5.3725828,18 12,18 c 6.627417,0 12,1.343146 12,3 z"
       id="path8836"
       style="display:inline;overflow:visible;visibility:visible;opacity:0.3;fill:url(#radialGradient2436);fill-opacity:1;fill-rule:evenodd;stroke:none;stroke-width:1;marker:none" />
    <path
       d="m 12.000002,1.501785 c -5.792553,0 -10.498217,4.7056616 -10.498217,10.498214 0,5.792554 4.705664,10.498219 10.498217,10.498216 5.79255,0 10.498219,-4.705662 10.498213,-10.498216 0,-5.7925524 -4.705663,-10.498214 -10.498213,-10.498214 z"
       id="path2555"
       style="fill:url(#linearGradient3914);fill-opacity:1;stroke:url(#linearGradient2433);stroke-width:1.00365;stroke-linecap:round;stroke-linejoin:round;stroke-miterlimit:4;stroke-dasharray:none;stroke-dashoffset:0;stroke-opacity:1" />
    <path
       d="m 19.373494,12.915663 a 7.6144578,7.6144578 0 1 1 -15.2289155,-1e-6 l 7.6144575,1e-6 z"
       transform="matrix(0,1.3789557,-1.3132911,0,28.462025,-4.2151905)"
       id="path3314"
       style="display:inline;overflow:visible;visibility:visible;fill:url(#linearGradient3352);fill-opacity:1;fill-rule:nonzero;stroke:url(#linearGradient3354);stroke-width:0.743095;stroke-linecap:butt;stroke-linejoin:miter;stroke-miterlimit:4;stroke-dasharray:none;stroke-dashoffset:0;stroke-opacity:1;marker:none;enable-background:accumulate" />
    <path
       d="m 21.499999,11.999663 c 0,5.246874 -4.253609,9.500336 -9.499879,9.500336 -5.2467526,0 -9.5001201,-4.253509 -9.5001201,-9.500336 0,-5.2466312 4.2533675,-9.4996623 9.5001201,-9.4996623 5.24627,0 9.499879,4.2530311 9.499879,9.4996623 z"
       id="path2463"
       style="opacity:0.4;fill:none;stroke:url(#linearGradient2428);stroke-width:1;stroke-miterlimit:4;stroke-dasharray:none;stroke-opacity:1" />
  </g>
  <path
     style="color:#000000;clip-rule:nonzero;display:inline;overflow:visible;visibility:visible;opacity:0.1;isolation:auto;mix-blend-mode:normal;color-interpolation:sRGB;color-interpolation-filters:linearRGB;solid-color:#000000;solid-opacity:1;fill:#ffffff;fill-opacity:1;fill-rule:nonzero;stroke:none;stroke-width:1.7;stroke-linecap:butt;stroke-linejoin:miter;stroke-miterlimit:4;stroke-dasharray:none;stroke-dashoffset:0;stroke-opacity:1;marker:none;color-rendering:auto;image-rendering:auto;shape-rendering:auto;text-rendering:auto;enable-background:accumulate"
     d="m 11.142857,7.006175 c -0.154257,0 -0.282804,0.595793 -0.35826,1.447265 A 4.7142854,4.7142854 0 0 0 9.645367,8.932235 C 8.987275,8.380687 8.47321,8.047751 8.363838,8.157123 l -1.212891,1.21289 c -0.109371,0.109373 0.223564,0.623438 0.775113,1.28153 a 4.7142854,4.7142854 0 0 0 -0.47461,1.139229 c -0.853858,0.07538 -1.451451,0.203745 -1.451451,0.358259 v 1.714286 c 0,0.154256 0.595793,0.282803 1.447265,0.358259 a 4.7142854,4.7142854 0 0 0 0.477121,1.141741 C 7.37409,16.02023 7.041708,16.533094 7.150947,16.642335 l 1.212891,1.21289 c 0.109137,0.109137 0.621357,-0.222452 1.277344,-0.771763 a 4.7142854,4.7142854 0 0 0 1.143415,0.471261 c 0.07538,0.853858 0.203745,1.451451 0.35826,1.451451 h 1.714285 c 0.154256,0 0.282803,-0.595793 0.358259,-1.447266 a 4.7142854,4.7142854 0 0 0 1.13923,-0.478795 c 0.658092,0.551549 1.172157,0.884484 1.281529,0.775112 l 1.212891,-1.21289 c 0.109371,-0.109372 -0.223564,-0.623438 -0.775113,-1.281529 a 4.7142854,4.7142854 0 0 0 0.47461,-1.13923 c 0.853858,-0.07538 1.451451,-0.203745 1.451451,-0.358259 v -1.714286 c 0,-0.154256 -0.595793,-0.282803 -1.447265,-0.358259 a 4.7142854,4.7142854 0 0 0 -0.477121,-1.14174 C 16.625908,9.992119 16.95829,9.479254 16.849051,9.370013 L 15.63616,8.157123 C 15.527023,8.047986 15.014803,8.379575 14.358816,8.928887 A 4.7142854,4.7142854 0 0 0 13.215401,8.457625 c -0.07538,-0.853857 -0.203744,-1.45145 -0.358259,-1.45145 z m 0.857142,3.857142 a 2.142857,2.142857 0 0 1 2.142857,2.142857 2.142857,2.142857 0 0 1 -2.142857,2.142857 2.142857,2.142857 0 0 1 -2.142857,-2.142857 2.142857,2.142857 0 0 1 2.142857,-2.142857 z"
     id="path4690-5" />
  <path
     style="color:#000000;clip-rule:nonzero;display:inline;overflow:visible;visibility:visible;isolation:auto;mix-blend-mode:normal;color-interpolation:sRGB;color-interpolation-filters:linearRGB;solid-color:#000000;solid-opacity:1;fill:#333333;fill-opacity:1;fill-rule:nonzero;stroke:none;stroke-width:1;stroke-linecap:butt;stroke-linejoin:miter;stroke-miterlimit:4;stroke-dasharray:none;stroke-dashoffset:0;stroke-opacity:1;marker:none;color-rendering:auto;image-rendering:auto;shape-rendering:auto;text-rendering:auto;enable-background:accumulate"
     d="m 11.142857,6.0062012 c -0.154257,0 -0.282804,0.595793 -0.35826,1.447265 a 4.7142854,4.7142854 0 0 0 -1.13923,0.478795 C 8.987275,7.3807132 8.47321,7.0477772 8.363838,7.1571492 l -1.212891,1.21289 c -0.109371,0.109373 0.223564,0.623438 0.775113,1.28153 A 4.7142854,4.7142854 0 0 0 7.45145,10.790798 c -0.853858,0.07538 -1.451451,0.203745 -1.451451,0.358259 v 1.714286 c 0,0.154256 0.595793,0.282803 1.447265,0.358259 a 4.7142854,4.7142854 0 0 0 0.477121,1.141741 C 7.37409,15.020256 7.041708,15.53312 7.150947,15.642361 l 1.212891,1.21289 c 0.109137,0.109137 0.621357,-0.222452 1.277344,-0.771763 a 4.7142854,4.7142854 0 0 0 1.143415,0.471261 c 0.07538,0.853858 0.203745,1.451451 0.35826,1.451451 h 1.714285 c 0.154256,0 0.282803,-0.595793 0.358259,-1.447266 a 4.7142854,4.7142854 0 0 0 1.13923,-0.478795 c 0.658092,0.551549 1.172157,0.884484 1.281529,0.775112 l 1.212891,-1.21289 c 0.109371,-0.109372 -0.223564,-0.623438 -0.775113,-1.281529 a 4.7142854,4.7142854 0 0 0 0.47461,-1.13923 c 0.853858,-0.07538 1.451451,-0.203745 1.451451,-0.358259 v -1.714286 c 0,-0.154256 -0.595793,-0.282803 -1.447265,-0.358259 A 4.7142854,4.7142854 0 0 0 16.075613,9.6490582 c 0.550295,-0.656913 0.882677,-1.169778 0.773438,-1.279019 l -1.212891,-1.21289 c -0.109137,-0.109137 -0.621357,0.222452 -1.277344,0.771764 a 4.7142854,4.7142854 0 0 0 -1.143415,-0.471262 c -0.07538,-0.853857 -0.203744,-1.45145 -0.358259,-1.45145 z m 0.857142,3.857142 A 2.142857,2.142857 0 0 1 14.142856,12.0062 2.142857,2.142857 0 0 1 11.999999,14.149057 2.142857,2.142857 0 0 1 9.857142,12.0062 2.142857,2.142857 0 0 1 11.999999,9.8633432 Z"
     id="path4690" />
  <path
     d="m 12.002575,14.677355 c 1.469034,0.0381 2.754293,-1.381505 2.563778,-2.842678 -0.114039,-1.464029 -1.647021,-2.6049393 -3.079912,-2.265809 -1.441327,0.2611074 -2.425972,1.896655 -1.944235,3.290986 0.319681,1.053899 1.356615,1.831057 2.460369,1.817501 z"
     id="path4094"
     style="display:inline;overflow:visible;visibility:visible;opacity:0.05;fill:none;stroke:url(#linearGradient3223);stroke-width:1;stroke-linejoin:round;stroke-miterlimit:4;stroke-dasharray:none;stroke-opacity:1;marker:none;enable-background:accumulate" />
  <path
     id="path4272"
     d="m 11.431641,6.506174 c -0.0016,0.00651 -0.0023,0.00495 -0.0039,0.011719 -0.05052,0.2127751 -0.100234,0.5609439 -0.136718,0.9726562 -0.01967,0.2122132 -0.169229,0.3898162 -0.375,0.4453125 C 10.559466,8.0328717 10.215527,8.1791352 9.896484,8.365549 9.711442,8.4729873 9.479008,8.453488 9.314453,8.316721 8.996146,8.0499485 8.712607,7.8366415 8.525391,7.7210179 c -0.0075,-0.00463 -0.0065,-0.00351 -0.01367,-0.00781 l -0.804688,0.804685 c 0.0043,0.00722 0.0032,0.00618 0.0078,0.013672 0.115627,0.1872156 0.328932,0.4707567 0.595706,0.7890623 0.136768,0.1645549 0.156268,0.3969893 0.04883,0.5820313 -0.185205,0.3192225 -0.327917,0.6631535 -0.423828,1.0195315 -0.05575,0.206394 -0.234311,0.356109 -0.447266,0.375 -0.412971,0.03646 -0.761104,0.08617 -0.974609,0.136718 -0.0078,0.0018 -0.0063,0.002 -0.01367,0.0039 v 1.136718 c 0.0065,0.0016 0.005,0.0023 0.01172,0.0039 0.212776,0.05052 0.560942,0.100234 0.972656,0.136718 0.212954,0.01889 0.39152,0.168606 0.447266,0.375 0.09632,0.357064 0.239832,0.701807 0.425781,1.021485 0.10744,0.185042 0.08794,0.417476 -0.04883,0.582031 -0.266119,0.317678 -0.478477,0.600262 -0.59375,0.787109 -0.0046,0.0075 -0.0035,0.0065 -0.0078,0.01367 l 0.802729,0.802735 c 0.0068,-0.0041 0.0066,-0.0015 0.01367,-0.0059 0.186415,-0.114875 0.469932,-0.326199 0.78711,-0.591797 0.16374,-0.136504 0.39511,-0.156759 0.580078,-0.05078 0.320495,0.184275 0.666029,0.327354 1.023437,0.421875 0.207163,0.05505 0.357788,0.233772 0.376954,0.447266 0.03646,0.412971 0.08617,0.761106 0.136718,0.974609 0.0018,0.0077 0.002,0.0063 0.0039,0.01367 h 1.136718 c 0.0016,-0.0065 0.0023,-0.0049 0.0039,-0.01172 0.05052,-0.212776 0.100234,-0.560942 0.136718,-0.972656 0.01967,-0.212213 0.169229,-0.389817 0.375,-0.445313 0.35655,-0.09701 0.700488,-0.243274 1.019532,-0.429687 0.185042,-0.107438 0.417476,-0.08794 0.582031,0.04883 0.318306,0.266773 0.601846,0.480079 0.789062,0.595703 0.0075,0.0046 0.0065,0.0035 0.01367,0.0078 l 0.804688,-0.804688 c -0.0043,-0.0072 -0.0032,-0.0062 -0.0078,-0.01367 -0.115624,-0.187215 -0.328929,-0.470758 -0.595703,-0.789062 -0.136768,-0.164555 -0.156268,-0.396989 -0.04883,-0.582031 0.185205,-0.319223 0.327917,-0.663154 0.423828,-1.019532 0.05575,-0.206394 0.234312,-0.356109 0.447266,-0.375 0.412971,-0.03646 0.761105,-0.08617 0.974609,-0.136718 0.0077,-0.0018 0.0063,-0.002 0.01367,-0.0039 v -1.136718 c -0.0065,-0.0016 -0.0049,-0.0023 -0.01172,-0.0039 -0.212777,-0.05052 -0.560942,-0.100234 -0.972656,-0.136718 -0.212954,-0.01889 -0.39152,-0.168606 -0.447266,-0.375 -0.09632,-0.357064 -0.239832,-0.701807 -0.425781,-1.0214848 -0.10744,-0.185042 -0.08794,-0.4174763 0.04883,-0.5820312 0.26612,-0.3176779 0.478477,-0.6002621 0.59375,-0.7871094 0.0046,-0.00748 0.0035,-0.00647 0.0078,-0.013672 L 15.490232,7.7151584 c -0.0068,0.00407 -0.0066,0.00149 -0.01367,0.00586 -0.186415,0.1148753 -0.469931,0.3261985 -0.787109,0.5917968 -0.16374,0.1365044 -0.39511,0.1567591 -0.580078,0.050781 C 13.788878,8.1793212 13.443344,8.0362415 13.085936,7.9417209 12.878773,7.8866699 12.728148,7.7079487 12.708982,7.4944552 12.672522,7.0814855 12.622812,6.7333501 12.572264,6.5198459 c -0.0018,-0.00775 -0.002,-0.00627 -0.0039,-0.013672 z"
     style="color:#000000;clip-rule:nonzero;display:inline;overflow:visible;visibility:visible;opacity:0.05;isolation:auto;mix-blend-mode:normal;color-interpolation:sRGB;color-interpolation-filters:linearRGB;solid-color:#000000;solid-opacity:1;fill:none;fill-opacity:1;fill-rule:nonzero;stroke:#000000;stroke-width:1;stroke-linecap:butt;stroke-linejoin:miter;stroke-miterlimit:4;stroke-dasharray:none;stroke-dashoffset:0;stroke-opacity:1;marker:none;color-rendering:auto;image-rendering:auto;shape-rendering:auto;text-rendering:auto;enable-background:accumulate" />
</svg>
