<?xml version="1.0" encoding="UTF-8" standalone="no"?>
<svg
   xmlns:dc="http://purl.org/dc/elements/1.1/"
   xmlns:cc="http://creativecommons.org/ns#"
   xmlns:rdf="http://www.w3.org/1999/02/22-rdf-syntax-ns#"
   xmlns:svg="http://www.w3.org/2000/svg"
   xmlns="http://www.w3.org/2000/svg"
   xmlns:xlink="http://www.w3.org/1999/xlink"
   xmlns:sodipodi="http://sodipodi.sourceforge.net/DTD/sodipodi-0.dtd"
   xmlns:inkscape="http://www.inkscape.org/namespaces/inkscape"
   width="16"
   height="16"
   viewBox="0 0 16 16"
   id="svg2"
   version="1.1"
   inkscape:version="1.0.1 (3bc2e813f5, 2020-09-07)"
   sodipodi:docname="com.github.lainsce.icon-previewer.svg">
  <sodipodi:namedview
     pagecolor="#ffffff"
     bordercolor="#666666"
     borderopacity="1"
     objecttolerance="10"
     gridtolerance="10"
     guidetolerance="10"
     inkscape:pageopacity="0"
     inkscape:pageshadow="2"
     inkscape:window-width="2560"
     inkscape:window-height="958"
     id="namedview4265"
     showgrid="true"
     showguides="false"
     inkscape:guide-bbox="true"
     inkscape:zoom="31.999999"
     inkscape:cx="13.514607"
     inkscape:cy="6.480144"
     inkscape:window-x="0"
     inkscape:window-y="30"
     inkscape:window-maximized="1"
     inkscape:current-layer="svg2"
     inkscape:document-rotation="0">
    <inkscape:grid
       type="xygrid"
       id="grid4272" />
    <sodipodi:guide
       position="20,14"
       orientation="0,1"
       id="guide4276"
       inkscape:locked="false" />
    <sodipodi:guide
       position="20,8"
       orientation="0,1"
       id="guide4278"
       inkscape:locked="false" />
  </sodipodi:namedview>
  <defs
     id="defs4">
    <linearGradient
       inkscape:collect="always"
       id="linearGradient929">
      <stop
         style="stop-color:#fafafa;stop-opacity:1"
         offset="0"
         id="stop925" />
      <stop
         style="stop-color:#fafafa;stop-opacity:1"
         offset="0.50000024"
         id="stop943" />
      <stop
         style="stop-color:#4d4d4d;stop-opacity:1"
         offset="0.50000024"
         id="stop945" />
      <stop
         style="stop-color:#4d4d4d;stop-opacity:1"
         offset="1"
         id="stop927" />
    </linearGradient>
    <linearGradient
       id="linearGradient1360">
      <stop
         id="stop1352"
         style="stop-color:#64baff;stop-opacity:1"
         offset="0" />
      <stop
         id="stop1354"
         style="stop-color:#64baff;stop-opacity:1"
         offset="0.26238" />
      <stop
         id="stop1356"
         style="stop-color:#3689e6;stop-opacity:1"
         offset="0.66093999" />
      <stop
         id="stop1358"
         style="stop-color:#0d52bf;stop-opacity:1"
         offset="1" />
    </linearGradient>
    <linearGradient
       xlink:href="#linearGradient4251"
       id="linearGradient6948"
       gradientUnits="userSpaceOnUse"
       gradientTransform="matrix(0.13291676,0,0,0.13291667,-52.660025,-28.469167)"
       x1="304"
       y1="98"
       x2="368"
       y2="210" />
    <linearGradient
       id="linearGradient4251">
      <stop
         id="stop4259"
         offset="0"
         style="stop-color:#cccccc;stop-opacity:1" />
      <stop
         style="stop-color:#f4f4f4;stop-opacity:1"
         offset="0.51999998"
         id="stop6460" />
      <stop
         style="stop-color:#c1c1c1;stop-opacity:1"
         offset="1"
         id="stop4183" />
    </linearGradient>
    <linearGradient
       xlink:href="#linearGradient4140"
       id="linearGradient6944"
       gradientUnits="userSpaceOnUse"
       gradientTransform="matrix(0.13809524,0,0,0.13809533,-38.4,-13.266686)"
       x1="288"
       y1="106"
       x2="384"
       y2="202" />
    <linearGradient
       id="linearGradient4140">
      <stop
         id="stop4142"
         offset="0"
         style="stop-color:#f9c440;stop-opacity:1" />
      <stop
         style="stop-color:#fff394;stop-opacity:1"
         offset="0.50190115"
         id="stop5784" />
      <stop
         id="stop4144"
         offset="1"
         style="stop-color:#f9c440;stop-opacity:1" />
    </linearGradient>
    <radialGradient
       spreadMethod="reflect"
       gradientTransform="matrix(0.36374388,0,1.2499998e-8,0.68240496,-0.59241448,-2.3516963)"
       gradientUnits="userSpaceOnUse"
       xlink:href="#linearGradient3520-6-6-8"
       id="radialGradient4505"
       fy="4.9179006"
       fx="14"
       r="2"
       cy="4.9179006"
       cx="14" />
    <linearGradient
       id="linearGradient3520-6-6-8">
      <stop
         offset="0"
         style="stop-color:#ffffff;stop-opacity:1"
         id="stop3522-3-8-0" />
      <stop
         offset="1"
         style="stop-color:#8f8f8f;stop-opacity:1"
         id="stop3524-6-7-1" />
    </linearGradient>
    <radialGradient
       spreadMethod="reflect"
       gradientTransform="matrix(0.36374388,0,1.2499998e-8,0.68240496,-0.59241448,-2.3516963)"
       gradientUnits="userSpaceOnUse"
       xlink:href="#linearGradient3520-6-6-8"
       id="radialGradient4459"
       fy="4.9179006"
       fx="14"
       r="2"
       cy="4.9179006"
       cx="14" />
    <linearGradient
       id="linearGradient3924-4-4-5">
      <stop
         offset="0"
         style="stop-color:#ffffff;stop-opacity:1"
         id="stop3926-0-5-5" />
      <stop
         offset="0.06316455"
         style="stop-color:#ffffff;stop-opacity:0.23529412"
         id="stop3928-6-5-8" />
      <stop
         offset="0.95056331"
         style="stop-color:#ffffff;stop-opacity:0.15686275"
         id="stop3930-2-2-3" />
      <stop
         offset="1"
         style="stop-color:#ffffff;stop-opacity:0.39215687"
         id="stop3932-9-8-7" />
    </linearGradient>
    <linearGradient
       id="linearGradient3510-9-7">
      <stop
         offset="0"
         style="stop-color:#000000;stop-opacity:1"
         id="stop3512-9-6" />
      <stop
         offset="1"
         style="stop-color:#000000;stop-opacity:0"
         id="stop3514-9-1" />
    </linearGradient>
    <linearGradient
       gradientTransform="matrix(0.2972973,0,0,0.2972973,0.8648665,0.8648673)"
       gradientUnits="userSpaceOnUse"
       xlink:href="#linearGradient3924-4-4-5"
       id="linearGradient3047"
       y2="43"
       x2="23.99999"
       y1="4.999989"
       x1="23.99999" />
    <linearGradient
       gradientTransform="matrix(0.35,0,0,0.25,-0.3999984,1.999998)"
       gradientUnits="userSpaceOnUse"
       xlink:href="#linearGradient3510-9-7"
       id="linearGradient3058"
       y2="19.963179"
       x2="23.954144"
       y1="15.999304"
       x1="23.954144" />
    <linearGradient
       gradientTransform="matrix(0.45945947,0,0,0.45945947,0.9742189,0.9717507)"
       gradientUnits="userSpaceOnUse"
       xlink:href="#linearGradient3924-4-4-5"
       id="linearGradient4125"
       y2="43"
       x2="23.99999"
       y1="4.999989"
       x1="23.99999" />
    <linearGradient
       id="linearGradient4658-0">
      <stop
         offset="0"
         style="stop-color:#fafafa;stop-opacity:1"
         id="stop4660-1" />
      <stop
         offset="1"
         style="stop-color:#e2e1de;stop-opacity:1"
         id="stop4662-0" />
    </linearGradient>
    <linearGradient
       gradientTransform="matrix(0.42230832,0,0,0.40494298,1.8646017,1.1780783)"
       gradientUnits="userSpaceOnUse"
       xlink:href="#linearGradient4658-0"
       id="linearGradient3268-1"
       y2="48.395687"
       x2="25.132275"
       y1="15.499894"
       x1="25.132275" />
    <linearGradient
       gradientTransform="matrix(0.48363636,0,0,0.17272727,0.392727,4.400028)"
       gradientUnits="userSpaceOnUse"
       xlink:href="#linearGradient3510-9-7"
       id="linearGradient3265"
       y2="19.963179"
       x2="23.954144"
       y1="15.999304"
       x1="23.954144" />
    <linearGradient
       gradientTransform="matrix(0.34545454,0,0,0.34545454,0.945454,0.945482)"
       gradientUnits="userSpaceOnUse"
       xlink:href="#linearGradient3242-7-3-8-0-4-58-06"
       id="linearGradient3261"
       y2="48.933952"
       x2="24.169817"
       y1="-12.24244"
       x1="24.169817" />
    <linearGradient
       gradientTransform="matrix(0.45945947,0,0,0.45945947,0.9742189,0.9717503)"
       gradientUnits="userSpaceOnUse"
       xlink:href="#linearGradient3924-4-4-5"
       id="linearGradient3192"
       y2="43"
       x2="23.99999"
       y1="4.999989"
       x1="23.99999" />
    <linearGradient
       id="linearGradient3242-7-3-8-0-4-58-06">
      <stop
         offset="0"
         style="stop-color:#cdf87e;stop-opacity:1"
         id="stop3244-5-8-5-6-4-3-8" />
      <stop
         offset="0.26238"
         style="stop-color:#a2e34f;stop-opacity:1"
         id="stop3246-9-5-1-5-3-0-7" />
      <stop
         offset="0.66093999"
         style="stop-color:#68b723;stop-opacity:1"
         id="stop3248-7-2-0-7-5-35-9" />
      <stop
         offset="1"
         style="stop-color:#1d7e0d;stop-opacity:1"
         id="stop3250-8-2-8-5-6-40-4" />
    </linearGradient>
    <linearGradient
       id="linearGradient3702-501-757-1">
      <stop
         offset="0"
         style="stop-color:#181818;stop-opacity:0"
         id="stop2895-2" />
      <stop
         offset="0.5"
         style="stop-color:#181818;stop-opacity:1"
         id="stop2897-89" />
      <stop
         offset="1"
         style="stop-color:#181818;stop-opacity:0"
         id="stop2899-36" />
    </linearGradient>
    <linearGradient
       gradientUnits="userSpaceOnUse"
       xlink:href="#linearGradient3702-501-757-1"
       id="linearGradient3086-8"
       y2="39.999443"
       x2="25.058096"
       y1="47.027729"
       x1="25.058096" />
    <linearGradient
       id="linearGradient3688-464-309-7-6">
      <stop
         offset="0"
         style="stop-color:#181818;stop-opacity:1"
         id="stop2889-75" />
      <stop
         offset="1"
         style="stop-color:#181818;stop-opacity:0"
         id="stop2891-4-9" />
    </linearGradient>
    <radialGradient
       gradientTransform="matrix(2.003784,0,0,1.4,-20.01187,-104.4)"
       gradientUnits="userSpaceOnUse"
       xlink:href="#linearGradient3688-464-309-7-6"
       id="radialGradient3084-4"
       fy="43.5"
       fx="4.9929786"
       r="2.5"
       cy="43.5"
       cx="4.9929786" />
    <radialGradient
       gradientTransform="matrix(2.003784,0,0,1.4,27.98813,-17.4)"
       gradientUnits="userSpaceOnUse"
       xlink:href="#linearGradient3688-464-309-7-6"
       id="radialGradient3082-6"
       fy="43.5"
       fx="4.9929786"
       r="2.5"
       cy="43.5"
       cx="4.9929786" />
    <linearGradient
       gradientTransform="matrix(0.45945947,0,0,0.45945947,-25.73765,0.40394072)"
       gradientUnits="userSpaceOnUse"
       xlink:href="#linearGradient3924-4-4-5"
       id="linearGradient3145"
       y2="43"
       x2="23.99999"
       y1="4.999989"
       x1="23.99999" />
    <linearGradient
       gradientTransform="matrix(0.23636363,0,0,0.23636363,0.436364,0.7258469)"
       gradientUnits="userSpaceOnUse"
       xlink:href="#linearGradient1360"
       id="linearGradient3151"
       y2="48.933952"
       x2="24.169817"
       y1="-12.24244"
       x1="24.169817" />
    <linearGradient
       gradientTransform="matrix(0.48363636,0,0,0.17272727,-26.319142,3.832218)"
       gradientUnits="userSpaceOnUse"
       xlink:href="#linearGradient3510-9-7"
       id="linearGradient3155"
       y2="19.963179"
       x2="23.954144"
       y1="15.999304"
       x1="23.954144" />
    <linearGradient
       gradientTransform="matrix(0.45945947,0,0,0.45945947,-25.73765,0.40394032)"
       gradientUnits="userSpaceOnUse"
       xlink:href="#linearGradient3924-4-4-5"
       id="linearGradient3158"
       y2="43"
       x2="23.99999"
       y1="4.999989"
       x1="23.99999" />
    <linearGradient
       gradientTransform="matrix(0.27756234,0,0,0.26614896,1.3046022,1.0991379)"
       gradientUnits="userSpaceOnUse"
       xlink:href="#linearGradient4658-0"
       id="linearGradient3161"
       y2="48.395687"
       x2="25.132275"
       y1="15.499894"
       x1="25.132275" />
    <linearGradient
       x1="63.397362"
       y1="-12.489107"
       x2="63.397362"
       y2="5.4675598"
       id="linearGradient2990"
       xlink:href="#linearGradient4873"
       gradientUnits="userSpaceOnUse"
       gradientTransform="matrix(0.7432394,0,0,0.7432224,-38.229789,10.609333)" />
    <linearGradient
       id="linearGradient4873">
      <stop
         id="stop4875"
         style="stop-color:#ffffff;stop-opacity:1"
         offset="0" />
      <stop
         id="stop4877"
         style="stop-color:#ffffff;stop-opacity:0"
         offset="1" />
    </linearGradient>
    <linearGradient
       x1="3.6966691"
       y1="16.722891"
       x2="19.821404"
       y2="16.722891"
       id="linearGradient2916"
       xlink:href="#linearGradient3356"
       gradientUnits="userSpaceOnUse"
       gradientTransform="matrix(0,0.98489584,-0.91917381,0,19.372573,-3.5808731)" />
    <linearGradient
       id="linearGradient3356">
      <stop
         id="stop3358"
         style="stop-color:#808080;stop-opacity:1"
         offset="0" />
      <stop
         id="stop3360"
         style="stop-color:#6d6d6d;stop-opacity:1"
         offset="0.54610044" />
      <stop
         id="stop3362"
         style="stop-color:#4f5053;stop-opacity:1"
         offset="1" />
    </linearGradient>
    <linearGradient
       x1="56.323174"
       y1="25.882757"
       x2="72.451813"
       y2="25.882757"
       id="linearGradient2918"
       xlink:href="#linearGradient3227"
       gradientUnits="userSpaceOnUse"
       gradientTransform="matrix(0,0.98489584,-0.91917381,0,30.3196,-55.412497)" />
    <linearGradient
       id="linearGradient3227">
      <stop
         id="stop3229"
         style="stop-color:#4d4d4d;stop-opacity:1"
         offset="0" />
      <stop
         id="stop3231"
         style="stop-color:#333333;stop-opacity:1"
         offset="1" />
    </linearGradient>
    <linearGradient
       id="linearGradient3268-4">
      <stop
         id="stop3270-6"
         style="stop-color:#ffffff;stop-opacity:1"
         offset="0" />
      <stop
         id="stop3272-6"
         style="stop-color:#cdcdcd;stop-opacity:1"
         offset="1" />
    </linearGradient>
    <linearGradient
       id="linearGradient3334-995-903-143-677-209-356-728-2">
      <stop
         id="stop5026-7"
         style="stop-color:#808080;stop-opacity:1"
         offset="0" />
      <stop
         id="stop5028-4"
         style="stop-color:#6d6d6d;stop-opacity:1"
         offset="0.87326682" />
      <stop
         id="stop5030-1"
         style="stop-color:#4f5053;stop-opacity:1"
         offset="1" />
    </linearGradient>
    <linearGradient
       x1="17.610361"
       y1="0.99995786"
       x2="17.610361"
       y2="23.062979"
       id="linearGradient3064"
       xlink:href="#linearGradient3268-4"
       gradientUnits="userSpaceOnUse"
       gradientTransform="matrix(0.71417163,0,0,0.71423312,-0.569414,-0.57079725)" />
    <linearGradient
       x1="12.962829"
       y1="2.6837947"
       x2="12.962829"
       y2="45.326431"
       id="linearGradient3066"
       xlink:href="#linearGradient3334-995-903-143-677-209-356-728-2"
       gradientUnits="userSpaceOnUse"
       gradientTransform="matrix(0.36854206,0,0,0.36857379,-0.844364,-0.84577064)" />
    <linearGradient
       x1="23.99999"
       y1="4.999989"
       x2="23.99999"
       y2="43"
       id="linearGradient3304"
       xlink:href="#linearGradient3924-4-4-5"
       gradientUnits="userSpaceOnUse"
       gradientTransform="matrix(0.2972973,0,0,0.2972973,-20.416381,-2.8226328)" />
    <linearGradient
       id="linearGradient2867-449-88-871-390-598-476-591-434-148-57-177-8-3-3-6-4-8-8-8-5">
      <stop
         id="stop3750-1-0-7-6-6-1-3-9-3"
         style="stop-color:#919caf;stop-opacity:1"
         offset="0" />
      <stop
         id="stop3752-3-7-4-0-32-8-923-0-7"
         style="stop-color:#68758e;stop-opacity:1"
         offset="0.26238" />
      <stop
         id="stop3754-1-8-5-2-7-6-7-1-9"
         style="stop-color:#485a6c;stop-opacity:1"
         offset="0.704952" />
      <stop
         id="stop3756-1-6-2-6-6-1-96-6-0"
         style="stop-color:#444c5c;stop-opacity:1"
         offset="1" />
    </linearGradient>
    <radialGradient
       cx="6.7304144"
       cy="9.9571075"
       r="12.671875"
       fx="6.2001843"
       fy="9.9571075"
       id="radialGradient4370"
       xlink:href="#linearGradient2867-449-88-871-390-598-476-591-434-148-57-177-8-3-3-6-4-8-8-8-5"
       gradientUnits="userSpaceOnUse"
       gradientTransform="matrix(0,3.1658508,-3.8866533,0,25.695589,-30.407826)" />
    <linearGradient
       inkscape:collect="always"
       xlink:href="#linearGradient929"
       id="linearGradient931"
       x1="3.999998"
       y1="8.0002305"
       x2="11.999998"
       y2="8.0002305"
       gradientUnits="userSpaceOnUse" />
    <linearGradient
       inkscape:collect="always"
       xlink:href="#linearGradient929"
       id="linearGradient953"
       x1="3.9999981"
       y1="9.000001"
       x2="11.999998"
       y2="9.000001"
       gradientUnits="userSpaceOnUse" />
  </defs>
  <metadata
     id="metadata7">
    <rdf:RDF>
      <cc:Work
         rdf:about="">
        <dc:format>image/svg+xml</dc:format>
        <dc:type
           rdf:resource="http://purl.org/dc/dcmitype/StillImage" />
        <dc:title />
      </cc:Work>
    </rdf:RDF>
  </metadata>
  <g
     id="layer1"
     transform="translate(-2.0249863e-6,2.288e-4)">
    <path
       d="m 8.0000011,0.50182812 c -4.1372321,0 -7.4981741,3.36093918 -7.4981741,7.49817178 0,4.1372331 3.360942,7.4981751 7.4981741,7.4981721 4.1372309,0 7.4981759,-3.360939 7.4981719,-7.4981721 0,-4.1372326 -3.360941,-7.49817178 -7.4981719,-7.49817178 z"
       id="path2555"
       style="color:#000000;display:inline;overflow:visible;visibility:visible;fill:url(#linearGradient3064);fill-opacity:1;fill-rule:nonzero;stroke:url(#linearGradient3066);stroke-width:1.00365;stroke-linecap:round;stroke-linejoin:round;stroke-miterlimit:4;stroke-dasharray:none;stroke-dashoffset:0;stroke-opacity:1;marker:none;enable-background:accumulate" />
    <path
       d="m 7.5008339,15.5 a 6.9990102,7.4994477 0 1 1 0,-14.998895 v 7.4994474 z"
       id="path3314"
       style="display:inline;overflow:visible;visibility:visible;fill:url(#linearGradient2916);fill-opacity:1;fill-rule:nonzero;stroke:url(#linearGradient2918);stroke-width:1;stroke-linecap:butt;stroke-linejoin:miter;stroke-miterlimit:4;stroke-dasharray:none;stroke-dashoffset:0;stroke-opacity:1;marker:none;enable-background:accumulate" />
    <path
       d="M 14.500001,7.9997712 C 14.500001,11.589737 11.589636,14.5 8.0000818,14.5 4.4101984,14.5 1.5000001,11.589705 1.5000001,7.9997712 c 0,-3.5898006 2.9101983,-6.4997695 6.5000817,-6.4997695 3.5895542,0 6.4999192,2.9099689 6.4999192,6.4997695 z"
       id="path2463"
       style="opacity:0.4;fill:none;stroke:url(#linearGradient2990);stroke-width:1;stroke-miterlimit:4;stroke-dasharray:none;stroke-opacity:1" />
  </g>
  <path
     d="m 7.249998,5 c -0.1385,0 -0.25,0.1115 -0.25,0.25 V 6.1875 C 6.903908,6.221989 6.810019,6.268764 6.718748,6.3125 L 6.062498,5.65625 C 6.013528,5.607283 5.938903,5.5625 5.874998,5.5625 c -0.06391,0 -0.138533,0.044783 -0.1875,0.09375 L 4.656248,6.6875 c -0.09793,0.097934 -0.09793,0.2770659 0,0.375 l 0.65625,0.65625 C 5.268758,7.81002 5.221988,7.9039138 5.187498,8 h -0.9375 c -0.1385,0 -0.25,0.1115 -0.25,0.25 v 1.5 c 0,0.1385 0.1115,0.25 0.25,0.25 h 0.9375 c 0.03449,0.09609 0.08126,0.189979 0.125,0.281251 l -0.65625,0.65625 c -0.09793,0.09793 -0.09793,0.277065 0,0.375 l 1.03125,1.03125 c 0.09793,0.09793 0.277066,0.09793 0.375,0 l 0.65625,-0.65625 c 0.09127,0.04374 0.185164,0.09051 0.28125,0.125 v 0.9375 c 0,0.1385 0.1115,0.25 0.25,0.25 h 1.5 c 0.1385,0 0.25,-0.1115 0.25,-0.25 v -0.9375 c 0.096086,-0.03449 0.189979,-0.08126 0.28125,-0.125 l 0.65625,0.65625 c 0.09793,0.09793 0.277065,0.09793 0.375,0 l 1.03125,-1.03125 c 0.09793,-0.09793 0.09793,-0.277066 0,-0.375 l -0.65625,-0.65625 c 0.04374,-0.09127 0.09051,-0.185165 0.125,-0.281251 h 0.9375 c 0.1385,0 0.25,-0.1115 0.25,-0.25 v -1.5 c 0,-0.1385 -0.1115,-0.25 -0.25,-0.25 h -0.9375 c -0.03449,-0.096086 -0.08126,-0.1899795 -0.125,-0.28125 l 0.65625,-0.65625 c 0.09793,-0.097934 0.09793,-0.2770656 0,-0.375 l -1.03125,-1.03125 c -0.09793,-0.097934 -0.277066,-0.097935 -0.375,0 L 9.281248,6.3125 C 9.189978,6.268764 9.096084,6.221989 8.999998,6.1875 V 5.25 c 0,-0.1385 -0.1115,-0.25 -0.25,-0.25 z m 0.75,3 c 0.552,0 1,0.448 1,1 0,0.552 -0.448,1 -1,1 -0.552,0 -1,-0.448 -1,-1 0,-0.552 0.448,-1 1,-1 z"
     id="path2502"
     style="display:inline;overflow:visible;visibility:visible;opacity:0.1;fill:url(#linearGradient953);fill-opacity:1.0;fill-rule:nonzero;stroke:none;stroke-width:1.7;marker:none;enable-background:accumulate" />
  <path
     d="m 7.249998,4.00023 c -0.1385,0 -0.25,0.1115 -0.25,0.25 v 0.9375 c -0.09609,0.034489 -0.189979,0.081264 -0.28125,0.125 L 6.062498,4.65648 C 6.013528,4.607513 5.938903,4.56273 5.874998,4.56273 c -0.06391,0 -0.138533,0.044783 -0.1875,0.09375 l -1.03125,1.03125 c -0.09793,0.097934 -0.09793,0.2770659 0,0.375 l 0.65625,0.65625 c -0.04374,0.09127 -0.09051,0.1851638 -0.125,0.28125 h -0.9375 c -0.1385,0 -0.25,0.1115 -0.25,0.25 v 1.5 c 0,0.1385 0.1115,0.25 0.25,0.25 h 0.9375 c 0.03449,0.096086 0.08126,0.1899795 0.125,0.28125 l -0.65625,0.65625 c -0.09793,0.097937 -0.09793,0.277066 0,0.375001 l 1.03125,1.03125 c 0.09793,0.09793 0.277066,0.09793 0.375,0 l 0.65625,-0.65625 c 0.09127,0.04374 0.185164,0.09051 0.28125,0.125 v 0.9375 c 0,0.1385 0.1115,0.25 0.25,0.25 h 1.5 c 0.1385,0 0.25,-0.1115 0.25,-0.25 v -0.9375 c 0.096086,-0.03449 0.189979,-0.08126 0.28125,-0.125 l 0.65625,0.65625 c 0.09793,0.09793 0.277065,0.09793 0.375,0 l 1.03125,-1.03125 c 0.09793,-0.09793 0.09793,-0.277066 0,-0.375001 l -0.65625,-0.65625 c 0.04374,-0.091271 0.09051,-0.1851638 0.125,-0.28125 h 0.9375 c 0.1385,0 0.25,-0.1115 0.25,-0.25 v -1.5 c 0,-0.1385 -0.1115,-0.25 -0.25,-0.25 h -0.9375 c -0.03449,-0.096086 -0.08126,-0.1899795 -0.125,-0.28125 l 0.65625,-0.65625 c 0.09793,-0.097934 0.09793,-0.2770656 0,-0.375 l -1.03125,-1.03125 c -0.09793,-0.097934 -0.277066,-0.097935 -0.375,0 L 9.281248,5.31273 C 9.189978,5.268994 9.096084,5.222219 8.999998,5.18773 v -0.9375 c 0,-0.1385 -0.1115,-0.25 -0.25,-0.25 z m 0.75,3 c 0.552,0 1,0.448 1,1 0,0.552 -0.448,1 -1,1 -0.552,0 -1,-0.448 -1,-1 0,-0.552 0.448,-1 1,-1 z"
     id="rect2484"
     style="color:#000000;display:inline;overflow:visible;visibility:visible;fill:url(#linearGradient931);fill-opacity:1;fill-rule:nonzero;stroke:none;stroke-width:1;marker:none;enable-background:accumulate" />
</svg>
