<?xml version="1.0" encoding="UTF-8" standalone="no"?>
<svg
   xmlns:dc="http://purl.org/dc/elements/1.1/"
   xmlns:cc="http://creativecommons.org/ns#"
   xmlns:rdf="http://www.w3.org/1999/02/22-rdf-syntax-ns#"
   xmlns:svg="http://www.w3.org/2000/svg"
   xmlns="http://www.w3.org/2000/svg"
   xmlns:xlink="http://www.w3.org/1999/xlink"
   xmlns:sodipodi="http://sodipodi.sourceforge.net/DTD/sodipodi-0.dtd"
   xmlns:inkscape="http://www.inkscape.org/namespaces/inkscape"
   width="32px"
   height="32px"
   viewBox="0 0 32 32"
   version="1.1"
   id="svg519"
   sodipodi:docname="com.github.lainsce.icon-previewer.svg"
   inkscape:version="1.0.1 (3bc2e813f5, 2020-09-07)">
  <metadata
     id="metadata523">
    <rdf:RDF>
      <cc:Work
         rdf:about="">
        <dc:format>image/svg+xml</dc:format>
        <dc:type
           rdf:resource="http://purl.org/dc/dcmitype/StillImage" />
      </cc:Work>
    </rdf:RDF>
  </metadata>
  <sodipodi:namedview
     pagecolor="#ffffff"
     bordercolor="#666666"
     borderopacity="1"
     objecttolerance="10"
     gridtolerance="10"
     guidetolerance="10"
     inkscape:pageopacity="0"
     inkscape:pageshadow="2"
     inkscape:window-width="2560"
     inkscape:window-height="1016"
     id="namedview521"
     showgrid="true"
     inkscape:zoom="22.627417"
     inkscape:cx="19.358385"
     inkscape:cy="18.729195"
     inkscape:window-x="0"
     inkscape:window-y="0"
     inkscape:window-maximized="1"
     inkscape:current-layer="svg519"
     inkscape:document-rotation="0">
    <inkscape:grid
       type="xygrid"
       id="grid2879" />
  </sodipodi:namedview>
  <defs
     id="defs476">
    <linearGradient
       id="linearGradient1176"
       gradientUnits="userSpaceOnUse"
       x1="12.962829"
       y1="2.683795"
       x2="12.962829"
       y2="45.326431"
       gradientTransform="matrix(0.688069,0,0,0.688058,-0.51344,-1.0134)">
      <stop
         offset="0"
         style="stop-color:rgb(50.196081%,50.196081%,50.196081%);stop-opacity:1;"
         id="stop1170" />
      <stop
         offset="0.48275861"
         style="stop-color:rgb(42.745098%,42.745098%,42.745098%);stop-opacity:1;"
         id="stop1172" />
      <stop
         offset="1"
         style="stop-color:rgb(30.980393%,31.37255%,32.549021%);stop-opacity:1;"
         id="stop1174" />
    </linearGradient>
    <linearGradient
       inkscape:collect="always"
       id="linearGradient2887">
      <stop
         style="stop-color:#000000;stop-opacity:1;"
         offset="0"
         id="stop2883" />
      <stop
         style="stop-color:#000000;stop-opacity:0;"
         offset="1"
         id="stop2885" />
    </linearGradient>
    <filter
       id="alpha"
       filterUnits="objectBoundingBox"
       x="0%"
       y="0%"
       width="100%"
       height="100%">
      <feColorMatrix
         type="matrix"
         in="SourceGraphic"
         values="0 0 0 0 1 0 0 0 0 1 0 0 0 0 1 0 0 0 1 0"
         id="feColorMatrix2" />
    </filter>
    <mask
       id="mask0">
      <g
         filter="url(#alpha)"
         id="g7">
        <rect
           x="0"
           y="0"
           width="32"
           height="32"
           style="fill:rgb(0%,0%,0%);fill-opacity:0.2;stroke:none;"
           id="rect5" />
      </g>
    </mask>
    <radialGradient
       id="radial0"
       gradientUnits="userSpaceOnUse"
       cx="99.189415"
       cy="185.297272"
       fx="99.189415"
       fy="185.297272"
       r="62.769119"
       gradientTransform="matrix(0.382354,0.0000000755555,-0.0000000183722,0.111519,134.074573,113.334127)">
      <stop
         offset="0"
         style="stop-color:rgb(0%,0%,0%);stop-opacity:1;"
         id="stop10" />
      <stop
         offset="1"
         style="stop-color:rgb(0%,0%,0%);stop-opacity:0;"
         id="stop12" />
    </radialGradient>
    <clipPath
       id="clip1">
      <rect
         x="0"
         y="0"
         width="210"
         height="150"
         id="rect15" />
    </clipPath>
    <g
       id="surface52802"
       clip-path="url(#clip1)">
      <path
         style=" stroke:none;fill-rule:nonzero;fill:url(#radial0);"
         d="M 196 134 C 196.003906 137.867188 185.257812 141 172 141 C 158.742188 141 147.996094 137.867188 148 134 C 147.996094 130.132812 158.742188 127 172 127 C 185.257812 127 196.003906 130.132812 196 134 Z M 196 134 "
         id="path18" />
    </g>
    <mask
       id="mask1">
      <g
         filter="url(#alpha)"
         id="g23">
        <rect
           x="0"
           y="0"
           width="32"
           height="32"
           style="fill:rgb(0%,0%,0%);fill-opacity:0.4;stroke:none;"
           id="rect21" />
      </g>
    </mask>
    <radialGradient
       id="radial1"
       gradientUnits="userSpaceOnUse"
       cx="99.189415"
       cy="185.297272"
       fx="99.189415"
       fy="185.297272"
       r="62.769119"
       gradientTransform="matrix(0.254902,0.0000000539671,-0.0000000122482,0.0796551,146.716382,121.238909)">
      <stop
         offset="0"
         style="stop-color:rgb(0%,0%,0%);stop-opacity:1;"
         id="stop26" />
      <stop
         offset="1"
         style="stop-color:rgb(0%,0%,0%);stop-opacity:0;"
         id="stop28" />
    </radialGradient>
    <clipPath
       id="clip2">
      <rect
         x="0"
         y="0"
         width="210"
         height="150"
         id="rect31" />
    </clipPath>
    <g
       id="surface52805"
       clip-path="url(#clip2)">
      <path
         style=" stroke:none;fill-rule:nonzero;fill:url(#radial1);"
         d="M 188 136 C 188.003906 138.761719 180.839844 141 172 141 C 163.160156 141 155.996094 138.761719 156 136 C 155.996094 133.238281 163.160156 131 172 131 C 180.839844 131 188.003906 133.238281 188 136 Z M 188 136 "
         id="path34" />
    </g>
    <mask
       id="mask2">
      <g
         filter="url(#alpha)"
         id="g39">
        <rect
           x="0"
           y="0"
           width="32"
           height="32"
           style="fill:rgb(0%,0%,0%);fill-opacity:0.4;stroke:none;"
           id="rect37" />
      </g>
    </mask>
    <linearGradient
       id="linear0"
       gradientUnits="userSpaceOnUse"
       x1="63.397362"
       y1="-12.489107"
       x2="63.397362"
       y2="5.46756"
       gradientTransform="matrix(3.030129,0,0,3.030061,-24.475288,277.638062)">
      <stop
         offset="0"
         style="stop-color:rgb(100%,100%,100%);stop-opacity:1;"
         id="stop42" />
      <stop
         offset="1"
         style="stop-color:rgb(100%,100%,100%);stop-opacity:0;"
         id="stop44" />
    </linearGradient>
    <clipPath
       id="clip3">
      <rect
         x="0"
         y="0"
         width="210"
         height="150"
         id="rect47" />
    </clipPath>
    <g
       id="surface52808"
       clip-path="url(#clip3)">
      <path
         style="fill:none;stroke-width:1;stroke-linecap:butt;stroke-linejoin:miter;stroke:url(#linear0);stroke-miterlimit:4;"
         d="M 190.5 267 C 190.5 281.636719 178.632812 293.5 164 293.5 C 149.363281 293.5 137.5 281.636719 137.5 267 C 137.5 252.363281 149.363281 240.5 164 240.5 C 178.632812 240.5 190.5 252.363281 190.5 267 Z M 190.5 267 "
         transform="matrix(1,0,0,1,8,-156)"
         id="path50" />
    </g>
    <mask
       id="mask3">
      <g
         filter="url(#alpha)"
         id="g55">
        <rect
           x="0"
           y="0"
           width="32"
           height="32"
           style="fill:rgb(0%,0%,0%);fill-opacity:0.1;stroke:none;"
           id="rect53" />
      </g>
    </mask>
    <linearGradient
       id="linear1"
       gradientUnits="userSpaceOnUse"
       x1="11.50002"
       y1="25.256426"
       x2="36.500019"
       y2="25.256426"
       gradientTransform="matrix(1.291667,0,0,1.291667,132.999969,235.377106)">
      <stop
         offset="0"
         style="stop-color:rgb(98.039216%,98.039216%,98.039216%);stop-opacity:1;"
         id="stop58" />
      <stop
         offset="0.499999"
         style="stop-color:rgb(98.039216%,98.039216%,98.039216%);stop-opacity:1;"
         id="stop60" />
      <stop
         offset="0.499999"
         style="stop-color:rgb(30.19608%,30.19608%,30.19608%);stop-opacity:1;"
         id="stop62" />
      <stop
         offset="1"
         style="stop-color:rgb(30.19608%,30.19608%,30.19608%);stop-opacity:1;"
         id="stop64" />
    </linearGradient>
    <clipPath
       id="clip4">
      <rect
         x="0"
         y="0"
         width="210"
         height="150"
         id="rect67" />
    </clipPath>
    <g
       id="surface52811"
       clip-path="url(#clip4)">
      <path
         style="fill:none;stroke-width:0.999997;stroke-linecap:butt;stroke-linejoin:miter;stroke:url(#linear1);stroke-miterlimit:4;"
         d="M 161.785156 252.5 C 161.386719 252.5 161.054688 254.039062 160.859375 256.238281 C 159.828125 256.519531 158.839844 256.9375 157.917969 257.476562 C 156.21875 256.050781 154.890625 255.191406 154.605469 255.472656 L 151.472656 258.605469 C 151.191406 258.890625 152.050781 260.21875 153.476562 261.917969 C 152.941406 262.839844 152.527344 263.828125 152.25 264.859375 C 150.042969 265.054688 148.5 265.386719 148.5 265.785156 L 148.5 270.214844 C 148.5 270.613281 150.039062 270.945312 152.238281 271.140625 C 152.519531 272.171875 152.933594 273.164062 153.472656 274.089844 C 152.050781 275.785156 151.191406 277.109375 151.472656 277.394531 L 154.605469 280.527344 C 154.886719 280.808594 156.210938 279.953125 157.90625 278.53125 C 158.832031 279.066406 159.828125 279.476562 160.859375 279.75 C 161.054688 281.957031 161.386719 283.5 161.785156 283.5 L 166.214844 283.5 C 166.613281 283.5 166.945312 281.960938 167.140625 279.761719 C 168.171875 279.480469 169.160156 279.0625 170.082031 278.523438 C 171.78125 279.949219 173.109375 280.808594 173.394531 280.527344 L 176.527344 277.394531 C 176.808594 277.109375 175.949219 275.78125 174.523438 274.082031 C 175.058594 273.160156 175.472656 272.171875 175.75 271.140625 C 177.957031 270.945312 179.5 270.613281 179.5 270.214844 L 179.5 265.785156 C 179.5 265.386719 177.960938 265.054688 175.761719 264.859375 C 175.480469 263.828125 175.066406 262.835938 174.527344 261.910156 C 175.949219 260.214844 176.808594 258.890625 176.527344 258.605469 L 173.394531 255.472656 C 173.113281 255.191406 171.789062 256.046875 170.09375 257.46875 C 169.167969 256.933594 168.171875 256.523438 167.140625 256.25 C 166.945312 254.042969 166.613281 252.5 166.214844 252.5 Z M 164 262.464844 C 167.058594 262.464844 169.535156 264.941406 169.535156 268 C 169.535156 271.058594 167.058594 273.535156 164 273.535156 C 160.941406 273.535156 158.464844 271.058594 158.464844 268 C 158.464844 264.941406 160.941406 262.464844 164 262.464844 Z M 164 262.464844 "
         transform="matrix(1,0,0,1,8,-156)"
         id="path70" />
    </g>
    <mask
       id="mask4">
      <g
         filter="url(#alpha)"
         id="g75">
        <rect
           x="0"
           y="0"
           width="32"
           height="32"
           style="fill:rgb(0%,0%,0%);fill-opacity:0.07;stroke:none;"
           id="rect73" />
      </g>
    </mask>
    <linearGradient
       id="linear2"
       gradientUnits="userSpaceOnUse"
       x1="12.00002"
       y1="25.256426"
       x2="36.000019"
       y2="25.256426"
       gradientTransform="matrix(1.291667,0,0,1.291667,140.999969,79.377106)">
      <stop
         offset="0"
         style="stop-color:rgb(50.196081%,50.196081%,50.196081%);stop-opacity:1;"
         id="stop78" />
      <stop
         offset="0.873267"
         style="stop-color:rgb(42.745098%,42.745098%,42.745098%);stop-opacity:1;"
         id="stop80" />
      <stop
         offset="1"
         style="stop-color:rgb(30.980393%,31.37255%,32.549021%);stop-opacity:1;"
         id="stop82" />
    </linearGradient>
    <clipPath
       id="clip5">
      <rect
         x="0"
         y="0"
         width="210"
         height="150"
         id="rect85" />
    </clipPath>
    <g
       id="surface52814"
       clip-path="url(#clip5)">
      <path
         style=" stroke:none;fill-rule:nonzero;fill:url(#linear2);"
         d="M 169.785156 96.5 C 169.386719 96.5 169.054688 98.039062 168.859375 100.238281 C 167.828125 100.519531 166.839844 100.9375 165.917969 101.476562 C 164.21875 100.050781 162.890625 99.191406 162.605469 99.472656 L 159.472656 102.605469 C 159.191406 102.890625 160.050781 104.21875 161.476562 105.917969 C 160.941406 106.839844 160.527344 107.828125 160.25 108.859375 C 158.042969 109.054688 156.5 109.386719 156.5 109.785156 L 156.5 114.214844 C 156.5 114.613281 158.039062 114.945312 160.238281 115.140625 C 160.519531 116.171875 160.933594 117.164062 161.472656 118.089844 C 160.050781 119.785156 159.191406 121.109375 159.472656 121.394531 L 162.605469 124.527344 C 162.886719 124.808594 164.210938 123.953125 165.90625 122.53125 C 166.832031 123.066406 167.828125 123.476562 168.859375 123.75 C 169.054688 125.957031 169.386719 127.5 169.785156 127.5 L 174.214844 127.5 C 174.613281 127.5 174.945312 125.960938 175.140625 123.761719 C 176.171875 123.480469 177.160156 123.0625 178.082031 122.523438 C 179.78125 123.949219 181.109375 124.808594 181.394531 124.527344 L 184.527344 121.394531 C 184.808594 121.109375 183.949219 119.78125 182.523438 118.082031 C 183.058594 117.160156 183.472656 116.171875 183.75 115.140625 C 185.957031 114.945312 187.5 114.613281 187.5 114.214844 L 187.5 109.785156 C 187.5 109.386719 185.960938 109.054688 183.761719 108.859375 C 183.480469 107.828125 183.066406 106.835938 182.527344 105.910156 C 183.949219 104.214844 184.808594 102.890625 184.527344 102.605469 L 181.394531 99.472656 C 181.113281 99.191406 179.789062 100.046875 178.09375 101.46875 C 177.167969 100.933594 176.171875 100.523438 175.140625 100.25 C 174.945312 98.042969 174.613281 96.5 174.214844 96.5 Z M 172 106.464844 C 175.058594 106.464844 177.535156 108.941406 177.535156 112 C 177.535156 115.058594 175.058594 117.535156 172 117.535156 C 168.941406 117.535156 166.464844 115.058594 166.464844 112 C 166.464844 108.941406 168.941406 106.464844 172 106.464844 Z M 172 106.464844 "
         id="path88" />
    </g>
    <mask
       id="mask5">
      <g
         filter="url(#alpha)"
         id="g93">
        <rect
           x="0"
           y="0"
           width="32"
           height="32"
           style="fill:rgb(0%,0%,0%);fill-opacity:0.2;stroke:none;"
           id="rect91" />
      </g>
    </mask>
    <radialGradient
       id="radial2"
       gradientUnits="userSpaceOnUse"
       cx="99.189415"
       cy="185.297272"
       fx="99.189415"
       fy="185.297272"
       r="62.769119"
       gradientTransform="matrix(0.191177,0.0000000377777,-0.00000000918612,0.0557597,165.037287,61.167071)">
      <stop
         offset="0"
         style="stop-color:rgb(0%,0%,0%);stop-opacity:1;"
         id="stop96" />
      <stop
         offset="1"
         style="stop-color:rgb(0%,0%,0%);stop-opacity:0;"
         id="stop98" />
    </radialGradient>
    <clipPath
       id="clip6">
      <rect
         x="0"
         y="0"
         width="210"
         height="150"
         id="rect101" />
    </clipPath>
    <g
       id="surface52817"
       clip-path="url(#clip6)">
      <path
         style=" stroke:none;fill-rule:nonzero;fill:url(#radial2);"
         d="M 196 71.5 C 196 73.433594 190.628906 75 184 75 C 177.371094 75 172 73.433594 172 71.5 C 172 69.566406 177.371094 68 184 68 C 190.628906 68 196 69.566406 196 71.5 Z M 196 71.5 "
         id="path104" />
    </g>
    <mask
       id="mask6">
      <g
         filter="url(#alpha)"
         id="g109">
        <rect
           x="0"
           y="0"
           width="32"
           height="32"
           style="fill:rgb(0%,0%,0%);fill-opacity:0.4;stroke:none;"
           id="rect107" />
      </g>
    </mask>
    <radialGradient
       id="radial3"
       gradientUnits="userSpaceOnUse"
       cx="99.189415"
       cy="185.297272"
       fx="99.189415"
       fy="185.297272"
       r="62.769119"
       gradientTransform="matrix(0.127451,0.0000000269836,-0.00000000612408,0.0398276,171.358191,65.119462)">
      <stop
         offset="0"
         style="stop-color:rgb(0%,0%,0%);stop-opacity:1;"
         id="stop112" />
      <stop
         offset="1"
         style="stop-color:rgb(0%,0%,0%);stop-opacity:0;"
         id="stop114" />
    </radialGradient>
    <clipPath
       id="clip7">
      <rect
         x="0"
         y="0"
         width="210"
         height="150"
         id="rect117" />
    </clipPath>
    <g
       id="surface52820"
       clip-path="url(#clip7)">
      <path
         style=" stroke:none;fill-rule:nonzero;fill:url(#radial3);"
         d="M 192 72.5 C 192 73.878906 188.417969 75 184 75 C 179.582031 75 176 73.878906 176 72.5 C 176 71.121094 179.582031 70 184 70 C 188.417969 70 192 71.121094 192 72.5 Z M 192 72.5 "
         id="path120" />
    </g>
    <linearGradient
       id="linear3"
       gradientUnits="userSpaceOnUse"
       x1="17.610361"
       y1="0.999958"
       x2="17.610361"
       y2="23.062979"
       gradientTransform="matrix(1.333361,0,0,1.33334,-1.2e-4,-0.50008)">
      <stop
         offset="0"
         style="stop-color:rgb(100%,100%,100%);stop-opacity:1;"
         id="stop123" />
      <stop
         offset="1"
         style="stop-color:rgb(80.392158%,80.392158%,80.392158%);stop-opacity:1;"
         id="stop125" />
    </linearGradient>
    <linearGradient
       id="linear4"
       gradientUnits="userSpaceOnUse"
       x1="12.962829"
       y1="2.683795"
       x2="12.962829"
       y2="45.326431"
       gradientTransform="matrix(0.688069,0,0,0.688058,-0.51344,-1.0134)">
      <stop
         offset="0"
         style="stop-color:rgb(50.196081%,50.196081%,50.196081%);stop-opacity:1;"
         id="stop128" />
      <stop
         offset="0.873267"
         style="stop-color:rgb(42.745098%,42.745098%,42.745098%);stop-opacity:1;"
         id="stop130" />
      <stop
         offset="1"
         style="stop-color:rgb(30.980393%,31.37255%,32.549021%);stop-opacity:1;"
         id="stop132" />
    </linearGradient>
    <linearGradient
       id="linear5"
       gradientUnits="userSpaceOnUse"
       x1="4"
       y1="25"
       x2="24"
       y2="25"
       gradientTransform="matrix(0,1.8368332,-1.7568797,0,38.068947,-6.099244)"
       spreadMethod="pad">
      <stop
         offset="0"
         style="stop-color:rgb(50.196081%,50.196081%,50.196081%);stop-opacity:1;"
         id="stop135" />
      <stop
         offset="0.5461"
         style="stop-color:rgb(42.745098%,42.745098%,42.745098%);stop-opacity:1;"
         id="stop137" />
      <stop
         offset="1"
         style="stop-color:rgb(30.980393%,31.37255%,32.549021%);stop-opacity:1;"
         id="stop139" />
    </linearGradient>
    <linearGradient
       id="linear6"
       gradientUnits="userSpaceOnUse"
       x1="56.323174"
       y1="25.882757"
       x2="72.451813"
       y2="25.882757"
       gradientTransform="matrix(0,1.8368332,-1.7568797,0,58.992753,-102.76538)">
      <stop
         offset="0"
         style="stop-color:rgb(30.19608%,30.19608%,30.19608%);stop-opacity:1;"
         id="stop142" />
      <stop
         offset="1"
         style="stop-color:rgb(20%,20%,20%);stop-opacity:1;"
         id="stop144" />
    </linearGradient>
    <mask
       id="mask7">
      <g
         filter="url(#alpha)"
         id="g149">
        <rect
           x="0"
           y="0"
           width="32"
           height="32"
           style="fill:rgb(0%,0%,0%);fill-opacity:0.4;stroke:none;"
           id="rect147" />
      </g>
    </mask>
    <linearGradient
       id="linear7"
       gradientUnits="userSpaceOnUse"
       x1="63.397362"
       y1="-12.489107"
       x2="63.397362"
       y2="5.46756"
       gradientTransform="matrix(1.48648,0,0,1.486445,84.040382,220.718674)">
      <stop
         offset="0"
         style="stop-color:rgb(100%,100%,100%);stop-opacity:1;"
         id="stop152" />
      <stop
         offset="1"
         style="stop-color:rgb(100%,100%,100%);stop-opacity:0;"
         id="stop154" />
    </linearGradient>
    <clipPath
       id="clip8">
      <rect
         x="0"
         y="0"
         width="210"
         height="150"
         id="rect157" />
    </clipPath>
    <g
       id="surface52823"
       clip-path="url(#clip8)">
      <path
         style="fill:none;stroke-width:0.999996;stroke-linecap:butt;stroke-linejoin:miter;stroke:url(#linear7);stroke-miterlimit:4;"
         d="M 189.5 215.5 C 189.5 222.679688 183.679688 228.5 176.5 228.5 C 169.320312 228.5 163.5 222.679688 163.5 215.5 C 163.5 208.320312 169.320312 202.5 176.5 202.5 C 183.679688 202.5 189.5 208.320312 189.5 215.5 Z M 189.5 215.5 "
         transform="matrix(1,0,0,1,8,-156)"
         id="path160" />
    </g>
    <mask
       id="mask8">
      <g
         filter="url(#alpha)"
         id="g165">
        <rect
           x="0"
           y="0"
           width="32"
           height="32"
           style="fill:rgb(0%,0%,0%);fill-opacity:0.1;stroke:none;"
           id="rect163" />
      </g>
    </mask>
    <linearGradient
       id="linear8"
       gradientUnits="userSpaceOnUse"
       x1="11.50002"
       y1="25.256426"
       x2="36.500019"
       y2="25.256426"
       gradientTransform="matrix(0.666666,0,0,0.666667,159.999985,198.662384)">
      <stop
         offset="0"
         style="stop-color:rgb(98.039216%,98.039216%,98.039216%);stop-opacity:1;"
         id="stop168" />
      <stop
         offset="0.499999"
         style="stop-color:rgb(98.039216%,98.039216%,98.039216%);stop-opacity:1;"
         id="stop170" />
      <stop
         offset="0.499999"
         style="stop-color:rgb(30.19608%,30.19608%,30.19608%);stop-opacity:1;"
         id="stop172" />
      <stop
         offset="1"
         style="stop-color:rgb(30.19608%,30.19608%,30.19608%);stop-opacity:1;"
         id="stop174" />
    </linearGradient>
    <clipPath
       id="clip9">
      <rect
         x="0"
         y="0"
         width="210"
         height="150"
         id="rect177" />
    </clipPath>
    <g
       id="surface52826"
       clip-path="url(#clip9)">
      <path
         style="fill:none;stroke-width:1;stroke-linecap:butt;stroke-linejoin:miter;stroke:url(#linear8);stroke-miterlimit:4;"
         d="M 174.855469 207.5 C 174.652344 207.5 174.480469 208.292969 174.378906 209.429688 C 173.847656 209.574219 173.335938 209.789062 172.859375 210.066406 C 171.984375 209.332031 171.296875 208.890625 171.152344 209.035156 L 169.535156 210.652344 C 169.390625 210.796875 169.832031 211.484375 170.566406 212.359375 C 170.292969 212.835938 170.078125 213.347656 169.933594 213.878906 C 168.796875 213.980469 168 214.152344 168 214.355469 L 168 216.644531 C 168 216.847656 168.792969 217.019531 169.929688 217.121094 C 170.074219 217.652344 170.289062 218.164062 170.566406 218.644531 C 169.832031 219.519531 169.390625 220.203125 169.535156 220.347656 L 171.152344 221.964844 C 171.296875 222.109375 171.980469 221.667969 172.855469 220.9375 C 173.332031 221.210938 173.847656 221.421875 174.378906 221.566406 C 174.480469 222.703125 174.652344 223.5 174.855469 223.5 L 177.144531 223.5 C 177.347656 223.5 177.519531 222.707031 177.621094 221.570312 C 178.152344 221.425781 178.664062 221.210938 179.140625 220.933594 C 180.015625 221.667969 180.703125 222.109375 180.847656 221.964844 L 182.464844 220.347656 C 182.609375 220.203125 182.167969 219.515625 181.433594 218.640625 C 181.707031 218.164062 181.921875 217.652344 182.066406 217.121094 C 183.203125 217.019531 184 216.847656 184 216.644531 L 184 214.355469 C 184 214.152344 183.207031 213.980469 182.070312 213.878906 C 181.925781 213.347656 181.710938 212.835938 181.433594 212.355469 C 182.167969 211.480469 182.609375 210.796875 182.464844 210.652344 L 180.847656 209.035156 C 180.703125 208.890625 180.019531 209.332031 179.144531 210.0625 C 178.667969 209.789062 178.152344 209.578125 177.621094 209.433594 C 177.519531 208.296875 177.347656 207.5 177.144531 207.5 Z M 176 212.644531 C 177.578125 212.644531 178.855469 213.921875 178.855469 215.5 C 178.855469 217.078125 177.578125 218.355469 176 218.355469 C 174.421875 218.355469 173.144531 217.078125 173.144531 215.5 C 173.144531 213.921875 174.421875 212.644531 176 212.644531 Z M 176 212.644531 "
         transform="matrix(1,0,0,1,8,-156)"
         id="path180" />
    </g>
    <mask
       id="mask9">
      <g
         filter="url(#alpha)"
         id="g185">
        <rect
           x="0"
           y="0"
           width="32"
           height="32"
           style="fill:rgb(0%,0%,0%);fill-opacity:0.07;stroke:none;"
           id="rect183" />
      </g>
    </mask>
    <linearGradient
       id="linear9"
       gradientUnits="userSpaceOnUse"
       x1="12.00002"
       y1="25.256426"
       x2="36.000019"
       y2="25.256426"
       gradientTransform="matrix(0.666666,0,0,0.666667,167.999985,42.662384)">
      <stop
         offset="0"
         style="stop-color:rgb(50.196081%,50.196081%,50.196081%);stop-opacity:1;"
         id="stop188" />
      <stop
         offset="0.873267"
         style="stop-color:rgb(42.745098%,42.745098%,42.745098%);stop-opacity:1;"
         id="stop190" />
      <stop
         offset="1"
         style="stop-color:rgb(30.980393%,31.37255%,32.549021%);stop-opacity:1;"
         id="stop192" />
    </linearGradient>
    <clipPath
       id="clip10">
      <rect
         x="0"
         y="0"
         width="210"
         height="150"
         id="rect195" />
    </clipPath>
    <g
       id="surface52829"
       clip-path="url(#clip10)">
      <path
         style=" stroke:none;fill-rule:nonzero;fill:url(#linear9);"
         d="M 182.855469 51.5 C 182.652344 51.5 182.480469 52.292969 182.378906 53.429688 C 181.847656 53.574219 181.335938 53.789062 180.859375 54.066406 C 179.984375 53.332031 179.296875 52.890625 179.152344 53.035156 L 177.535156 54.652344 C 177.390625 54.796875 177.832031 55.484375 178.566406 56.359375 C 178.292969 56.835938 178.078125 57.347656 177.933594 57.878906 C 176.796875 57.980469 176 58.152344 176 58.355469 L 176 60.644531 C 176 60.847656 176.792969 61.019531 177.929688 61.121094 C 178.074219 61.652344 178.289062 62.164062 178.566406 62.644531 C 177.832031 63.519531 177.390625 64.203125 177.535156 64.347656 L 179.152344 65.964844 C 179.296875 66.109375 179.980469 65.667969 180.855469 64.9375 C 181.332031 65.210938 181.847656 65.421875 182.378906 65.566406 C 182.480469 66.703125 182.652344 67.5 182.855469 67.5 L 185.144531 67.5 C 185.347656 67.5 185.519531 66.707031 185.621094 65.570312 C 186.152344 65.425781 186.664062 65.210938 187.140625 64.933594 C 188.015625 65.667969 188.703125 66.109375 188.847656 65.964844 L 190.464844 64.347656 C 190.609375 64.203125 190.167969 63.515625 189.433594 62.640625 C 189.707031 62.164062 189.921875 61.652344 190.066406 61.121094 C 191.203125 61.019531 192 60.847656 192 60.644531 L 192 58.355469 C 192 58.152344 191.207031 57.980469 190.070312 57.878906 C 189.925781 57.347656 189.710938 56.835938 189.433594 56.355469 C 190.167969 55.480469 190.609375 54.796875 190.464844 54.652344 L 188.847656 53.035156 C 188.703125 52.890625 188.019531 53.332031 187.144531 54.0625 C 186.667969 53.789062 186.152344 53.578125 185.621094 53.433594 C 185.519531 52.296875 185.347656 51.5 185.144531 51.5 Z M 184 56.644531 C 185.578125 56.644531 186.855469 57.921875 186.855469 59.5 C 186.855469 61.078125 185.578125 62.355469 184 62.355469 C 182.421875 62.355469 181.144531 61.078125 181.144531 59.5 C 181.144531 57.921875 182.421875 56.644531 184 56.644531 Z M 184 56.644531 "
         id="path198" />
    </g>
    <linearGradient
       id="linear10"
       gradientUnits="userSpaceOnUse"
       x1="12.00002"
       y1="24.256426"
       x2="36.000019"
       y2="24.256426"
       gradientTransform="matrix(0.666666,0,0,0.666667,-1.5e-5,-1.170959)">
      <stop
         offset="0"
         style="stop-color:rgb(98.039216%,98.039216%,98.039216%);stop-opacity:1;"
         id="stop201" />
      <stop
         offset="0.499999"
         style="stop-color:rgb(98.039216%,98.039216%,98.039216%);stop-opacity:1;"
         id="stop203" />
      <stop
         offset="0.499999"
         style="stop-color:rgb(29.411766%,29.411766%,29.411766%);stop-opacity:1;"
         id="stop205" />
      <stop
         offset="1"
         style="stop-color:rgb(29.803923%,29.803923%,29.803923%);stop-opacity:1;"
         id="stop207" />
    </linearGradient>
    <mask
       id="mask10">
      <g
         filter="url(#alpha)"
         id="g212">
        <rect
           x="0"
           y="0"
           width="32"
           height="32"
           style="fill:rgb(0%,0%,0%);fill-opacity:0.75;stroke:none;"
           id="rect210" />
      </g>
    </mask>
    <radialGradient
       id="radial4"
       gradientUnits="userSpaceOnUse"
       cx="99.157013"
       cy="186.170593"
       fx="99.157013"
       fy="186.170593"
       r="62.769119"
       gradientTransform="matrix(0.685081,0,0,0.208973,1.571655,92.975465)">
      <stop
         offset="0"
         style="stop-color:rgb(23.921569%,23.921569%,23.921569%);stop-opacity:1;"
         id="stop215" />
      <stop
         offset="0.5"
         style="stop-color:rgb(40.784314%,40.784314%,40.784314%);stop-opacity:0.498039;"
         id="stop217" />
      <stop
         offset="1"
         style="stop-color:rgb(40.784314%,40.784314%,40.784314%);stop-opacity:0;"
         id="stop219" />
    </radialGradient>
    <clipPath
       id="clip11">
      <rect
         x="0"
         y="0"
         width="210"
         height="150"
         id="rect222" />
    </clipPath>
    <g
       id="surface52832"
       clip-path="url(#clip11)">
      <path
         style=" stroke:none;fill-rule:nonzero;fill:url(#radial4);"
         d="M 112.503906 131.878906 C 112.507812 139.125 93.253906 145 69.503906 145 C 45.75 145 26.496094 139.125 26.5 131.878906 C 26.496094 124.632812 45.75 118.761719 69.503906 118.761719 C 93.253906 118.761719 112.507812 124.632812 112.503906 131.878906 Z M 112.503906 131.878906 "
         id="path225" />
    </g>
    <mask
       id="mask11">
      <g
         filter="url(#alpha)"
         id="g230">
        <rect
           x="0"
           y="0"
           width="32"
           height="32"
           style="fill:rgb(0%,0%,0%);fill-opacity:0.4;stroke:none;"
           id="rect228" />
      </g>
    </mask>
    <linearGradient
       id="linear11"
       gradientUnits="userSpaceOnUse"
       x1="63.397362"
       y1="-12.489107"
       x2="63.397362"
       y2="5.46756"
       gradientTransform="matrix(5.543786,0,0,5.565845,-279.42569,84.347282)">
      <stop
         offset="0"
         style="stop-color:rgb(100%,100%,100%);stop-opacity:1;"
         id="stop233" />
      <stop
         offset="1"
         style="stop-color:rgb(100%,100%,100%);stop-opacity:0;"
         id="stop235" />
    </linearGradient>
    <clipPath
       id="clip12">
      <rect
         x="0"
         y="0"
         width="210"
         height="150"
         id="rect238" />
    </clipPath>
    <g
       id="surface52835"
       clip-path="url(#clip12)">
      <path
         style="fill:none;stroke-width:0.994573;stroke-linecap:butt;stroke-linejoin:miter;stroke:url(#linear11);stroke-miterlimit:4;"
         d="M 115.479827 64.805765 C 115.479827 91.690628 93.574556 115.34745 65.400034 115.111347 C 36.409143 114.871372 15.621009 91.686758 15.281181 64.805765 C 14.93354 37.100344 38.159064 14.387937 65.400034 14.504054 C 92.176181 14.62017 115.479827 36.16367 115.479827 64.805765 Z M 115.479827 64.805765 "
         transform="matrix(1.000045,0,0,1.009223,5.999386,21.877806)"
         id="path241" />
    </g>
    <mask
       id="mask12">
      <g
         filter="url(#alpha)"
         id="g246">
        <rect
           x="0"
           y="0"
           width="32"
           height="32"
           style="fill:rgb(0%,0%,0%);fill-opacity:0.07;stroke:none;"
           id="rect244" />
      </g>
    </mask>
    <mask
       id="mask13">
      <g
         filter="url(#alpha)"
         id="g251">
        <rect
           x="0"
           y="0"
           width="210"
           height="150"
           style="fill:rgb(0%,0%,0%);fill-opacity:0.1;stroke:none;"
           id="rect249" />
      </g>
    </mask>
    <linearGradient
       id="linear12"
       gradientUnits="userSpaceOnUse"
       x1="-119.958092"
       y1="49.571362"
       x2="-62.211788"
       y2="49.571362">
      <stop
         offset="0"
         style="stop-color:rgb(100%,100%,100%);stop-opacity:1;"
         id="stop254" />
      <stop
         offset="0.499157"
         style="stop-color:rgb(100%,100%,100%);stop-opacity:1;"
         id="stop256" />
      <stop
         offset="0.499157"
         style="stop-color:rgb(0%,0%,0%);stop-opacity:1;"
         id="stop258" />
      <stop
         offset="1"
         style="stop-color:rgb(0%,0%,0%);stop-opacity:1;"
         id="stop260" />
    </linearGradient>
    <clipPath
       id="clip14">
      <rect
         x="0"
         y="0"
         width="210"
         height="150"
         id="rect263" />
    </clipPath>
    <g
       id="surface52839"
       clip-path="url(#clip14)">
      <path
         style="fill:none;stroke-width:1.73826;stroke-linecap:butt;stroke-linejoin:miter;stroke:url(#linear12);stroke-miterlimit:4;"
         d="M -95.084272 21.891224 C -95.804126 21.891224 -96.404668 24.671056 -96.758629 28.646255 C -98.61991 29.15569 -100.405625 29.905803 -102.072028 30.880549 C -105.142345 28.305294 -107.544511 26.752921 -108.053579 27.262356 L -113.712985 32.922301 C -114.22603 33.431736 -112.670986 35.830494 -110.097805 38.903151 C -111.06424 40.571852 -111.807956 42.35688 -112.313047 44.218124 C -116.298096 44.571118 -119.08604 45.168802 -119.08604 45.890836 L -119.08604 53.893381 C -119.08604 54.611404 -116.306051 55.213099 -112.332933 55.562082 C -111.827842 57.431348 -111.076171 59.220388 -110.10576 60.893101 C -112.670986 63.957734 -114.222053 66.352481 -113.712985 66.861916 L -108.053579 72.521861 C -107.544511 73.031297 -105.154277 71.482935 -102.091913 68.919713 C -100.417556 69.882426 -98.623887 70.624516 -96.758629 71.117906 C -96.404668 75.101128 -95.804126 77.892993 -95.084272 77.892993 L -87.086334 77.892993 C -86.36648 77.892993 -85.765939 75.113162 -85.411977 71.137963 C -83.550697 70.628527 -81.764981 69.878414 -80.098579 68.903668 C -77.024284 71.478923 -74.626096 73.031297 -74.117028 72.521861 L -68.457622 66.861916 C -67.944577 66.34847 -69.499621 63.949712 -72.072801 60.881067 C -71.106367 59.212366 -70.358673 57.423326 -69.857559 55.562082 C -65.87251 55.213099 -63.084567 54.611404 -63.084567 53.893381 L -63.084567 45.890836 C -63.084567 45.172813 -65.864556 44.571118 -69.837674 44.218124 C -70.342765 42.352869 -71.090459 40.563829 -72.064847 38.891117 C -69.495644 35.826483 -67.944577 33.431736 -68.457622 32.922301 L -74.117028 27.262356 C -74.626096 26.752921 -77.01633 28.301283 -80.078693 30.864504 C -81.75305 29.901792 -83.54672 29.159701 -85.411977 28.666311 C -85.765939 24.679078 -86.362503 21.891224 -87.086334 21.891224 Z M -91.083315 39.889931 C -85.563107 39.889931 -81.084898 44.370553 -81.084898 49.890103 C -81.084898 55.413664 -85.563107 59.890276 -91.083315 59.890276 C -96.6075 59.890276 -101.085708 55.413664 -101.085708 49.890103 C -101.085708 44.370553 -96.6075 39.889931 -91.083315 39.889931 Z M -91.083315 39.889931 "
         transform="matrix(0.982187,0,0,0.973811,160.964733,40.893015)"
         id="path266" />
    </g>
    <linearGradient
       id="linear13"
       gradientUnits="userSpaceOnUse"
       x1="-119.958092"
       y1="49.571362"
       x2="-62.211788"
       y2="49.571362">
      <stop
         offset="0"
         style="stop-color:rgb(100%,100%,100%);stop-opacity:1;"
         id="stop269" />
      <stop
         offset="0.499157"
         style="stop-color:rgb(100%,100%,100%);stop-opacity:1;"
         id="stop271" />
      <stop
         offset="0.499157"
         style="stop-color:rgb(0%,0%,0%);stop-opacity:1;"
         id="stop273" />
      <stop
         offset="1"
         style="stop-color:rgb(0%,0%,0%);stop-opacity:1;"
         id="stop275" />
    </linearGradient>
    <mask
       id="mask14">
      <g
         filter="url(#alpha)"
         id="g280">
        <rect
           x="0"
           y="0"
           width="210"
           height="150"
           style="fill:rgb(0%,0%,0%);fill-opacity:0.05;stroke:none;"
           id="rect278" />
      </g>
    </mask>
    <linearGradient
       id="linear14"
       gradientUnits="userSpaceOnUse"
       x1="-119.958092"
       y1="49.571362"
       x2="-62.211788"
       y2="49.571362">
      <stop
         offset="0"
         style="stop-color:rgb(100%,100%,100%);stop-opacity:1;"
         id="stop283" />
      <stop
         offset="0.499157"
         style="stop-color:rgb(100%,100%,100%);stop-opacity:1;"
         id="stop285" />
      <stop
         offset="0.499157"
         style="stop-color:rgb(0%,0%,0%);stop-opacity:1;"
         id="stop287" />
      <stop
         offset="1"
         style="stop-color:rgb(0%,0%,0%);stop-opacity:1;"
         id="stop289" />
    </linearGradient>
    <clipPath
       id="clip15">
      <rect
         x="0"
         y="0"
         width="210"
         height="150"
         id="rect292" />
    </clipPath>
    <g
       id="surface52842"
       clip-path="url(#clip15)">
      <path
         style="fill:none;stroke-width:1.0225;stroke-linecap:butt;stroke-linejoin:miter;stroke:url(#linear14);stroke-miterlimit:4;"
         d="M -95.00473 21.389812 C -95.028593 21.421902 -95.080295 21.486083 -95.139952 21.606422 C -95.271196 21.863145 -95.422325 22.3084 -95.561524 22.882016 C -95.831966 24.029248 -96.070592 25.705971 -96.245584 27.679531 C -96.265469 27.89213 -96.416599 28.072639 -96.627385 28.128797 C -98.444917 28.626198 -100.194839 29.364278 -101.817494 30.314956 C -102.008394 30.423261 -102.243043 30.403204 -102.410081 30.262809 C -103.933308 28.987215 -105.293475 27.964334 -106.303657 27.342582 C -106.804771 27.029701 -107.23032 26.817102 -107.508717 26.724842 C -107.632007 26.684729 -107.715526 26.676706 -107.755297 26.672695 L -113.303344 32.220324 C -113.299367 32.260437 -113.291413 32.344674 -113.247665 32.469024 C -113.156191 32.745804 -112.945405 33.171002 -112.635192 33.676426 C -112.010788 34.683262 -110.988675 36.043093 -109.712027 37.567387 C -109.572829 37.731851 -109.552943 37.968517 -109.660325 38.157049 C -110.606874 39.781625 -111.334682 41.534564 -111.823865 43.351683 C -111.883521 43.560271 -112.06249 43.7127 -112.277253 43.728745 C -114.257847 43.905242 -115.936181 44.141909 -117.089538 44.418689 C -117.666217 44.555073 -118.111652 44.703491 -118.370163 44.831853 C -118.489476 44.892022 -118.553109 44.944169 -118.584926 44.972248 L -118.584926 52.81033 C -118.557086 52.838409 -118.489476 52.886545 -118.370163 52.946714 C -118.111652 53.079087 -117.670194 53.227505 -117.093515 53.367901 C -115.944135 53.640669 -114.269778 53.877336 -112.297139 54.053833 C -112.082376 54.07389 -111.899429 54.222308 -111.84375 54.430895 C -111.35059 56.252026 -110.618805 58.008976 -109.668279 59.637564 C -109.560898 59.826095 -109.580783 60.062762 -109.719981 60.227225 C -110.996629 61.751519 -112.014765 63.103327 -112.635192 64.114175 C -112.945405 64.615588 -113.156191 65.040786 -113.247665 65.313554 C -113.291413 65.441916 -113.299367 65.522142 -113.303344 65.562255 L -107.755297 71.109884 C -107.715526 71.109884 -107.635984 71.09785 -107.508717 71.057737 C -107.234297 70.965477 -106.812725 70.752878 -106.307634 70.444008 C -105.301429 69.822256 -103.949217 68.807397 -102.429967 67.535815 C -102.262929 67.395419 -102.02828 67.375363 -101.841356 67.479656 C -100.20677 68.422312 -98.448895 69.148358 -96.627385 69.633725 C -96.416599 69.685872 -96.265469 69.870392 -96.245584 70.082991 C -96.070592 72.064573 -95.831966 73.741297 -95.561524 74.896551 C -95.422325 75.470167 -95.275173 75.915422 -95.143929 76.176156 C -95.084272 76.296495 -95.03257 76.360676 -95.00473 76.392767 L -87.165876 76.392767 C -87.138037 76.360676 -87.086334 76.296495 -87.026678 76.180168 C -86.899411 75.919433 -86.748281 75.474179 -86.609083 74.900563 C -86.334663 73.753331 -86.096038 72.076607 -85.921046 70.103047 C -85.905137 69.890448 -85.754008 69.70994 -85.543222 69.653781 C -83.725689 69.15638 -81.975767 68.418301 -80.349136 67.467623 C -80.162212 67.359317 -79.927564 67.379374 -79.760526 67.519769 C -78.237298 68.795363 -76.877132 69.818245 -75.86695 70.444008 C -75.361859 70.752878 -74.940287 70.965477 -74.66189 71.057737 C -74.5386 71.09785 -74.455081 71.109884 -74.411333 71.109884 L -68.867263 65.562255 C -68.87124 65.522142 -68.879194 65.437904 -68.918965 65.313554 C -69.014415 65.036774 -69.221224 64.611576 -69.535415 64.110164 C -70.155841 63.099316 -71.181932 61.739485 -72.458579 60.215191 C -72.597778 60.050728 -72.617663 59.814061 -72.510282 59.629541 C -71.563733 58.000953 -70.835925 56.248015 -70.342765 54.430895 C -70.287086 54.222308 -70.108116 54.07389 -69.893353 54.053833 C -67.91276 53.877336 -66.234426 53.640669 -65.081068 53.367901 C -64.50439 53.227505 -64.058955 53.079087 -63.800444 52.950725 C -63.681131 52.890556 -63.61352 52.838409 -63.585681 52.81033 L -63.585681 44.972248 C -63.61352 44.948181 -63.677154 44.896034 -63.796467 44.835864 C -64.054978 44.703491 -64.500412 44.555073 -65.077091 44.418689 C -66.222495 44.141909 -67.900829 43.905242 -69.873468 43.728745 C -70.088231 43.7127 -70.2672 43.560271 -70.326856 43.351683 C -70.816039 41.530552 -71.551802 39.773603 -72.502327 38.145015 C -72.609709 37.956484 -72.589823 37.723828 -72.450625 37.555354 C -71.173978 36.035071 -70.155841 34.679251 -69.535415 33.672414 C -69.221224 33.166991 -69.010438 32.741793 -68.918965 32.469024 C -68.879194 32.340663 -68.87124 32.260437 -68.867263 32.220324 L -74.411333 26.672695 C -74.455081 26.676706 -74.534623 26.684729 -74.66189 26.724842 C -74.936309 26.817102 -75.357882 27.029701 -75.862973 27.338571 C -76.869178 27.960322 -78.22139 28.975181 -79.74064 30.250775 C -79.907678 30.387159 -80.142327 30.407216 -80.32925 30.302922 C -81.963836 29.360266 -83.721712 28.634221 -85.543222 28.152865 C -85.75003 28.096707 -85.905137 27.916198 -85.921046 27.699588 C -86.096038 25.718005 -86.334663 24.041282 -86.609083 22.886027 C -86.748281 22.312411 -86.895434 21.867157 -87.026678 21.606422 C -87.086334 21.486083 -87.138037 21.421902 -87.165876 21.389812 Z M -95.00473 21.389812 "
         transform="matrix(0.982187,0,0,0.973811,160.964733,40.893015)"
         id="path295" />
    </g>
    <mask
       id="mask15">
      <g
         filter="url(#alpha)"
         id="g300">
        <rect
           x="0"
           y="0"
           width="210"
           height="150"
           style="fill:rgb(0%,0%,0%);fill-opacity:0.05;stroke:none;"
           id="rect298" />
      </g>
    </mask>
    <linearGradient
       id="linear15"
       gradientUnits="userSpaceOnUse"
       x1="-119.958092"
       y1="49.571362"
       x2="-62.211788"
       y2="49.571362">
      <stop
         offset="0"
         style="stop-color:rgb(100%,100%,100%);stop-opacity:1;"
         id="stop303" />
      <stop
         offset="0.499157"
         style="stop-color:rgb(100%,100%,100%);stop-opacity:1;"
         id="stop305" />
      <stop
         offset="0.499157"
         style="stop-color:rgb(0%,0%,0%);stop-opacity:1;"
         id="stop307" />
      <stop
         offset="1"
         style="stop-color:rgb(0%,0%,0%);stop-opacity:1;"
         id="stop309" />
    </linearGradient>
    <clipPath
       id="clip16">
      <rect
         x="0"
         y="0"
         width="210"
         height="150"
         id="rect312" />
    </clipPath>
    <g
       id="surface52845"
       clip-path="url(#clip16)">
      <path
         style="fill:none;stroke-width:1.0225;stroke-linecap:butt;stroke-linejoin:miter;stroke:url(#linear15);stroke-miterlimit:4;"
         d="M -91.087292 59.388863 C -84.902909 59.585417 -79.605419 53.404002 -80.742868 47.310837 C -81.478631 41.374112 -87.953341 37.090043 -93.700243 38.758744 C -99.52271 40.086484 -103.137889 46.94982 -100.91867 52.509482 C -99.486916 56.560896 -95.386531 59.449033 -91.087292 59.388863 Z M -91.087292 59.388863 "
         transform="matrix(0.982187,0,0,0.973811,160.964733,40.893015)"
         id="path315" />
    </g>
    <clipPath
       id="clip13">
      <rect
         x="0"
         y="0"
         width="210"
         height="150"
         id="rect318" />
    </clipPath>
    <g
       id="surface52847"
       clip-path="url(#clip13)">
      <use
         xlink:href="#surface52839"
         mask="url(#mask13)"
         id="use321" />
      <path
         style="fill:none;stroke-width:1.0225;stroke-linecap:butt;stroke-linejoin:miter;stroke:url(#linear13);stroke-miterlimit:4;"
         d="M -95.084272 20.892411 C -95.804126 20.892411 -96.404668 23.672242 -96.758629 27.647441 C -98.61991 28.152865 -100.405625 28.906989 -102.072028 29.881735 C -105.142345 27.30648 -107.544511 25.754107 -108.053579 26.263542 L -113.712985 31.923487 C -114.22603 32.432923 -112.670986 34.83168 -110.097805 37.904337 C -111.06424 39.569026 -111.807956 41.358067 -112.313047 43.21931 C -116.298096 43.572305 -119.08604 44.169988 -119.08604 44.892022 L -119.08604 52.890556 C -119.08604 53.61259 -116.306051 54.210274 -112.332933 54.563268 C -111.827842 56.428523 -111.076171 58.221575 -110.10576 59.890276 C -112.670986 62.958921 -114.222053 65.349656 -113.712985 65.859091 L -108.053579 71.519036 C -107.544511 72.028471 -105.154277 70.484121 -102.091913 67.9209 C -100.417556 68.883612 -98.623887 69.621691 -96.758629 70.119092 C -96.404668 74.102314 -95.804126 76.890168 -95.084272 76.890168 L -87.086334 76.890168 C -86.36648 76.890168 -85.765939 74.110336 -85.411977 70.139149 C -83.550697 69.629714 -81.764981 68.8796 -80.098579 67.904854 C -77.024284 70.476098 -74.626096 72.032483 -74.117028 71.519036 L -68.457622 65.859091 C -67.944577 65.349656 -69.499621 62.950898 -72.072801 59.878242 C -71.106367 58.213552 -70.358673 56.424512 -69.857559 54.563268 C -65.87251 54.210274 -63.084567 53.61259 -63.084567 52.890556 L -63.084567 44.892022 C -63.084567 44.169988 -65.864556 43.572305 -69.837674 43.21931 C -70.342765 41.354055 -71.090459 39.561004 -72.064847 37.892303 C -69.495644 34.827669 -67.944577 32.432923 -68.457622 31.923487 L -74.117028 26.263542 C -74.626096 25.754107 -77.01633 27.302469 -80.078693 29.86569 C -81.75305 28.898967 -83.54672 28.160887 -85.411977 27.663486 C -85.765939 23.680265 -86.362503 20.892411 -87.086334 20.892411 Z M -91.083315 38.891117 C -85.563107 38.891117 -81.084898 43.367728 -81.084898 48.891289 C -81.084898 54.41485 -85.563107 58.891462 -91.083315 58.891462 C -96.6075 58.891462 -101.085708 54.41485 -101.085708 48.891289 C -101.085708 43.367728 -96.6075 38.891117 -91.083315 38.891117 Z M -91.083315 38.891117 "
         transform="matrix(0.982187,0,0,0.973811,160.964733,40.893015)"
         id="path323" />
      <use
         xlink:href="#surface52842"
         mask="url(#mask14)"
         id="use325" />
      <use
         xlink:href="#surface52845"
         mask="url(#mask15)"
         id="use327" />
    </g>
    <mask
       id="mask16">
      <g
         filter="url(#alpha)"
         id="g332">
        <rect
           x="0"
           y="0"
           width="32"
           height="32"
           style="fill:rgb(0%,0%,0%);fill-opacity:0.15;stroke:none;"
           id="rect330" />
      </g>
    </mask>
    <mask
       id="mask17">
      <g
         filter="url(#alpha)"
         id="g337">
        <rect
           x="0"
           y="0"
           width="210"
           height="150"
           style="fill:rgb(0%,0%,0%);fill-opacity:0.1;stroke:none;"
           id="rect335" />
      </g>
    </mask>
    <linearGradient
       id="linear16"
       gradientUnits="userSpaceOnUse"
       x1="-119.084938"
       y1="49.391594"
       x2="-63.084942"
       y2="49.391594"
       gradientTransform="matrix(0.982187,0,0,0.973811,160.964733,40.893015)">
      <stop
         offset="0"
         style="stop-color:rgb(100%,100%,100%);stop-opacity:1;"
         id="stop340" />
      <stop
         offset="0.517857"
         style="stop-color:rgb(99.607843%,99.607843%,99.607843%);stop-opacity:0.513726;"
         id="stop342" />
      <stop
         offset="0.517857"
         style="stop-color:rgb(12.941177%,12.941177%,12.941177%);stop-opacity:0.443137;"
         id="stop344" />
      <stop
         offset="1"
         style="stop-color:rgb(10.196079%,10.196079%,10.196079%);stop-opacity:0;"
         id="stop346" />
    </linearGradient>
    <clipPath
       id="clip18">
      <rect
         x="0"
         y="0"
         width="210"
         height="150"
         id="rect349" />
    </clipPath>
    <g
       id="surface52851"
       clip-path="url(#clip18)">
      <path
         style=" stroke:none;fill-rule:nonzero;fill:url(#linear16);"
         d="M 67.574219 62.210938 C 66.867188 62.210938 66.277344 64.917969 65.929688 68.789062 C 64.101562 69.285156 62.347656 70.015625 60.710938 70.964844 C 57.695312 68.457031 55.335938 66.945312 54.835938 67.441406 L 49.277344 72.953125 C 48.773438 73.449219 50.300781 75.785156 52.828125 78.777344 C 51.878906 80.402344 51.148438 82.140625 50.652344 83.953125 C 46.738281 84.296875 44 84.878906 44 85.582031 L 44 93.375 C 44 94.074219 46.730469 94.660156 50.632812 95 C 51.128906 96.820312 51.867188 98.5625 52.820312 100.191406 C 50.300781 103.175781 48.777344 105.507812 49.277344 106.003906 L 54.835938 111.515625 C 55.335938 112.011719 57.683594 110.503906 60.691406 108.007812 C 62.335938 108.945312 64.097656 109.667969 65.929688 110.148438 C 66.277344 114.027344 66.867188 116.746094 67.574219 116.746094 L 75.429688 116.746094 C 76.136719 116.746094 76.726562 114.039062 77.074219 110.167969 C 78.902344 109.671875 80.65625 108.941406 82.292969 107.992188 C 85.3125 110.5 87.667969 112.011719 88.167969 111.515625 L 93.726562 106.003906 C 94.230469 105.503906 92.703125 103.167969 90.175781 100.179688 C 91.125 98.554688 91.859375 96.8125 92.351562 95 C 96.265625 94.660156 99.003906 94.074219 99.003906 93.375 L 99.003906 85.582031 C 99.003906 84.882812 96.273438 84.296875 92.371094 83.953125 C 91.875 82.136719 91.140625 80.394531 90.183594 78.765625 C 92.707031 75.78125 94.230469 73.449219 93.726562 72.953125 L 88.167969 67.441406 C 87.667969 66.945312 85.320312 68.453125 82.3125 70.949219 C 80.667969 70.011719 78.90625 69.289062 77.074219 68.808594 C 76.726562 64.925781 76.140625 62.210938 75.429688 62.210938 Z M 71.503906 79.738281 C 76.925781 79.738281 81.324219 84.101562 81.324219 89.476562 C 81.324219 94.855469 76.925781 99.214844 71.503906 99.214844 C 66.078125 99.214844 61.679688 94.855469 61.679688 89.476562 C 61.679688 84.101562 66.078125 79.738281 71.503906 79.738281 Z M 71.503906 79.738281 "
         id="path352" />
    </g>
    <linearGradient
       id="linear17"
       gradientUnits="userSpaceOnUse"
       x1="-119.084938"
       y1="49.391594"
       x2="-63.084942"
       y2="49.391594"
       gradientTransform="matrix(0.982187,0,0,0.973811,160.964733,40.893015)">
      <stop
         offset="0"
         style="stop-color:rgb(100%,100%,100%);stop-opacity:1;"
         id="stop355" />
      <stop
         offset="0.483719"
         style="stop-color:rgb(100%,100%,100%);stop-opacity:0.513726;"
         id="stop357" />
      <stop
         offset="0.552204"
         style="stop-color:rgb(12.941177%,12.941177%,12.941177%);stop-opacity:0.443137;"
         id="stop359" />
      <stop
         offset="1"
         style="stop-color:rgb(10.196079%,10.196079%,10.196079%);stop-opacity:0;"
         id="stop361" />
    </linearGradient>
    <mask
       id="mask18">
      <g
         filter="url(#alpha)"
         id="g366">
        <rect
           x="0"
           y="0"
           width="210"
           height="150"
           style="fill:rgb(0%,0%,0%);fill-opacity:0.05;stroke:none;"
           id="rect364" />
      </g>
    </mask>
    <linearGradient
       id="linear18"
       gradientUnits="userSpaceOnUse"
       x1="-119.084938"
       y1="49.391594"
       x2="-63.084942"
       y2="49.391594"
       gradientTransform="matrix(0.982187,0,0,0.973811,160.964733,40.893015)">
      <stop
         offset="0"
         style="stop-color:rgb(100%,100%,100%);stop-opacity:1;"
         id="stop369" />
      <stop
         offset="0.483719"
         style="stop-color:rgb(100%,100%,100%);stop-opacity:0.513726;"
         id="stop371" />
      <stop
         offset="0.552204"
         style="stop-color:rgb(12.941177%,12.941177%,12.941177%);stop-opacity:0.443137;"
         id="stop373" />
      <stop
         offset="1"
         style="stop-color:rgb(10.196079%,10.196079%,10.196079%);stop-opacity:0;"
         id="stop375" />
    </linearGradient>
    <clipPath
       id="clip19">
      <rect
         x="0"
         y="0"
         width="210"
         height="150"
         id="rect378" />
    </clipPath>
    <g
       id="surface52854"
       clip-path="url(#clip19)">
      <path
         style=" stroke:none;fill-rule:nonzero;fill:url(#linear18);"
         d="M 67.652344 61.722656 C 67.628906 61.753906 67.578125 61.816406 67.519531 61.933594 C 67.390625 62.183594 67.242188 62.617188 67.105469 63.175781 C 66.839844 64.292969 66.605469 65.925781 66.433594 67.847656 C 66.414062 68.054688 66.265625 68.230469 66.058594 68.285156 C 64.273438 68.769531 62.554688 69.488281 60.960938 70.414062 C 60.773438 70.519531 60.542969 70.5 60.378906 70.363281 C 58.882812 69.121094 57.546875 68.125 56.554688 67.519531 C 56.0625 67.214844 55.644531 67.007812 55.371094 66.917969 C 55.25 66.878906 55.167969 66.871094 55.128906 66.867188 L 49.679688 72.269531 C 49.683594 72.308594 49.691406 72.390625 49.734375 72.511719 C 49.824219 72.78125 50.03125 73.195312 50.335938 73.6875 C 50.949219 74.667969 51.953125 75.992188 53.207031 77.476562 C 53.34375 77.636719 53.363281 77.867188 53.257812 78.050781 C 52.328125 79.632812 51.613281 81.339844 51.132812 83.109375 C 51.074219 83.3125 50.898438 83.460938 50.6875 83.476562 C 48.742188 83.648438 47.09375 83.878906 45.960938 84.148438 C 45.394531 84.28125 44.957031 84.425781 44.703125 84.550781 C 44.585938 84.609375 44.523438 84.660156 44.492188 84.6875 L 44.492188 92.320312 C 44.519531 92.347656 44.585938 92.394531 44.703125 92.453125 C 44.957031 92.582031 45.390625 92.726562 45.957031 92.863281 C 47.085938 93.128906 48.730469 93.359375 50.667969 93.53125 C 50.878906 93.550781 51.058594 93.695312 51.113281 93.898438 C 51.597656 95.671875 52.316406 97.382812 53.25 98.96875 C 53.355469 99.152344 53.335938 99.382812 53.199219 99.542969 C 51.945312 101.027344 50.945312 102.34375 50.335938 103.328125 C 50.03125 103.816406 49.824219 104.230469 49.734375 104.496094 C 49.691406 104.621094 49.683594 104.699219 49.679688 104.738281 L 55.128906 110.140625 C 55.167969 110.140625 55.246094 110.128906 55.371094 110.089844 C 55.640625 110 56.054688 109.792969 56.550781 109.492188 C 57.539062 108.886719 58.867188 107.898438 60.359375 106.660156 C 60.523438 106.523438 60.753906 106.503906 60.9375 106.605469 C 62.542969 107.523438 64.269531 108.230469 66.058594 108.703125 C 66.265625 108.753906 66.414062 108.933594 66.433594 109.140625 C 66.605469 111.070312 66.839844 112.703125 67.105469 113.828125 C 67.242188 114.386719 67.386719 114.820312 67.515625 115.074219 C 67.574219 115.191406 67.625 115.253906 67.652344 115.285156 L 75.351562 115.285156 C 75.378906 115.253906 75.429688 115.191406 75.488281 115.078125 C 75.613281 114.824219 75.761719 114.390625 75.898438 113.832031 C 76.167969 112.714844 76.402344 111.082031 76.574219 109.160156 C 76.589844 108.953125 76.738281 108.777344 76.945312 108.722656 C 78.730469 108.238281 80.449219 107.519531 82.046875 106.59375 C 82.230469 106.488281 82.460938 106.507812 82.625 106.644531 C 84.121094 107.886719 85.457031 108.882812 86.449219 109.492188 C 86.945312 109.792969 87.359375 110 87.632812 110.089844 C 87.753906 110.128906 87.835938 110.140625 87.878906 110.140625 L 93.324219 104.738281 C 93.320312 104.699219 93.3125 104.617188 93.273438 104.496094 C 93.179688 104.226562 92.976562 103.8125 92.667969 103.324219 C 92.058594 102.339844 91.050781 101.015625 89.796875 99.53125 C 89.660156 99.371094 89.640625 99.140625 89.746094 98.960938 C 90.675781 97.375 91.390625 95.667969 91.875 93.898438 C 91.929688 93.695312 92.105469 93.550781 92.316406 93.53125 C 94.261719 93.359375 95.910156 93.128906 97.042969 92.863281 C 97.609375 92.726562 98.046875 92.582031 98.300781 92.457031 C 98.417969 92.398438 98.484375 92.347656 98.511719 92.320312 L 98.511719 84.6875 C 98.484375 84.664062 98.421875 84.613281 98.304688 84.554688 C 98.050781 84.425781 97.613281 84.28125 97.046875 84.148438 C 95.921875 83.878906 94.273438 83.648438 92.335938 83.476562 C 92.125 83.460938 91.949219 83.3125 91.890625 83.109375 C 91.410156 81.335938 90.6875 79.625 89.753906 78.039062 C 89.648438 77.855469 89.667969 77.628906 89.804688 77.464844 C 91.058594 75.984375 92.058594 74.664062 92.667969 73.683594 C 92.976562 73.191406 93.183594 72.777344 93.273438 72.511719 C 93.3125 72.386719 93.320312 72.308594 93.324219 72.269531 L 87.878906 66.867188 C 87.835938 66.871094 87.757812 66.878906 87.632812 66.917969 C 87.363281 67.007812 86.949219 67.214844 86.453125 67.515625 C 85.464844 68.121094 84.136719 69.109375 82.644531 70.351562 C 82.480469 70.484375 82.25 70.503906 82.066406 70.402344 C 80.460938 69.484375 78.734375 68.777344 76.945312 68.308594 C 76.742188 68.253906 76.589844 68.078125 76.574219 67.867188 C 76.402344 65.9375 76.167969 64.304688 75.898438 63.179688 C 75.761719 62.621094 75.617188 62.1875 75.488281 61.933594 C 75.429688 61.816406 75.378906 61.753906 75.351562 61.722656 Z M 67.652344 61.722656 "
         id="path381" />
    </g>
    <mask
       id="mask19">
      <g
         filter="url(#alpha)"
         id="g386">
        <rect
           x="0"
           y="0"
           width="210"
           height="150"
           style="fill:rgb(0%,0%,0%);fill-opacity:0.05;stroke:none;"
           id="rect384" />
      </g>
    </mask>
    <linearGradient
       id="linear19"
       gradientUnits="userSpaceOnUse"
       x1="-119.084938"
       y1="49.391594"
       x2="-63.084942"
       y2="49.391594"
       gradientTransform="matrix(0.982187,0,0,0.973811,160.964733,40.893015)">
      <stop
         offset="0"
         style="stop-color:rgb(100%,100%,100%);stop-opacity:1;"
         id="stop389" />
      <stop
         offset="0.483719"
         style="stop-color:rgb(100%,100%,100%);stop-opacity:0.513726;"
         id="stop391" />
      <stop
         offset="0.552204"
         style="stop-color:rgb(12.941177%,12.941177%,12.941177%);stop-opacity:0.443137;"
         id="stop393" />
      <stop
         offset="1"
         style="stop-color:rgb(10.196079%,10.196079%,10.196079%);stop-opacity:0;"
         id="stop395" />
    </linearGradient>
    <clipPath
       id="clip20">
      <rect
         x="0"
         y="0"
         width="210"
         height="150"
         id="rect398" />
    </clipPath>
    <g
       id="surface52857"
       clip-path="url(#clip20)">
      <path
         style=" stroke:none;fill-rule:nonzero;fill:url(#linear19);"
         d="M 71.5 98.726562 C 77.574219 98.917969 82.777344 92.898438 81.660156 86.964844 C 80.9375 81.183594 74.578125 77.011719 68.933594 78.636719 C 63.214844 79.929688 59.664062 86.613281 61.84375 92.027344 C 63.25 95.972656 67.277344 98.785156 71.5 98.726562 Z M 71.5 98.726562 "
         id="path401" />
    </g>
    <clipPath
       id="clip17">
      <rect
         x="0"
         y="0"
         width="210"
         height="150"
         id="rect404" />
    </clipPath>
    <g
       id="surface52859"
       clip-path="url(#clip17)">
      <use
         xlink:href="#surface52851"
         mask="url(#mask17)"
         id="use407" />
      <path
         style=" stroke:none;fill-rule:nonzero;fill:url(#linear17);"
         d="M 67.574219 61.238281 C 66.867188 61.238281 66.277344 63.945312 65.929688 67.816406 C 64.101562 68.308594 62.347656 69.042969 60.710938 69.992188 C 57.695312 67.484375 55.335938 65.972656 54.835938 66.46875 L 49.277344 71.980469 C 48.773438 72.476562 50.300781 74.8125 52.828125 77.804688 C 51.878906 79.425781 51.148438 81.167969 50.652344 82.980469 C 46.738281 83.324219 44 83.90625 44 84.609375 L 44 92.398438 C 44 93.101562 46.730469 93.683594 50.632812 94.027344 C 51.128906 95.84375 51.867188 97.589844 52.820312 99.214844 C 50.300781 102.203125 48.777344 104.53125 49.277344 105.027344 L 54.835938 110.539062 C 55.335938 111.035156 57.683594 109.53125 60.691406 107.035156 C 62.335938 107.972656 64.097656 108.691406 65.929688 109.175781 C 66.277344 113.054688 66.867188 115.769531 67.574219 115.769531 L 75.429688 115.769531 C 76.136719 115.769531 76.726562 113.0625 77.074219 109.195312 C 78.902344 108.699219 80.65625 107.96875 82.292969 107.019531 C 85.3125 109.523438 87.667969 111.039062 88.167969 110.539062 L 93.726562 105.027344 C 94.230469 104.53125 92.703125 102.195312 90.175781 99.203125 C 91.125 97.582031 91.859375 95.839844 92.351562 94.027344 C 96.265625 93.683594 99.003906 93.101562 99.003906 92.398438 L 99.003906 84.609375 C 99.003906 83.90625 96.273438 83.324219 92.371094 82.980469 C 91.875 81.164062 91.140625 79.417969 90.183594 77.792969 C 92.707031 74.808594 94.230469 72.476562 93.726562 71.980469 L 88.167969 66.46875 C 87.667969 65.972656 85.320312 67.480469 82.3125 69.976562 C 80.667969 69.035156 78.90625 68.316406 77.074219 67.832031 C 76.726562 63.953125 76.140625 61.238281 75.429688 61.238281 Z M 71.503906 78.765625 C 76.925781 78.765625 81.324219 83.125 81.324219 88.503906 C 81.324219 93.882812 76.925781 98.242188 71.503906 98.242188 C 66.078125 98.242188 61.679688 93.882812 61.679688 88.503906 C 61.679688 83.125 66.078125 78.765625 71.503906 78.765625 Z M 71.503906 78.765625 "
         id="path409" />
      <use
         xlink:href="#surface52854"
         mask="url(#mask18)"
         id="use411" />
      <use
         xlink:href="#surface52857"
         mask="url(#mask19)"
         id="use413" />
    </g>
    <mask
       id="mask20">
      <g
         filter="url(#alpha)"
         id="g418">
        <rect
           x="0"
           y="0"
           width="32"
           height="32"
           style="fill:rgb(0%,0%,0%);fill-opacity:0.1;stroke:none;"
           id="rect416" />
      </g>
    </mask>
    <linearGradient
       id="linear20"
       gradientUnits="userSpaceOnUse"
       x1="-119.084938"
       y1="49.391594"
       x2="-63.084942"
       y2="49.391594"
       gradientTransform="matrix(0.982187,0,0,0.973811,160.964748,39.883795)">
      <stop
         offset="0"
         style="stop-color:rgb(100%,100%,100%);stop-opacity:1;"
         id="stop421" />
      <stop
         offset="0.499157"
         style="stop-color:rgb(100%,100%,100%);stop-opacity:1;"
         id="stop423" />
      <stop
         offset="0.499157"
         style="stop-color:rgb(30.19608%,30.19608%,30.19608%);stop-opacity:1;"
         id="stop425" />
      <stop
         offset="1"
         style="stop-color:rgb(30.19608%,30.19608%,30.19608%);stop-opacity:1;"
         id="stop427" />
    </linearGradient>
    <clipPath
       id="clip21">
      <rect
         x="0"
         y="0"
         width="210"
         height="150"
         id="rect430" />
    </clipPath>
    <g
       id="surface52862"
       clip-path="url(#clip21)">
      <path
         style=" stroke:none;fill-rule:nonzero;fill:url(#linear20);"
         d="M 67.574219 61.203125 C 66.867188 61.203125 66.277344 63.910156 65.929688 67.777344 C 64.101562 68.273438 62.347656 69.003906 60.710938 69.953125 C 57.695312 67.449219 55.335938 65.933594 54.835938 66.433594 L 49.277344 71.945312 C 48.773438 72.441406 50.300781 74.777344 52.828125 77.769531 C 51.878906 79.390625 51.148438 81.132812 50.652344 82.945312 C 46.738281 83.289062 44 83.871094 44 84.574219 L 44 92.363281 C 44 93.066406 46.730469 93.648438 50.632812 93.992188 C 51.128906 95.808594 51.867188 97.554688 52.820312 99.179688 C 50.300781 102.167969 48.777344 104.496094 49.277344 104.992188 L 54.835938 110.503906 C 55.335938 111 57.683594 109.496094 60.691406 106.996094 C 62.335938 107.9375 64.097656 108.65625 65.929688 109.140625 C 66.277344 113.019531 66.867188 115.734375 67.574219 115.734375 L 75.429688 115.734375 C 76.136719 115.734375 76.726562 113.027344 77.074219 109.160156 C 78.902344 108.664062 80.65625 107.933594 82.292969 106.984375 C 85.3125 109.488281 87.667969 111.003906 88.167969 110.503906 L 93.726562 104.992188 C 94.230469 104.496094 92.703125 102.160156 90.175781 99.167969 C 91.125 97.546875 91.859375 95.804688 92.351562 93.992188 C 96.265625 93.648438 99.003906 93.066406 99.003906 92.363281 L 99.003906 84.574219 C 99.003906 83.871094 96.273438 83.289062 92.371094 82.945312 C 91.875 81.128906 91.140625 79.382812 90.183594 77.757812 C 92.707031 74.773438 94.230469 72.441406 93.726562 71.945312 L 88.167969 66.433594 C 87.667969 65.9375 85.320312 67.445312 82.3125 69.941406 C 80.667969 69 78.90625 68.28125 77.074219 67.796875 C 76.726562 63.917969 76.140625 61.203125 75.429688 61.203125 Z M 71.503906 78.730469 C 76.925781 78.730469 81.324219 83.089844 81.324219 88.46875 C 81.324219 93.847656 76.925781 98.207031 71.503906 98.207031 C 66.078125 98.207031 61.679688 93.847656 61.679688 88.46875 C 61.679688 83.089844 66.078125 78.730469 71.503906 78.730469 Z M 71.503906 78.730469 "
         id="path433" />
    </g>
    <mask
       id="mask21">
      <g
         filter="url(#alpha)"
         id="g438">
        <rect
           x="0"
           y="0"
           width="32"
           height="32"
           style="fill:rgb(0%,0%,0%);fill-opacity:0.05;stroke:none;"
           id="rect436" />
      </g>
    </mask>
    <linearGradient
       id="linear21"
       gradientUnits="userSpaceOnUse"
       x1="-119.084938"
       y1="49.391594"
       x2="-63.084942"
       y2="49.391594"
       gradientTransform="matrix(0.982187,0,0,0.973811,160.964748,39.883795)">
      <stop
         offset="0"
         style="stop-color:rgb(100%,100%,100%);stop-opacity:1;"
         id="stop441" />
      <stop
         offset="0.499157"
         style="stop-color:rgb(100%,100%,100%);stop-opacity:1;"
         id="stop443" />
      <stop
         offset="0.499157"
         style="stop-color:rgb(30.19608%,30.19608%,30.19608%);stop-opacity:1;"
         id="stop445" />
      <stop
         offset="1"
         style="stop-color:rgb(30.19608%,30.19608%,30.19608%);stop-opacity:1;"
         id="stop447" />
    </linearGradient>
    <clipPath
       id="clip22">
      <rect
         x="0"
         y="0"
         width="210"
         height="150"
         id="rect450" />
    </clipPath>
    <g
       id="surface52865"
       clip-path="url(#clip22)">
      <path
         style=" stroke:none;fill-rule:nonzero;fill:url(#linear21);"
         d="M 67.652344 60.714844 C 67.628906 60.746094 67.578125 60.808594 67.519531 60.921875 C 67.390625 61.175781 67.242188 61.605469 67.109375 62.167969 C 66.839844 63.285156 66.605469 64.917969 66.433594 66.835938 C 66.414062 67.046875 66.265625 67.222656 66.058594 67.277344 C 64.273438 67.761719 62.554688 68.480469 60.960938 69.40625 C 60.773438 69.511719 60.542969 69.492188 60.378906 69.355469 C 58.882812 68.109375 57.546875 67.117188 56.554688 66.507812 C 56.0625 66.207031 55.644531 66 55.371094 65.910156 C 55.25 65.867188 55.167969 65.859375 55.128906 65.859375 L 49.679688 71.257812 C 49.683594 71.300781 49.691406 71.378906 49.734375 71.503906 C 49.824219 71.773438 50.03125 72.183594 50.335938 72.675781 C 50.949219 73.660156 51.953125 74.980469 53.207031 76.46875 C 53.34375 76.628906 53.363281 76.859375 53.257812 77.039062 C 52.328125 78.625 51.613281 80.332031 51.132812 82.097656 C 51.074219 82.300781 50.898438 82.449219 50.6875 82.46875 C 48.742188 82.636719 47.09375 82.871094 45.960938 83.136719 C 45.394531 83.269531 44.957031 83.414062 44.703125 83.542969 C 44.585938 83.601562 44.523438 83.652344 44.492188 83.675781 L 44.492188 91.308594 C 44.519531 91.335938 44.585938 91.386719 44.703125 91.445312 C 44.957031 91.574219 45.390625 91.71875 45.957031 91.851562 C 47.085938 92.117188 48.730469 92.351562 50.667969 92.523438 C 50.878906 92.539062 51.058594 92.6875 51.113281 92.890625 C 51.597656 94.664062 52.316406 96.371094 53.25 97.960938 C 53.355469 98.140625 53.335938 98.371094 53.199219 98.535156 C 51.945312 100.015625 50.945312 101.335938 50.335938 102.316406 C 50.03125 102.808594 49.824219 103.21875 49.734375 103.488281 C 49.691406 103.613281 49.683594 103.691406 49.679688 103.730469 L 55.128906 109.132812 C 55.167969 109.128906 55.246094 109.121094 55.371094 109.082031 C 55.640625 108.992188 56.054688 108.785156 56.550781 108.484375 C 57.539062 107.878906 58.867188 106.890625 60.359375 105.648438 C 60.523438 105.515625 60.753906 105.492188 60.9375 105.597656 C 62.542969 106.515625 64.269531 107.222656 66.058594 107.691406 C 66.265625 107.746094 66.414062 107.921875 66.433594 108.132812 C 66.605469 110.058594 66.839844 111.695312 67.109375 112.816406 C 67.242188 113.378906 67.386719 113.8125 67.515625 114.066406 C 67.574219 114.179688 67.625 114.246094 67.652344 114.273438 L 75.351562 114.273438 C 75.378906 114.246094 75.429688 114.183594 75.488281 114.066406 C 75.613281 113.816406 75.761719 113.382812 75.898438 112.824219 C 76.167969 111.703125 76.402344 110.074219 76.574219 108.152344 C 76.589844 107.941406 76.738281 107.769531 76.945312 107.714844 C 78.730469 107.230469 80.449219 106.511719 82.046875 105.585938 C 82.230469 105.480469 82.460938 105.5 82.625 105.632812 C 84.121094 106.878906 85.457031 107.875 86.449219 108.480469 C 86.945312 108.785156 87.359375 108.992188 87.632812 109.082031 C 87.753906 109.121094 87.835938 109.128906 87.878906 109.132812 L 93.324219 103.730469 C 93.320312 103.691406 93.3125 103.609375 93.273438 103.488281 C 93.179688 103.21875 92.976562 102.804688 92.667969 102.3125 C 92.058594 101.328125 91.054688 100.007812 89.796875 98.523438 C 89.660156 98.359375 89.640625 98.132812 89.746094 97.949219 C 90.675781 96.367188 91.390625 94.660156 91.875 92.890625 C 91.929688 92.6875 92.105469 92.539062 92.316406 92.523438 C 94.261719 92.351562 95.910156 92.117188 97.042969 91.851562 C 97.609375 91.71875 98.046875 91.574219 98.300781 91.449219 C 98.417969 91.390625 98.484375 91.339844 98.511719 91.3125 L 98.511719 83.679688 C 98.484375 83.652344 98.421875 83.601562 98.304688 83.542969 C 98.050781 83.417969 97.613281 83.269531 97.046875 83.136719 C 95.921875 82.871094 94.273438 82.636719 92.335938 82.46875 C 92.125 82.449219 91.949219 82.300781 91.890625 82.097656 C 91.410156 80.324219 90.6875 78.617188 89.753906 77.03125 C 89.648438 76.847656 89.667969 76.617188 89.804688 76.457031 C 91.058594 74.972656 92.058594 73.65625 92.667969 72.671875 C 92.976562 72.183594 93.183594 71.769531 93.273438 71.5 C 93.3125 71.378906 93.320312 71.300781 93.324219 71.257812 L 87.878906 65.859375 C 87.835938 65.859375 87.757812 65.867188 87.632812 65.910156 C 87.363281 66 86.949219 66.203125 86.453125 66.507812 C 85.464844 67.109375 84.136719 68.101562 82.644531 69.339844 C 82.480469 69.476562 82.25 69.496094 82.066406 69.390625 C 80.460938 68.476562 78.734375 67.769531 76.945312 67.296875 C 76.742188 67.242188 76.589844 67.066406 76.574219 66.855469 C 76.402344 64.929688 76.167969 63.292969 75.898438 62.171875 C 75.761719 61.609375 75.617188 61.175781 75.488281 60.925781 C 75.429688 60.808594 75.378906 60.746094 75.351562 60.714844 Z M 67.652344 60.714844 "
         id="path453" />
    </g>
    <mask
       id="mask22">
      <g
         filter="url(#alpha)"
         id="g458">
        <rect
           x="0"
           y="0"
           width="32"
           height="32"
           style="fill:rgb(0%,0%,0%);fill-opacity:0.05;stroke:none;"
           id="rect456" />
      </g>
    </mask>
    <linearGradient
       id="linear22"
       gradientUnits="userSpaceOnUse"
       x1="-119.084938"
       y1="49.391594"
       x2="-63.084942"
       y2="49.391594"
       gradientTransform="matrix(0.982187,0,0,0.973811,160.964748,39.883795)">
      <stop
         offset="0"
         style="stop-color:rgb(100%,100%,100%);stop-opacity:1;"
         id="stop461" />
      <stop
         offset="0.499157"
         style="stop-color:rgb(100%,100%,100%);stop-opacity:1;"
         id="stop463" />
      <stop
         offset="0.499157"
         style="stop-color:rgb(30.19608%,30.19608%,30.19608%);stop-opacity:1;"
         id="stop465" />
      <stop
         offset="1"
         style="stop-color:rgb(30.19608%,30.19608%,30.19608%);stop-opacity:1;"
         id="stop467" />
    </linearGradient>
    <clipPath
       id="clip23">
      <rect
         x="0"
         y="0"
         width="210"
         height="150"
         id="rect470" />
    </clipPath>
    <g
       id="surface52868"
       clip-path="url(#clip23)">
      <path
         style=" stroke:none;fill-rule:nonzero;fill:url(#linear22);"
         d="M 71.5 97.714844 C 77.574219 97.90625 82.777344 91.890625 81.660156 85.957031 C 80.9375 80.171875 74.578125 76.003906 68.933594 77.628906 C 63.214844 78.921875 59.664062 85.605469 61.84375 91.015625 C 63.25 94.964844 67.277344 97.773438 71.5 97.714844 Z M 71.5 97.714844 "
         id="path473" />
    </g>
    <radialGradient
       inkscape:collect="always"
       xlink:href="#linearGradient2887"
       id="radialGradient2889"
       cx="16"
       cy="27"
       fx="16"
       fy="27"
       r="16"
       gradientTransform="matrix(0.875,0,0,0.21875,2,22.59375)"
       gradientUnits="userSpaceOnUse" />
    <linearGradient
       inkscape:collect="always"
       xlink:href="#linearGradient1176"
       id="linearGradient1168"
       x1="16"
       y1="1"
       x2="16"
       y2="30"
       gradientUnits="userSpaceOnUse" />
  </defs>
  <ellipse
     style="opacity:0.6;fill:url(#radialGradient2889);fill-opacity:1;stroke:none;stroke-width:0.999995;stroke-linecap:round;stroke-linejoin:round;stroke-miterlimit:4;stroke-dasharray:none"
     id="path2881"
     cx="16"
     cy="28.5"
     rx="14"
     ry="3.5" />
  <use
     xlink:href="#surface52802"
     transform="translate(-168.5,-44)"
     mask="url(#mask0)"
     id="use478"
     x="0"
     y="0"
     width="100%"
     height="100%" />
  <use
     xlink:href="#surface52805"
     transform="translate(-168.5,-44)"
     mask="url(#mask1)"
     id="use480"
     x="0"
     y="0"
     width="100%"
     height="100%" />
  <use
     xlink:href="#surface52808"
     transform="translate(-168.5,-44)"
     mask="url(#mask2)"
     id="use482"
     x="0"
     y="0"
     width="100%"
     height="100%" />
  <use
     xlink:href="#surface52811"
     transform="translate(-168.5,-44)"
     mask="url(#mask3)"
     id="use484"
     x="0"
     y="0"
     width="100%"
     height="100%" />
  <use
     xlink:href="#surface52814"
     transform="translate(-168.5,-44)"
     mask="url(#mask4)"
     id="use486"
     x="0"
     y="0"
     width="100%"
     height="100%" />
  <use
     xlink:href="#surface52817"
     transform="translate(-168.5,-44)"
     mask="url(#mask5)"
     id="use488"
     x="0"
     y="0"
     width="100%"
     height="100%" />
  <use
     xlink:href="#surface52820"
     transform="translate(-168.5,-44)"
     mask="url(#mask6)"
     id="use490"
     x="0"
     y="0"
     width="100%"
     height="100%" />
  <path
     style="fill:url(#linear3);fill-rule:nonzero;stroke:url(#linear4);stroke-width:1.00365;stroke-linecap:round;stroke-linejoin:round;stroke-miterlimit:4"
     d="m 16,1.5 c -7.72266,0 -14,6.27734 -14,14 0,7.72266 6.27734,14 14,14 7.72266,0 14,-6.27734 14,-14 0,-7.72266 -6.27734,-14 -14,-14 z m 0,0"
     id="path492" />
  <path
     style="fill:url(#linearGradient1168);fill-rule:nonzero;stroke:url(#linear6);stroke-width:1;stroke-linecap:butt;stroke-linejoin:miter;stroke-miterlimit:4;stroke-dasharray:none;fill-opacity:1"
     d="M 15.5,1.5124884 C 8.0198267,1.7038779 2,7.9027578 2,15.500001 2,23.097244 8.0198267,29.296114 15.5,29.487513 Z m 0,0"
     id="path494" />
  <use
     xlink:href="#surface52823"
     transform="translate(-168.5,-44)"
     mask="url(#mask7)"
     id="use496"
     x="0"
     y="0"
     width="100%"
     height="100%" />
  <use
     xlink:href="#surface52826"
     transform="translate(-168.5,-44)"
     mask="url(#mask8)"
     id="use498"
     x="0"
     y="0"
     width="100%"
     height="100%" />
  <use
     xlink:href="#surface52829"
     transform="translate(-168.5,-44)"
     mask="url(#mask9)"
     id="use500"
     x="0"
     y="0"
     width="100%"
     height="100%" />
  <path
     style="fill:url(#linear10);fill-rule:nonzero;stroke:none"
     d="m 14.855469,7 c -0.203125,0 -0.375,0.792969 -0.476563,1.929688 -0.53125,0.144531 -1.042968,0.359374 -1.519531,0.636718 -0.875,-0.734375 -1.5625,-1.175781 -1.707031,-1.03125 l -1.617188,1.617188 c -0.144531,0.144531 0.296875,0.832031 1.03125,1.707031 -0.273437,0.476563 -0.488281,0.988281 -0.632812,1.519531 C 8.796875,13.480469 8,13.652344 8,13.855469 v 2.289062 c 0,0.203125 0.792969,0.375 1.929688,0.476563 0.144531,0.53125 0.359374,1.042968 0.636718,1.523437 -0.734375,0.875 -1.175781,1.558594 -1.03125,1.703125 l 1.617188,1.617188 c 0.144531,0.144531 0.828125,-0.296875 1.703125,-1.027344 0.476562,0.273438 0.992187,0.484375 1.523437,0.628906 C 14.480469,22.203125 14.652344,23 14.855469,23 h 2.289062 c 0.203125,0 0.375,-0.792969 0.476563,-1.929688 0.53125,-0.144531 1.042968,-0.359374 1.519531,-0.636718 0.875,0.734375 1.5625,1.175781 1.707031,1.03125 l 1.617188,-1.617188 c 0.144531,-0.144531 -0.296875,-0.832031 -1.03125,-1.707031 0.273437,-0.476563 0.488281,-0.988281 0.632812,-1.519531 C 23.203125,16.519531 24,16.347656 24,16.144531 v -2.289062 c 0,-0.203125 -0.792969,-0.375 -1.929688,-0.476563 -0.144531,-0.53125 -0.359374,-1.042968 -0.636718,-1.523437 0.734375,-0.875 1.175781,-1.558594 1.03125,-1.703125 L 20.847656,8.535156 C 20.703125,8.390625 20.019531,8.832031 19.144531,9.5625 18.667969,9.289062 18.152344,9.078125 17.621094,8.933594 17.519531,7.796875 17.347656,7 17.144531,7 Z M 16,12.144531 c 1.578125,0 2.855469,1.277344 2.855469,2.855469 0,1.578125 -1.277344,2.855469 -2.855469,2.855469 -1.578125,0 -2.855469,-1.277344 -2.855469,-2.855469 0,-1.578125 1.277344,-2.855469 2.855469,-2.855469 z m 0,0"
     id="path502" />
  <use
     xlink:href="#surface52832"
     transform="translate(-168.5,-44)"
     mask="url(#mask10)"
     id="use504"
     x="0"
     y="0"
     width="100%"
     height="100%" />
  <use
     xlink:href="#surface52835"
     transform="translate(-168.5,-44)"
     mask="url(#mask11)"
     id="use506"
     x="0"
     y="0"
     width="100%"
     height="100%" />
  <use
     xlink:href="#surface52847"
     transform="translate(-168.5,-44)"
     mask="url(#mask12)"
     id="use508"
     x="0"
     y="0"
     width="100%"
     height="100%" />
  <use
     xlink:href="#surface52859"
     transform="translate(-168.5,-44)"
     mask="url(#mask16)"
     id="use510"
     x="0"
     y="0"
     width="100%"
     height="100%" />
  <use
     xlink:href="#surface52862"
     transform="translate(-168.5,-44)"
     mask="url(#mask20)"
     id="use512"
     x="0"
     y="0"
     width="100%"
     height="100%" />
  <use
     xlink:href="#surface52865"
     transform="translate(-168.5,-44)"
     mask="url(#mask21)"
     id="use514"
     x="0"
     y="0"
     width="100%"
     height="100%" />
  <use
     xlink:href="#surface52868"
     transform="translate(-168.5,-44)"
     mask="url(#mask22)"
     id="use516"
     x="0"
     y="0"
     width="100%"
     height="100%" />
</svg>
