<?xml version="1.0" encoding="UTF-8"?>
<svg xmlns="http://www.w3.org/2000/svg" xmlns:xlink="http://www.w3.org/1999/xlink" width="64px" height="64px" viewBox="0 0 64 64" version="1.1">
<defs>
<linearGradient id="linear0" gradientUnits="userSpaceOnUse" x1="17.610361" y1="0.999958" x2="17.610361" y2="23.062979" gradientTransform="matrix(2.619269,0,0,2.619227,132.569183,235.569275)">
<stop offset="0" style="stop-color:rgb(100%,100%,100%);stop-opacity:1;"/>
<stop offset="1" style="stop-color:rgb(80.392158%,80.392158%,80.392158%);stop-opacity:1;"/>
</linearGradient>
<linearGradient id="linear1" gradientUnits="userSpaceOnUse" x1="12.962829" y1="2.683795" x2="12.962829" y2="45.326431" gradientTransform="matrix(1.351651,0,0,1.351629,131.560791,234.560898)">
<stop offset="0" style="stop-color:rgb(50.196081%,50.196081%,50.196081%);stop-opacity:1;"/>
<stop offset="0.873267" style="stop-color:rgb(42.745098%,42.745098%,42.745098%);stop-opacity:1;"/>
<stop offset="1" style="stop-color:rgb(30.980393%,31.37255%,32.549021%);stop-opacity:1;"/>
</linearGradient>
<linearGradient id="linear2" gradientUnits="userSpaceOnUse" x1="4" y1="25" x2="24" y2="25" gradientTransform="matrix(0,3.610034,-3.513759,0,208.637924,224.549622)">
<stop offset="0" style="stop-color:rgb(50.196081%,50.196081%,50.196081%);stop-opacity:1;"/>
<stop offset="0.5461" style="stop-color:rgb(42.745098%,42.745098%,42.745098%);stop-opacity:1;"/>
<stop offset="1" style="stop-color:rgb(30.980393%,31.37255%,32.549021%);stop-opacity:1;"/>
</linearGradient>
<linearGradient id="linear3" gradientUnits="userSpaceOnUse" x1="56.323174" y1="25.882757" x2="72.451813" y2="25.882757" gradientTransform="matrix(0,3.610034,-3.513759,0,250.485519,34.5662)">
<stop offset="0" style="stop-color:rgb(30.19608%,30.19608%,30.19608%);stop-opacity:1;"/>
<stop offset="1" style="stop-color:rgb(20%,20%,20%);stop-opacity:1;"/>
</linearGradient>
<filter id="alpha" filterUnits="objectBoundingBox" x="0%" y="0%" width="100%" height="100%">
  <feColorMatrix type="matrix" in="SourceGraphic" values="0 0 0 0 1 0 0 0 0 1 0 0 0 0 1 0 0 0 1 0"/>
</filter>
<mask id="mask0">
  <g filter="url(#alpha)">
<rect x="0" y="0" width="64" height="64" style="fill:rgb(0%,0%,0%);fill-opacity:0.4;stroke:none;"/>
  </g>
</mask>
<linearGradient id="linear4" gradientUnits="userSpaceOnUse" x1="63.397362" y1="-12.489107" x2="63.397362" y2="5.46756" gradientTransform="matrix(3.030129,0,0,3.030061,-24.475288,277.638062)">
<stop offset="0" style="stop-color:rgb(100%,100%,100%);stop-opacity:1;"/>
<stop offset="1" style="stop-color:rgb(100%,100%,100%);stop-opacity:0;"/>
</linearGradient>
<clipPath id="clip1">
  <rect x="0" y="0" width="210" height="150"/>
</clipPath>
<g id="surface2739" clip-path="url(#clip1)">
<path style="fill:none;stroke-width:0.931927;stroke-linecap:butt;stroke-linejoin:miter;stroke:url(#linear4);stroke-miterlimit:4;" d="M 190.49864 266.998278 C 190.49864 281.635412 178.63492 293.499423 164.000085 293.499423 C 149.36525 293.499423 137.501529 281.635412 137.501529 266.998278 C 137.501529 252.364784 149.36525 240.500772 164.000085 240.500772 C 178.63492 240.500772 190.49864 252.364784 190.49864 266.998278 Z M 190.49864 266.998278 " transform="matrix(1.072729,0,0,1.073362,-3.927724,-174.570084)"/>
</g>
<mask id="mask1">
  <g filter="url(#alpha)">
<rect x="0" y="0" width="64" height="64" style="fill:rgb(0%,0%,0%);fill-opacity:0.1;stroke:none;"/>
  </g>
</mask>
<linearGradient id="linear5" gradientUnits="userSpaceOnUse" x1="11.50002" y1="25.256426" x2="36.500019" y2="25.256426" gradientTransform="matrix(1.291667,0,0,1.291667,132.999969,235.377106)">
<stop offset="0" style="stop-color:rgb(98.039216%,98.039216%,98.039216%);stop-opacity:1;"/>
<stop offset="0.499999" style="stop-color:rgb(98.039216%,98.039216%,98.039216%);stop-opacity:1;"/>
<stop offset="0.499999" style="stop-color:rgb(30.19608%,30.19608%,30.19608%);stop-opacity:1;"/>
<stop offset="1" style="stop-color:rgb(30.19608%,30.19608%,30.19608%);stop-opacity:1;"/>
</linearGradient>
<clipPath id="clip2">
  <rect x="0" y="0" width="210" height="150"/>
</clipPath>
<g id="surface2742" clip-path="url(#clip2)">
<path style="fill:none;stroke-width:0.931924;stroke-linecap:butt;stroke-linejoin:miter;stroke:url(#linear5);stroke-miterlimit:4;" d="M 161.786106 252.499437 C 161.385551 252.499437 161.054183 254.038847 160.861188 256.236965 C 159.830668 256.520827 158.840204 256.935704 157.918927 257.474316 C 156.218387 256.051362 154.889272 255.192495 154.605242 255.472718 L 151.473627 258.606128 C 151.189597 258.889991 152.052612 260.218323 153.476404 261.917861 C 152.941117 262.838596 152.525996 263.828476 152.249248 264.862028 C 150.042553 265.05491 148.498594 265.386083 148.498594 265.786402 L 148.498594 270.215391 C 148.498594 270.612071 150.038911 270.943244 152.238324 271.139765 C 152.518713 272.173317 152.933834 273.163197 153.472763 274.087571 C 152.048971 275.787109 151.189597 277.111802 151.473627 277.392026 L 154.605242 280.525435 C 154.889272 280.809298 156.211105 279.950431 157.908003 278.534756 C 158.832921 279.066089 159.827027 279.477326 160.861188 279.750271 C 161.054183 281.955667 161.385551 283.498717 161.786106 283.498717 L 166.214063 283.498717 C 166.610977 283.498717 166.945987 281.959307 167.138982 279.761189 C 168.169502 279.480965 169.159966 279.06245 170.081243 278.523838 C 171.781782 279.950431 173.110898 280.809298 173.394928 280.525435 L 176.526542 277.392026 C 176.810572 277.111802 175.947558 275.78347 174.523766 274.083932 C 175.059053 273.159558 175.474174 272.169677 175.750922 271.139765 C 177.957617 270.943244 179.501576 270.612071 179.501576 270.215391 L 179.501576 265.786402 C 179.501576 265.386083 177.961259 265.05491 175.761846 264.862028 C 175.481457 263.828476 175.066336 262.834956 174.527407 261.910583 C 175.951199 260.214684 176.810572 258.889991 176.526542 258.606128 L 173.394928 255.472718 C 173.110898 255.192495 171.789065 256.047723 170.092167 257.467037 C 169.167249 256.932065 168.173143 256.524467 167.138982 256.247882 C 166.945987 254.042486 166.614619 252.499437 166.214063 252.499437 Z M 164.000085 262.463751 C 167.058871 262.463751 169.535031 264.942092 169.535031 267.999077 C 169.535031 271.056061 167.058871 273.534403 164.000085 273.534403 C 160.941299 273.534403 158.465139 271.056061 158.465139 267.999077 C 158.465139 264.942092 160.941299 262.463751 164.000085 262.463751 Z M 164.000085 262.463751 " transform="matrix(1.072729,0,0,1.073362,-3.927724,-174.570084)"/>
</g>
<mask id="mask2">
  <g filter="url(#alpha)">
<rect x="0" y="0" width="64" height="64" style="fill:rgb(0%,0%,0%);fill-opacity:0.07;stroke:none;"/>
  </g>
</mask>
<linearGradient id="linear6" gradientUnits="userSpaceOnUse" x1="12.00002" y1="25.256426" x2="36.000019" y2="25.256426" gradientTransform="matrix(1.385609,0,0,1.386426,138.745263,78.074671)">
<stop offset="0" style="stop-color:rgb(50.196081%,50.196081%,50.196081%);stop-opacity:1;"/>
<stop offset="0.873267" style="stop-color:rgb(42.745098%,42.745098%,42.745098%);stop-opacity:1;"/>
<stop offset="1" style="stop-color:rgb(30.980393%,31.37255%,32.549021%);stop-opacity:1;"/>
</linearGradient>
<clipPath id="clip3">
  <rect x="0" y="0" width="210" height="150"/>
</clipPath>
<g id="surface2745" clip-path="url(#clip3)">
<path style=" stroke:none;fill-rule:nonzero;fill:url(#linear6);" d="M 169.625 96.453125 C 169.195312 96.453125 168.839844 98.105469 168.632812 100.464844 C 167.527344 100.769531 166.464844 101.214844 165.476562 101.792969 C 163.652344 100.265625 162.226562 99.34375 161.921875 99.644531 L 158.5625 103.007812 C 158.257812 103.3125 159.183594 104.738281 160.710938 106.5625 C 160.136719 107.550781 159.691406 108.613281 159.394531 109.722656 C 157.027344 109.929688 155.371094 110.285156 155.371094 110.714844 L 155.371094 115.46875 C 155.371094 115.894531 157.023438 116.25 159.382812 116.460938 C 159.683594 117.570312 160.128906 118.632812 160.707031 119.625 C 159.179688 121.449219 158.257812 122.871094 158.5625 123.171875 L 161.921875 126.535156 C 162.226562 126.839844 163.644531 125.917969 165.464844 124.398438 C 166.457031 124.96875 167.523438 125.410156 168.632812 125.703125 C 168.839844 128.070312 169.195312 129.726562 169.625 129.726562 L 174.375 129.726562 C 174.800781 129.726562 175.160156 128.074219 175.367188 125.714844 C 176.472656 125.414062 177.535156 124.964844 178.523438 124.386719 C 180.347656 125.917969 181.773438 126.839844 182.078125 126.535156 L 185.4375 123.171875 C 185.742188 122.871094 184.816406 121.445312 183.289062 119.621094 C 183.863281 118.628906 184.308594 117.566406 184.605469 116.460938 C 186.972656 116.25 188.628906 115.894531 188.628906 115.46875 L 188.628906 110.714844 C 188.628906 110.285156 186.976562 109.929688 184.617188 109.722656 C 184.316406 108.613281 183.871094 107.546875 183.292969 106.554688 C 184.820312 104.734375 185.742188 103.3125 185.4375 103.007812 L 182.078125 99.644531 C 181.773438 99.34375 180.355469 100.261719 178.535156 101.785156 C 177.542969 101.210938 176.476562 100.773438 175.367188 100.476562 C 175.160156 98.109375 174.804688 96.453125 174.375 96.453125 Z M 172 107.148438 C 175.28125 107.148438 177.9375 109.808594 177.9375 113.089844 C 177.9375 116.371094 175.28125 119.03125 172 119.03125 C 168.71875 119.03125 166.0625 116.371094 166.0625 113.089844 C 166.0625 109.808594 168.71875 107.148438 172 107.148438 Z M 172 107.148438 "/>
</g>
<linearGradient id="linear7" gradientUnits="userSpaceOnUse" x1="12.00002" y1="24.256426" x2="36.000019" y2="24.256426" gradientTransform="matrix(1.430306,0,0,1.431149,-2.57745,-2.947086)">
<stop offset="0" style="stop-color:rgb(98.039216%,98.039216%,98.039216%);stop-opacity:1;"/>
<stop offset="0.499999" style="stop-color:rgb(98.039216%,98.039216%,98.039216%);stop-opacity:1;"/>
<stop offset="0.499999" style="stop-color:rgb(29.411766%,29.411766%,29.411766%);stop-opacity:1;"/>
<stop offset="1" style="stop-color:rgb(29.803923%,29.803923%,29.803923%);stop-opacity:1;"/>
</linearGradient>
<mask id="mask3">
  <g filter="url(#alpha)">
<rect x="0" y="0" width="64" height="64" style="fill:rgb(0%,0%,0%);fill-opacity:0.4;stroke:none;"/>
  </g>
</mask>
<linearGradient id="linear8" gradientUnits="userSpaceOnUse" x1="63.397362" y1="-12.489107" x2="63.397362" y2="5.46756" gradientTransform="matrix(1.48648,0,0,1.486445,84.040382,219.718674)">
<stop offset="0" style="stop-color:rgb(100%,100%,100%);stop-opacity:1;"/>
<stop offset="1" style="stop-color:rgb(100%,100%,100%);stop-opacity:0;"/>
</linearGradient>
<clipPath id="clip4">
  <rect x="0" y="0" width="210" height="150"/>
</clipPath>
<g id="surface2748" clip-path="url(#clip4)">
<path style="fill:none;stroke-width:0.999996;stroke-linecap:butt;stroke-linejoin:miter;stroke:url(#linear8);stroke-miterlimit:4;" d="M 189.5 214.5 C 189.5 221.679688 183.679688 227.5 176.5 227.5 C 169.320312 227.5 163.5 221.679688 163.5 214.5 C 163.5 207.320312 169.320312 201.5 176.5 201.5 C 183.679688 201.5 189.5 207.320312 189.5 214.5 Z M 189.5 214.5 " transform="matrix(1,0,0,1,8,-156)"/>
</g>
<mask id="mask4">
  <g filter="url(#alpha)">
<rect x="0" y="0" width="64" height="64" style="fill:rgb(0%,0%,0%);fill-opacity:0.1;stroke:none;"/>
  </g>
</mask>
<linearGradient id="linear9" gradientUnits="userSpaceOnUse" x1="11.50002" y1="25.256426" x2="36.500019" y2="25.256426" gradientTransform="matrix(0.666666,0,0,0.666667,159.999985,197.662384)">
<stop offset="0" style="stop-color:rgb(98.039216%,98.039216%,98.039216%);stop-opacity:1;"/>
<stop offset="0.499999" style="stop-color:rgb(98.039216%,98.039216%,98.039216%);stop-opacity:1;"/>
<stop offset="0.499999" style="stop-color:rgb(30.19608%,30.19608%,30.19608%);stop-opacity:1;"/>
<stop offset="1" style="stop-color:rgb(30.19608%,30.19608%,30.19608%);stop-opacity:1;"/>
</linearGradient>
<clipPath id="clip5">
  <rect x="0" y="0" width="210" height="150"/>
</clipPath>
<g id="surface2751" clip-path="url(#clip5)">
<path style="fill:none;stroke-width:1;stroke-linecap:butt;stroke-linejoin:miter;stroke:url(#linear9);stroke-miterlimit:4;" d="M 174.855469 206.5 C 174.652344 206.5 174.480469 207.292969 174.378906 208.429688 C 173.847656 208.574219 173.335938 208.789062 172.859375 209.066406 C 171.984375 208.332031 171.296875 207.890625 171.152344 208.035156 L 169.535156 209.652344 C 169.390625 209.796875 169.832031 210.484375 170.566406 211.359375 C 170.292969 211.835938 170.078125 212.347656 169.933594 212.878906 C 168.796875 212.980469 168 213.152344 168 213.355469 L 168 215.644531 C 168 215.847656 168.792969 216.019531 169.929688 216.121094 C 170.074219 216.652344 170.289062 217.164062 170.566406 217.644531 C 169.832031 218.519531 169.390625 219.203125 169.535156 219.347656 L 171.152344 220.964844 C 171.296875 221.109375 171.980469 220.667969 172.855469 219.9375 C 173.332031 220.210938 173.847656 220.421875 174.378906 220.566406 C 174.480469 221.703125 174.652344 222.5 174.855469 222.5 L 177.144531 222.5 C 177.347656 222.5 177.519531 221.707031 177.621094 220.570312 C 178.152344 220.425781 178.664062 220.210938 179.140625 219.933594 C 180.015625 220.667969 180.703125 221.109375 180.847656 220.964844 L 182.464844 219.347656 C 182.609375 219.203125 182.167969 218.515625 181.433594 217.640625 C 181.707031 217.164062 181.921875 216.652344 182.066406 216.121094 C 183.203125 216.019531 184 215.847656 184 215.644531 L 184 213.355469 C 184 213.152344 183.207031 212.980469 182.070312 212.878906 C 181.925781 212.347656 181.710938 211.835938 181.433594 211.355469 C 182.167969 210.480469 182.609375 209.796875 182.464844 209.652344 L 180.847656 208.035156 C 180.703125 207.890625 180.019531 208.332031 179.144531 209.0625 C 178.667969 208.789062 178.152344 208.578125 177.621094 208.433594 C 177.519531 207.296875 177.347656 206.5 177.144531 206.5 Z M 176 211.644531 C 177.578125 211.644531 178.855469 212.921875 178.855469 214.5 C 178.855469 216.078125 177.578125 217.355469 176 217.355469 C 174.421875 217.355469 173.144531 216.078125 173.144531 214.5 C 173.144531 212.921875 174.421875 211.644531 176 211.644531 Z M 176 211.644531 " transform="matrix(1,0,0,1,8,-156)"/>
</g>
<mask id="mask5">
  <g filter="url(#alpha)">
<rect x="0" y="0" width="64" height="64" style="fill:rgb(0%,0%,0%);fill-opacity:0.07;stroke:none;"/>
  </g>
</mask>
<linearGradient id="linear10" gradientUnits="userSpaceOnUse" x1="12.00002" y1="25.256426" x2="36.000019" y2="25.256426" gradientTransform="matrix(0.666666,0,0,0.666667,167.999985,41.662384)">
<stop offset="0" style="stop-color:rgb(50.196081%,50.196081%,50.196081%);stop-opacity:1;"/>
<stop offset="0.873267" style="stop-color:rgb(42.745098%,42.745098%,42.745098%);stop-opacity:1;"/>
<stop offset="1" style="stop-color:rgb(30.980393%,31.37255%,32.549021%);stop-opacity:1;"/>
</linearGradient>
<clipPath id="clip6">
  <rect x="0" y="0" width="210" height="150"/>
</clipPath>
<g id="surface2754" clip-path="url(#clip6)">
<path style=" stroke:none;fill-rule:nonzero;fill:url(#linear10);" d="M 182.855469 50.5 C 182.652344 50.5 182.480469 51.292969 182.378906 52.429688 C 181.847656 52.574219 181.335938 52.789062 180.859375 53.066406 C 179.984375 52.332031 179.296875 51.890625 179.152344 52.035156 L 177.535156 53.652344 C 177.390625 53.796875 177.832031 54.484375 178.566406 55.359375 C 178.292969 55.835938 178.078125 56.347656 177.933594 56.878906 C 176.796875 56.980469 176 57.152344 176 57.355469 L 176 59.644531 C 176 59.847656 176.792969 60.019531 177.929688 60.121094 C 178.074219 60.652344 178.289062 61.164062 178.566406 61.644531 C 177.832031 62.519531 177.390625 63.203125 177.535156 63.347656 L 179.152344 64.964844 C 179.296875 65.109375 179.980469 64.667969 180.855469 63.9375 C 181.332031 64.210938 181.847656 64.421875 182.378906 64.566406 C 182.480469 65.703125 182.652344 66.5 182.855469 66.5 L 185.144531 66.5 C 185.347656 66.5 185.519531 65.707031 185.621094 64.570312 C 186.152344 64.425781 186.664062 64.210938 187.140625 63.933594 C 188.015625 64.667969 188.703125 65.109375 188.847656 64.964844 L 190.464844 63.347656 C 190.609375 63.203125 190.167969 62.515625 189.433594 61.640625 C 189.707031 61.164062 189.921875 60.652344 190.066406 60.121094 C 191.203125 60.019531 192 59.847656 192 59.644531 L 192 57.355469 C 192 57.152344 191.207031 56.980469 190.070312 56.878906 C 189.925781 56.347656 189.710938 55.835938 189.433594 55.355469 C 190.167969 54.480469 190.609375 53.796875 190.464844 53.652344 L 188.847656 52.035156 C 188.703125 51.890625 188.019531 52.332031 187.144531 53.0625 C 186.667969 52.789062 186.152344 52.578125 185.621094 52.433594 C 185.519531 51.296875 185.347656 50.5 185.144531 50.5 Z M 184 55.644531 C 185.578125 55.644531 186.855469 56.921875 186.855469 58.5 C 186.855469 60.078125 185.578125 61.355469 184 61.355469 C 182.421875 61.355469 181.144531 60.078125 181.144531 58.5 C 181.144531 56.921875 182.421875 55.644531 184 55.644531 Z M 184 55.644531 "/>
</g>
<mask id="mask6">
  <g filter="url(#alpha)">
<rect x="0" y="0" width="64" height="64" style="fill:rgb(0%,0%,0%);fill-opacity:0.4;stroke:none;"/>
  </g>
</mask>
<linearGradient id="linear11" gradientUnits="userSpaceOnUse" x1="63.397362" y1="-12.489107" x2="63.397362" y2="5.46756" gradientTransform="matrix(5.544034,0,0,5.617177,-281.438812,262.000671)">
<stop offset="0" style="stop-color:rgb(100%,100%,100%);stop-opacity:1;"/>
<stop offset="1" style="stop-color:rgb(100%,100%,100%);stop-opacity:0;"/>
</linearGradient>
<clipPath id="clip7">
  <rect x="0" y="0" width="210" height="150"/>
</clipPath>
<g id="surface2757" clip-path="url(#clip7)">
<path style="fill:none;stroke-width:0.999171;stroke-linecap:butt;stroke-linejoin:miter;stroke:url(#linear11);stroke-miterlimit:4;" d="M 113.484375 242.277344 C 113.484375 269.410156 91.578125 293.285156 63.402344 293.050781 C 34.410156 292.804688 13.621094 269.40625 13.28125 242.277344 C 12.933594 214.320312 36.160156 191.398438 63.402344 191.515625 C 90.179688 191.628906 113.484375 213.375 113.484375 242.277344 Z M 113.484375 242.277344 " transform="matrix(1,0,0,1,8,-156)"/>
</g>
<mask id="mask7">
  <g filter="url(#alpha)">
<rect x="0" y="0" width="64" height="64" style="fill:rgb(0%,0%,0%);fill-opacity:0.07;stroke:none;"/>
  </g>
</mask>
<mask id="mask8">
  <g filter="url(#alpha)">
<rect x="0" y="0" width="210" height="150" style="fill:rgb(0%,0%,0%);fill-opacity:0.1;stroke:none;"/>
  </g>
</mask>
<linearGradient id="linear12" gradientUnits="userSpaceOnUse" x1="-119.958092" y1="49.571362" x2="-62.211788" y2="49.571362" gradientTransform="matrix(1,0,0,1,0,0.000000000000007105)">
<stop offset="0" style="stop-color:rgb(100%,100%,100%);stop-opacity:1;"/>
<stop offset="0.499157" style="stop-color:rgb(100%,100%,100%);stop-opacity:1;"/>
<stop offset="0.499157" style="stop-color:rgb(0%,0%,0%);stop-opacity:1;"/>
<stop offset="1" style="stop-color:rgb(0%,0%,0%);stop-opacity:1;"/>
</linearGradient>
<clipPath id="clip9">
  <rect x="0" y="0" width="210" height="150"/>
</clipPath>
<g id="surface2761" clip-path="url(#clip9)">
<path style="fill:none;stroke-width:1.73826;stroke-linecap:butt;stroke-linejoin:miter;stroke:url(#linear12);stroke-miterlimit:4;" d="M -95.08428 21.889591 C -95.804134 21.889591 -96.404675 24.673433 -96.758637 28.644621 C -98.619917 29.154056 -100.405633 29.90417 -102.072036 30.878916 C -105.142353 28.307672 -107.544518 26.751287 -108.053587 27.260722 L -113.712993 32.924679 C -114.226038 33.434114 -112.670994 35.832872 -110.097814 38.901518 C -111.064248 40.570219 -111.807964 42.359259 -112.313055 44.220503 C -116.298105 44.573497 -119.086048 45.171181 -119.086048 45.893215 L -119.086048 53.891749 C -119.086048 54.609772 -116.306059 55.211467 -112.332941 55.564461 C -111.82785 57.429716 -111.076179 59.222768 -110.105768 60.891469 C -112.670994 63.956103 -114.222061 66.35085 -113.712993 66.860285 L -108.053587 72.52023 C -107.544518 73.029665 -105.154284 71.481303 -102.091921 68.918082 C -100.417564 69.884806 -98.623894 70.622885 -96.758637 71.116275 C -96.404675 75.103508 -95.804134 77.891362 -95.08428 77.891362 L -87.086342 77.891362 C -86.366487 77.891362 -85.765946 75.111531 -85.411985 71.136331 C -83.550704 70.630908 -81.764988 69.876783 -80.098586 68.902037 C -77.024291 71.477292 -74.626103 73.029665 -74.117035 72.52023 L -68.457628 66.860285 C -67.944583 66.35085 -69.499627 63.952092 -72.072808 60.879435 C -71.106374 59.210734 -70.35868 57.425705 -69.857566 55.564461 C -65.872517 55.211467 -63.084573 54.613783 -63.084573 53.891749 L -63.084573 45.893215 C -63.084573 45.171181 -65.864562 44.573497 -69.83768 44.220503 C -70.342771 42.355248 -71.090465 40.562196 -72.064854 38.893495 C -69.49565 35.82485 -67.944583 33.434114 -68.457628 32.924679 L -74.117035 27.260722 C -74.626103 26.755299 -77.016337 28.299649 -80.0787 30.862871 C -81.753057 29.900158 -83.546727 29.162079 -85.411985 28.664678 C -85.765946 24.681456 -86.36251 21.889591 -87.086342 21.889591 Z M -91.083322 39.892309 C -85.563114 39.892309 -81.084905 44.368921 -81.084905 49.892482 C -81.084905 55.416043 -85.563114 59.892655 -91.083322 59.892655 C -96.607507 59.892655 -101.085716 55.416043 -101.085716 49.892482 C -101.085716 44.368921 -96.607507 39.892309 -91.083322 39.892309 Z M -91.083322 39.892309 " transform="matrix(0.982187,0,0,0.973811,160.964737,39.890701)"/>
</g>
<linearGradient id="linear13" gradientUnits="userSpaceOnUse" x1="-119.958092" y1="49.571362" x2="-62.211788" y2="49.571362" gradientTransform="matrix(1,0,0,1,0,0.000000000000007105)">
<stop offset="0" style="stop-color:rgb(100%,100%,100%);stop-opacity:1;"/>
<stop offset="0.499157" style="stop-color:rgb(100%,100%,100%);stop-opacity:1;"/>
<stop offset="0.499157" style="stop-color:rgb(0%,0%,0%);stop-opacity:1;"/>
<stop offset="1" style="stop-color:rgb(0%,0%,0%);stop-opacity:1;"/>
</linearGradient>
<mask id="mask9">
  <g filter="url(#alpha)">
<rect x="0" y="0" width="210" height="150" style="fill:rgb(0%,0%,0%);fill-opacity:0.05;stroke:none;"/>
  </g>
</mask>
<linearGradient id="linear14" gradientUnits="userSpaceOnUse" x1="-119.958092" y1="49.571362" x2="-62.211788" y2="49.571362" gradientTransform="matrix(1,0,0,1,0,0.000000000000007105)">
<stop offset="0" style="stop-color:rgb(100%,100%,100%);stop-opacity:1;"/>
<stop offset="0.499157" style="stop-color:rgb(100%,100%,100%);stop-opacity:1;"/>
<stop offset="0.499157" style="stop-color:rgb(0%,0%,0%);stop-opacity:1;"/>
<stop offset="1" style="stop-color:rgb(0%,0%,0%);stop-opacity:1;"/>
</linearGradient>
<clipPath id="clip10">
  <rect x="0" y="0" width="210" height="150"/>
</clipPath>
<g id="surface2764" clip-path="url(#clip10)">
<path style="fill:none;stroke-width:1.0225;stroke-linecap:butt;stroke-linejoin:miter;stroke:url(#linear14);stroke-miterlimit:4;" d="M -95.004738 21.392189 C -95.0286 21.420268 -95.080303 21.484449 -95.139959 21.604788 C -95.271203 21.861511 -95.422333 22.306766 -95.561531 22.880382 C -95.831974 24.031625 -96.070599 25.704338 -96.245591 27.677898 C -96.265477 27.894508 -96.416607 28.075017 -96.627393 28.131175 C -98.444925 28.624565 -100.194847 29.362644 -101.817502 30.317334 C -102.008402 30.425639 -102.243051 30.405582 -102.410089 30.265187 C -103.933316 28.985582 -105.293483 27.9627 -106.303665 27.340948 C -106.804779 27.028067 -107.230328 26.815468 -107.508725 26.727219 C -107.632015 26.683095 -107.715534 26.675073 -107.755305 26.671061 L -113.303352 32.21869 C -113.299375 32.258803 -113.291421 32.343041 -113.247673 32.471402 C -113.1562 32.748182 -112.945414 33.169369 -112.6352 33.674793 C -112.010796 34.68564 -110.988683 36.04146 -109.712035 37.565754 C -109.572837 37.734229 -109.552951 37.966884 -109.660333 38.155416 C -110.606882 39.784004 -111.33469 41.532931 -111.823873 43.35005 C -111.883529 43.558638 -112.062498 43.711067 -112.277262 43.731124 C -114.257855 43.90361 -115.936189 44.144288 -117.089547 44.417056 C -117.666225 44.553441 -118.11166 44.701859 -118.370171 44.834232 C -118.489484 44.894401 -118.553118 44.942537 -118.584934 44.970616 L -118.584934 52.808698 C -118.557095 52.836777 -118.489484 52.888924 -118.370171 52.949093 C -118.11166 53.077455 -117.670202 53.229884 -117.093524 53.366269 C -115.944143 53.639037 -114.269786 53.879715 -112.297147 54.052201 C -112.082384 54.072258 -111.899438 54.224687 -111.843758 54.433275 C -111.350598 56.254405 -110.618813 58.007344 -109.668287 59.635932 C -109.560906 59.824463 -109.580791 60.06113 -109.719989 60.225593 C -110.996637 61.749887 -112.014773 63.105707 -112.6352 64.112544 C -112.945414 64.617968 -113.1562 65.039154 -113.247673 65.315934 C -113.291421 65.440284 -113.299375 65.524522 -113.303352 65.564635 L -107.755305 71.112264 C -107.715534 71.108252 -107.635992 71.10023 -107.508725 71.056105 C -107.234305 70.967857 -106.812733 70.755258 -106.307642 70.442376 C -105.301437 69.824636 -103.949225 68.805766 -102.429974 67.534183 C -102.262936 67.393788 -102.028288 67.373731 -101.841364 67.482036 C -100.206778 68.420681 -98.448902 69.146726 -96.627393 69.632094 C -96.416607 69.688252 -96.265477 69.86876 -96.245591 70.085371 C -96.070599 72.062942 -95.831974 73.743677 -95.561531 74.89492 C -95.422333 75.472548 -95.27518 75.917802 -95.143936 76.178537 C -95.08428 76.294864 -95.032577 76.363057 -95.004738 76.391136 L -87.165883 76.391136 C -87.138044 76.363057 -87.086342 76.298876 -87.026685 76.178537 C -86.899418 75.921813 -86.748288 75.476559 -86.60909 74.902943 C -86.334671 73.7517 -86.096045 72.078987 -85.921053 70.105427 C -85.905144 69.888817 -85.754015 69.708308 -85.543229 69.65215 C -83.725696 69.15876 -81.975774 68.420681 -80.349143 67.465991 C -80.162219 67.357686 -79.92757 67.377743 -79.760532 67.518138 C -78.237305 68.797743 -76.877139 69.820625 -75.866956 70.442376 C -75.361865 70.755258 -74.940293 70.967857 -74.661897 71.056105 C -74.538607 71.10023 -74.455088 71.108252 -74.41134 71.112264 L -68.867269 65.564635 C -68.871246 65.52051 -68.8792 65.440284 -68.918971 65.311923 C -69.014422 65.035143 -69.221231 64.613956 -69.535421 64.108532 C -70.155848 63.097685 -71.181938 61.741865 -72.458586 60.21757 C -72.597784 60.049096 -72.61767 59.81644 -72.510288 59.627909 C -71.56374 57.999321 -70.835931 56.250394 -70.342771 54.433275 C -70.287092 54.224687 -70.108123 54.072258 -69.89336 54.052201 C -67.912766 53.879715 -66.234432 53.639037 -65.081075 53.366269 C -64.504396 53.229884 -64.058961 53.081466 -63.80045 52.949093 C -63.681137 52.888924 -63.613527 52.840788 -63.585687 52.812709 L -63.585687 44.974627 C -63.613527 44.946548 -63.67716 44.894401 -63.796473 44.834232 C -64.054984 44.70587 -64.500419 44.553441 -65.077098 44.417056 C -66.222501 44.144288 -67.900835 43.90361 -69.873474 43.731124 C -70.088237 43.711067 -70.267207 43.558638 -70.326863 43.35005 C -70.816046 41.52892 -71.551808 39.775981 -72.502334 38.147393 C -72.609716 37.958862 -72.58983 37.722195 -72.450632 37.55372 C -71.173984 36.033437 -70.155848 34.677618 -69.535421 33.670781 C -69.221231 33.165357 -69.010445 32.744171 -68.918971 32.467391 C -68.8792 32.343041 -68.871246 32.258803 -68.867269 32.21869 L -74.41134 26.671061 C -74.455088 26.675073 -74.53463 26.683095 -74.661897 26.727219 C -74.936316 26.815468 -75.357888 27.028067 -75.862979 27.336937 C -76.869184 27.958689 -78.221397 28.977559 -79.740647 30.249142 C -79.907685 30.389537 -80.142334 30.409594 -80.329257 30.301289 C -81.963843 29.362644 -83.721719 28.636599 -85.543229 28.151231 C -85.750038 28.095073 -85.905144 27.914564 -85.921053 27.697954 C -86.096045 25.720383 -86.334671 24.039648 -86.60909 22.888404 C -86.748288 22.310777 -86.895441 21.865523 -87.026685 21.604788 C -87.086342 21.48846 -87.138044 21.420268 -87.165883 21.392189 Z M -95.004738 21.392189 " transform="matrix(0.982187,0,0,0.973811,160.964737,39.890701)"/>
</g>
<mask id="mask10">
  <g filter="url(#alpha)">
<rect x="0" y="0" width="210" height="150" style="fill:rgb(0%,0%,0%);fill-opacity:0.05;stroke:none;"/>
  </g>
</mask>
<linearGradient id="linear15" gradientUnits="userSpaceOnUse" x1="-119.958092" y1="49.571362" x2="-62.211788" y2="49.571362" gradientTransform="matrix(1,0,0,1,0,0.000000000000007105)">
<stop offset="0" style="stop-color:rgb(100%,100%,100%);stop-opacity:1;"/>
<stop offset="0.499157" style="stop-color:rgb(100%,100%,100%);stop-opacity:1;"/>
<stop offset="0.499157" style="stop-color:rgb(0%,0%,0%);stop-opacity:1;"/>
<stop offset="1" style="stop-color:rgb(0%,0%,0%);stop-opacity:1;"/>
</linearGradient>
<clipPath id="clip11">
  <rect x="0" y="0" width="210" height="150"/>
</clipPath>
<g id="surface2767" clip-path="url(#clip11)">
<path style="fill:none;stroke-width:1.0225;stroke-linecap:butt;stroke-linejoin:miter;stroke:url(#linear15);stroke-miterlimit:4;" d="M -91.087299 59.387231 C -84.902916 59.583785 -79.605426 53.406382 -80.742875 47.313216 C -81.478638 41.372479 -87.953348 37.08841 -93.700251 38.757111 C -99.522718 40.088863 -103.137897 46.948187 -100.918678 52.50785 C -99.486924 56.559264 -95.386539 59.447401 -91.087299 59.387231 Z M -91.087299 59.387231 " transform="matrix(0.982187,0,0,0.973811,160.964737,39.890701)"/>
</g>
<clipPath id="clip8">
  <rect x="0" y="0" width="210" height="150"/>
</clipPath>
<g id="surface2769" clip-path="url(#clip8)">
<use xlink:href="#surface2761" mask="url(#mask8)"/>
<path style="fill:none;stroke-width:1.0225;stroke-linecap:butt;stroke-linejoin:miter;stroke:url(#linear13);stroke-miterlimit:4;" d="M -95.08428 20.890777 C -95.804134 20.890777 -96.404675 23.670608 -96.758637 27.645807 C -98.619917 28.155243 -100.405633 28.905356 -102.072036 29.880102 C -105.142353 27.304847 -107.544518 25.752473 -108.053587 26.261909 L -113.712993 31.921854 C -114.226038 32.431289 -112.670994 34.834059 -110.097814 37.902704 C -111.064248 39.571405 -111.807964 41.356434 -112.313055 43.221689 C -116.298105 43.570672 -119.086048 44.172367 -119.086048 44.89039 L -119.086048 52.892935 C -119.086048 53.610958 -116.306059 54.212653 -112.332941 54.561636 C -111.82785 56.430902 -111.076179 58.219943 -110.105768 59.892655 C -112.670994 62.957289 -114.222061 65.352036 -113.712993 65.861471 L -108.053587 71.521416 C -107.544518 72.030852 -105.154284 70.482489 -102.091921 67.919268 C -100.417564 68.88198 -98.623894 69.624071 -96.758637 70.117461 C -96.404675 74.104694 -95.804134 76.892548 -95.08428 76.892548 L -87.086342 76.892548 C -86.366487 76.892548 -85.765946 74.112717 -85.411985 70.137518 C -83.550704 69.628082 -81.764988 68.877969 -80.098586 67.903223 C -77.024291 70.478478 -74.626103 72.030852 -74.117035 71.521416 L -68.457628 65.861471 C -67.944583 65.348024 -69.499627 62.949266 -72.072808 59.880621 C -71.106374 58.21192 -70.35868 56.426891 -69.857566 54.561636 C -65.872517 54.212653 -63.084573 53.610958 -63.084573 52.892935 L -63.084573 44.89039 C -63.084573 44.172367 -65.864562 43.570672 -69.83768 43.221689 C -70.342771 41.352422 -71.090465 39.563382 -72.064854 37.89067 C -69.49565 34.826036 -67.944583 32.431289 -68.457628 31.921854 L -74.117035 26.261909 C -74.626103 25.752473 -77.016337 27.300835 -80.0787 29.864057 C -81.753057 28.901344 -83.546727 28.159254 -85.411985 27.665864 C -85.765946 23.678631 -86.36251 20.890777 -87.086342 20.890777 Z M -91.083322 38.893495 C -85.563114 38.893495 -81.084905 43.370107 -81.084905 48.889657 C -81.084905 54.413218 -85.563114 58.88983 -91.083322 58.88983 C -96.607507 58.88983 -101.085716 54.413218 -101.085716 48.889657 C -101.085716 43.370107 -96.607507 38.893495 -91.083322 38.893495 Z M -91.083322 38.893495 " transform="matrix(0.982187,0,0,0.973811,160.964737,39.890701)"/>
<use xlink:href="#surface2764" mask="url(#mask9)"/>
<use xlink:href="#surface2767" mask="url(#mask10)"/>
</g>
<mask id="mask11">
  <g filter="url(#alpha)">
<rect x="0" y="0" width="64" height="64" style="fill:rgb(0%,0%,0%);fill-opacity:0.15;stroke:none;"/>
  </g>
</mask>
<mask id="mask12">
  <g filter="url(#alpha)">
<rect x="0" y="0" width="210" height="150" style="fill:rgb(0%,0%,0%);fill-opacity:0.1;stroke:none;"/>
  </g>
</mask>
<linearGradient id="linear16" gradientUnits="userSpaceOnUse" x1="-119.084938" y1="49.391594" x2="-63.084942" y2="49.391594" gradientTransform="matrix(0.982187,0,0,0.973811,160.964737,39.890701)">
<stop offset="0" style="stop-color:rgb(100%,100%,100%);stop-opacity:1;"/>
<stop offset="0.517857" style="stop-color:rgb(99.607843%,99.607843%,99.607843%);stop-opacity:0.513726;"/>
<stop offset="0.517857" style="stop-color:rgb(12.941177%,12.941177%,12.941177%);stop-opacity:0.443137;"/>
<stop offset="1" style="stop-color:rgb(10.196079%,10.196079%,10.196079%);stop-opacity:0;"/>
</linearGradient>
<clipPath id="clip13">
  <rect x="0" y="0" width="210" height="150"/>
</clipPath>
<g id="surface2773" clip-path="url(#clip13)">
<path style=" stroke:none;fill-rule:nonzero;fill:url(#linear16);" d="M 67.574219 61.207031 C 66.867188 61.207031 66.277344 63.917969 65.929688 67.785156 C 64.101562 68.28125 62.347656 69.011719 60.710938 69.960938 C 57.695312 67.457031 55.335938 65.941406 54.835938 66.4375 L 49.277344 71.953125 C 48.773438 72.449219 50.300781 74.785156 52.828125 77.773438 C 51.878906 79.398438 51.148438 81.140625 50.652344 82.953125 C 46.738281 83.296875 44 83.878906 44 84.582031 L 44 92.371094 C 44 93.070312 46.730469 93.65625 50.632812 94 C 51.128906 95.816406 51.867188 97.5625 52.820312 99.1875 C 50.300781 102.171875 48.777344 104.503906 49.277344 105 L 54.835938 110.511719 C 55.335938 111.007812 57.683594 109.5 60.691406 107.003906 C 62.335938 107.945312 64.097656 108.664062 65.929688 109.144531 C 66.277344 113.027344 66.867188 115.742188 67.574219 115.742188 L 75.429688 115.742188 C 76.136719 115.742188 76.726562 113.035156 77.074219 109.164062 C 78.902344 108.671875 80.65625 107.9375 82.292969 106.988281 C 85.3125 109.496094 87.667969 111.007812 88.167969 110.511719 L 93.726562 105 C 94.230469 104.503906 92.703125 102.167969 90.175781 99.175781 C 91.125 97.550781 91.859375 95.8125 92.351562 94 C 96.265625 93.65625 99.003906 93.074219 99.003906 92.371094 L 99.003906 84.582031 C 99.003906 83.878906 96.273438 83.296875 92.371094 82.953125 C 91.875 81.136719 91.140625 79.390625 90.183594 77.765625 C 92.707031 74.777344 94.230469 72.449219 93.726562 71.953125 L 88.167969 66.4375 C 87.667969 65.945312 85.320312 67.449219 82.3125 69.945312 C 80.667969 69.007812 78.90625 68.289062 77.074219 67.804688 C 76.726562 63.925781 76.140625 61.207031 75.429688 61.207031 Z M 71.503906 78.738281 C 76.925781 78.738281 81.324219 83.097656 81.324219 88.476562 C 81.324219 93.855469 76.925781 98.214844 71.503906 98.214844 C 66.078125 98.214844 61.679688 93.855469 61.679688 88.476562 C 61.679688 83.097656 66.078125 78.738281 71.503906 78.738281 Z M 71.503906 78.738281 "/>
</g>
<linearGradient id="linear17" gradientUnits="userSpaceOnUse" x1="-119.084938" y1="49.391594" x2="-63.084942" y2="49.391594" gradientTransform="matrix(0.982187,0,0,0.973811,160.964737,39.890701)">
<stop offset="0" style="stop-color:rgb(100%,100%,100%);stop-opacity:1;"/>
<stop offset="0.483719" style="stop-color:rgb(100%,100%,100%);stop-opacity:0.513726;"/>
<stop offset="0.552204" style="stop-color:rgb(12.941177%,12.941177%,12.941177%);stop-opacity:0.443137;"/>
<stop offset="1" style="stop-color:rgb(10.196079%,10.196079%,10.196079%);stop-opacity:0;"/>
</linearGradient>
<mask id="mask13">
  <g filter="url(#alpha)">
<rect x="0" y="0" width="210" height="150" style="fill:rgb(0%,0%,0%);fill-opacity:0.05;stroke:none;"/>
  </g>
</mask>
<linearGradient id="linear18" gradientUnits="userSpaceOnUse" x1="-119.084938" y1="49.391594" x2="-63.084942" y2="49.391594" gradientTransform="matrix(0.982187,0,0,0.973811,160.964737,39.890701)">
<stop offset="0" style="stop-color:rgb(100%,100%,100%);stop-opacity:1;"/>
<stop offset="0.483719" style="stop-color:rgb(100%,100%,100%);stop-opacity:0.513726;"/>
<stop offset="0.552204" style="stop-color:rgb(12.941177%,12.941177%,12.941177%);stop-opacity:0.443137;"/>
<stop offset="1" style="stop-color:rgb(10.196079%,10.196079%,10.196079%);stop-opacity:0;"/>
</linearGradient>
<clipPath id="clip14">
  <rect x="0" y="0" width="210" height="150"/>
</clipPath>
<g id="surface2776" clip-path="url(#clip14)">
<path style=" stroke:none;fill-rule:nonzero;fill:url(#linear18);" d="M 67.652344 60.722656 C 67.628906 60.75 67.578125 60.8125 67.519531 60.929688 C 67.390625 61.179688 67.242188 61.613281 67.105469 62.171875 C 66.839844 63.292969 66.605469 64.921875 66.433594 66.84375 C 66.414062 67.054688 66.265625 67.230469 66.058594 67.285156 C 64.273438 67.765625 62.554688 68.484375 60.960938 69.414062 C 60.773438 69.519531 60.542969 69.5 60.378906 69.363281 C 58.882812 68.117188 57.546875 67.121094 56.554688 66.515625 C 56.0625 66.210938 55.644531 66.003906 55.371094 65.917969 C 55.25 65.875 55.167969 65.867188 55.128906 65.863281 L 49.679688 71.265625 C 49.683594 71.304688 49.691406 71.386719 49.734375 71.511719 C 49.824219 71.78125 50.03125 72.191406 50.335938 72.683594 C 50.949219 73.667969 51.953125 74.988281 53.207031 76.472656 C 53.34375 76.636719 53.363281 76.863281 53.257812 77.046875 C 52.328125 78.632812 51.613281 80.335938 51.132812 82.105469 C 51.074219 82.308594 50.898438 82.457031 50.6875 82.476562 C 48.742188 82.644531 47.09375 82.878906 45.960938 83.144531 C 45.394531 83.277344 44.957031 83.421875 44.703125 83.550781 C 44.585938 83.609375 44.523438 83.65625 44.492188 83.683594 L 44.492188 91.316406 C 44.519531 91.34375 44.585938 91.394531 44.703125 91.453125 C 44.957031 91.578125 45.390625 91.726562 45.957031 91.859375 C 47.085938 92.125 48.730469 92.359375 50.667969 92.527344 C 50.878906 92.546875 51.058594 92.695312 51.113281 92.898438 C 51.597656 94.671875 52.316406 96.378906 53.25 97.964844 C 53.355469 98.148438 53.335938 98.378906 53.199219 98.539062 C 51.945312 100.023438 50.945312 101.34375 50.335938 102.324219 C 50.03125 102.816406 49.824219 103.226562 49.734375 103.496094 C 49.691406 103.617188 49.683594 103.699219 49.679688 103.738281 L 55.128906 109.140625 C 55.167969 109.136719 55.246094 109.128906 55.371094 109.085938 C 55.640625 109 56.054688 108.792969 56.550781 108.488281 C 57.539062 107.886719 58.867188 106.894531 60.359375 105.65625 C 60.523438 105.519531 60.753906 105.5 60.9375 105.605469 C 62.542969 106.519531 64.269531 107.226562 66.058594 107.699219 C 66.265625 107.753906 66.414062 107.929688 66.433594 108.140625 C 66.605469 110.066406 66.839844 111.703125 67.105469 112.824219 C 67.242188 113.386719 67.386719 113.820312 67.515625 114.074219 C 67.574219 114.1875 67.625 114.253906 67.652344 114.28125 L 75.351562 114.28125 C 75.378906 114.253906 75.429688 114.191406 75.488281 114.074219 C 75.613281 113.824219 75.761719 113.390625 75.898438 112.832031 C 76.167969 111.710938 76.402344 110.082031 76.574219 108.160156 C 76.589844 107.949219 76.738281 107.773438 76.945312 107.71875 C 78.730469 107.238281 80.449219 106.519531 82.046875 105.589844 C 82.230469 105.484375 82.460938 105.503906 82.625 105.640625 C 84.121094 106.886719 85.457031 107.882812 86.449219 108.488281 C 86.945312 108.792969 87.359375 109 87.632812 109.085938 C 87.753906 109.128906 87.835938 109.136719 87.878906 109.140625 L 93.324219 103.738281 C 93.320312 103.695312 93.3125 103.617188 93.273438 103.492188 C 93.179688 103.222656 92.976562 102.8125 92.667969 102.320312 C 92.058594 101.335938 91.050781 100.015625 89.796875 98.53125 C 89.660156 98.367188 89.640625 98.140625 89.746094 97.957031 C 90.675781 96.371094 91.390625 94.667969 91.875 92.898438 C 91.929688 92.695312 92.105469 92.546875 92.316406 92.527344 C 94.261719 92.359375 95.910156 92.125 97.042969 91.859375 C 97.609375 91.726562 98.046875 91.582031 98.300781 91.453125 C 98.417969 91.394531 98.484375 91.347656 98.511719 91.320312 L 98.511719 83.6875 C 98.484375 83.660156 98.421875 83.609375 98.304688 83.550781 C 98.050781 83.425781 97.613281 83.277344 97.046875 83.144531 C 95.921875 82.878906 94.273438 82.644531 92.335938 82.476562 C 92.125 82.457031 91.949219 82.308594 91.890625 82.105469 C 91.410156 80.332031 90.6875 78.625 89.753906 77.039062 C 89.648438 76.855469 89.667969 76.625 89.804688 76.460938 C 91.058594 74.980469 92.058594 73.660156 92.667969 72.679688 C 92.976562 72.1875 93.183594 71.777344 93.273438 71.507812 C 93.3125 71.386719 93.320312 71.304688 93.324219 71.265625 L 87.878906 65.863281 C 87.835938 65.867188 87.757812 65.875 87.632812 65.917969 C 87.363281 66.003906 86.949219 66.210938 86.453125 66.511719 C 85.464844 67.117188 84.136719 68.109375 82.644531 69.347656 C 82.480469 69.484375 82.25 69.503906 82.066406 69.398438 C 80.460938 68.484375 78.734375 67.777344 76.945312 67.304688 C 76.742188 67.25 76.589844 67.074219 76.574219 66.863281 C 76.402344 64.9375 76.167969 63.300781 75.898438 62.179688 C 75.761719 61.617188 75.617188 61.183594 75.488281 60.929688 C 75.429688 60.816406 75.378906 60.75 75.351562 60.722656 Z M 67.652344 60.722656 "/>
</g>
<mask id="mask14">
  <g filter="url(#alpha)">
<rect x="0" y="0" width="210" height="150" style="fill:rgb(0%,0%,0%);fill-opacity:0.05;stroke:none;"/>
  </g>
</mask>
<linearGradient id="linear19" gradientUnits="userSpaceOnUse" x1="-119.084938" y1="49.391594" x2="-63.084942" y2="49.391594" gradientTransform="matrix(0.982187,0,0,0.973811,160.964737,39.890701)">
<stop offset="0" style="stop-color:rgb(100%,100%,100%);stop-opacity:1;"/>
<stop offset="0.483719" style="stop-color:rgb(100%,100%,100%);stop-opacity:0.513726;"/>
<stop offset="0.552204" style="stop-color:rgb(12.941177%,12.941177%,12.941177%);stop-opacity:0.443137;"/>
<stop offset="1" style="stop-color:rgb(10.196079%,10.196079%,10.196079%);stop-opacity:0;"/>
</linearGradient>
<clipPath id="clip15">
  <rect x="0" y="0" width="210" height="150"/>
</clipPath>
<g id="surface2779" clip-path="url(#clip15)">
<path style=" stroke:none;fill-rule:nonzero;fill:url(#linear19);" d="M 71.5 97.722656 C 77.574219 97.914062 82.777344 91.898438 81.660156 85.964844 C 80.9375 80.179688 74.578125 76.007812 68.933594 77.632812 C 63.214844 78.929688 59.664062 85.609375 61.84375 91.023438 C 63.25 94.96875 67.277344 97.78125 71.5 97.722656 Z M 71.5 97.722656 "/>
</g>
<clipPath id="clip12">
  <rect x="0" y="0" width="210" height="150"/>
</clipPath>
<g id="surface2781" clip-path="url(#clip12)">
<use xlink:href="#surface2773" mask="url(#mask12)"/>
<path style=" stroke:none;fill-rule:nonzero;fill:url(#linear17);" d="M 67.574219 60.234375 C 66.867188 60.234375 66.277344 62.941406 65.929688 66.8125 C 64.101562 67.308594 62.347656 68.039062 60.710938 68.988281 C 57.695312 66.480469 55.335938 64.96875 54.835938 65.464844 L 49.277344 70.976562 C 48.773438 71.472656 50.300781 73.8125 52.828125 76.800781 C 51.878906 78.425781 51.148438 80.164062 50.652344 81.980469 C 46.738281 82.320312 44 82.90625 44 83.605469 L 44 91.398438 C 44 92.097656 46.730469 92.683594 50.632812 93.023438 C 51.128906 94.84375 51.867188 96.585938 52.820312 98.214844 C 50.300781 101.199219 48.777344 103.53125 49.277344 104.027344 L 54.835938 109.539062 C 55.335938 110.035156 57.683594 108.527344 60.691406 106.03125 C 62.335938 106.96875 64.097656 107.691406 65.929688 108.171875 C 66.277344 112.054688 66.867188 114.769531 67.574219 114.769531 L 75.429688 114.769531 C 76.136719 114.769531 76.726562 112.0625 77.074219 108.191406 C 78.902344 107.695312 80.65625 106.964844 82.292969 106.015625 C 85.3125 108.523438 87.667969 110.035156 88.167969 109.539062 L 93.726562 104.027344 C 94.230469 103.527344 92.703125 101.191406 90.175781 98.203125 C 91.125 96.578125 91.859375 94.839844 92.351562 93.023438 C 96.265625 92.683594 99.003906 92.097656 99.003906 91.398438 L 99.003906 83.605469 C 99.003906 82.90625 96.273438 82.320312 92.371094 81.980469 C 91.875 80.160156 91.140625 78.417969 90.183594 76.789062 C 92.707031 73.804688 94.230469 71.472656 93.726562 70.976562 L 88.167969 65.464844 C 87.667969 64.96875 85.320312 66.476562 82.3125 68.972656 C 80.667969 68.035156 78.90625 67.3125 77.074219 66.832031 C 76.726562 62.949219 76.140625 60.234375 75.429688 60.234375 Z M 71.503906 77.765625 C 76.925781 77.765625 81.324219 82.125 81.324219 87.5 C 81.324219 92.878906 76.925781 97.238281 71.503906 97.238281 C 66.078125 97.238281 61.679688 92.878906 61.679688 87.5 C 61.679688 82.125 66.078125 77.765625 71.503906 77.765625 Z M 71.503906 77.765625 "/>
<use xlink:href="#surface2776" mask="url(#mask13)"/>
<use xlink:href="#surface2779" mask="url(#mask14)"/>
</g>
<mask id="mask15">
  <g filter="url(#alpha)">
<rect x="0" y="0" width="64" height="64" style="fill:rgb(0%,0%,0%);fill-opacity:0.1;stroke:none;"/>
  </g>
</mask>
<linearGradient id="linear20" gradientUnits="userSpaceOnUse" x1="-119.084938" y1="49.391594" x2="-63.084942" y2="49.391594" gradientTransform="matrix(0.982187,0,0,0.973811,160.964737,38.881485)">
<stop offset="0" style="stop-color:rgb(100%,100%,100%);stop-opacity:1;"/>
<stop offset="0.499157" style="stop-color:rgb(100%,100%,100%);stop-opacity:1;"/>
<stop offset="0.499157" style="stop-color:rgb(30.19608%,30.19608%,30.19608%);stop-opacity:1;"/>
<stop offset="1" style="stop-color:rgb(30.19608%,30.19608%,30.19608%);stop-opacity:1;"/>
</linearGradient>
<clipPath id="clip16">
  <rect x="0" y="0" width="210" height="150"/>
</clipPath>
<g id="surface2784" clip-path="url(#clip16)">
<path style=" stroke:none;fill-rule:nonzero;fill:url(#linear20);" d="M 67.574219 60.199219 C 66.867188 60.199219 66.277344 62.90625 65.929688 66.777344 C 64.101562 67.273438 62.347656 68.003906 60.710938 68.953125 C 57.695312 66.445312 55.335938 64.933594 54.835938 65.429688 L 49.277344 70.941406 C 48.773438 71.4375 50.300781 73.773438 52.828125 76.765625 C 51.878906 78.390625 51.148438 80.128906 50.652344 81.941406 C 46.738281 82.285156 44 82.867188 44 83.570312 L 44 91.363281 C 44 92.0625 46.730469 92.648438 50.632812 92.988281 C 51.128906 94.808594 51.867188 96.550781 52.820312 98.179688 C 50.300781 101.164062 48.777344 103.496094 49.277344 103.992188 L 54.835938 109.503906 C 55.335938 110 57.683594 108.492188 60.691406 105.996094 C 62.335938 106.933594 64.097656 107.65625 65.929688 108.136719 C 66.277344 112.015625 66.867188 114.734375 67.574219 114.734375 L 75.429688 114.734375 C 76.136719 114.734375 76.726562 112.027344 77.074219 108.15625 C 78.902344 107.660156 80.65625 106.929688 82.292969 105.980469 C 85.3125 108.488281 87.667969 110 88.167969 109.503906 L 93.726562 103.992188 C 94.230469 103.492188 92.703125 101.15625 90.175781 98.167969 C 91.125 96.542969 91.859375 94.800781 92.351562 92.988281 C 96.265625 92.648438 99.003906 92.0625 99.003906 91.363281 L 99.003906 83.570312 C 99.003906 82.871094 96.273438 82.285156 92.371094 81.941406 C 91.875 80.125 91.140625 78.382812 90.183594 76.753906 C 92.707031 73.769531 94.230469 71.4375 93.726562 70.941406 L 88.167969 65.429688 C 87.667969 64.933594 85.320312 66.441406 82.3125 68.9375 C 80.667969 68 78.90625 67.277344 77.074219 66.796875 C 76.726562 62.914062 76.140625 60.199219 75.429688 60.199219 Z M 71.503906 77.726562 C 76.925781 77.726562 81.324219 82.089844 81.324219 87.464844 C 81.324219 92.84375 76.925781 97.203125 71.503906 97.203125 C 66.078125 97.203125 61.679688 92.84375 61.679688 87.464844 C 61.679688 82.089844 66.078125 77.726562 71.503906 77.726562 Z M 71.503906 77.726562 "/>
</g>
<mask id="mask16">
  <g filter="url(#alpha)">
<rect x="0" y="0" width="64" height="64" style="fill:rgb(0%,0%,0%);fill-opacity:0.05;stroke:none;"/>
  </g>
</mask>
<linearGradient id="linear21" gradientUnits="userSpaceOnUse" x1="-119.084938" y1="49.391594" x2="-63.084942" y2="49.391594" gradientTransform="matrix(0.982187,0,0,0.973811,160.964737,38.881485)">
<stop offset="0" style="stop-color:rgb(100%,100%,100%);stop-opacity:1;"/>
<stop offset="0.499157" style="stop-color:rgb(100%,100%,100%);stop-opacity:1;"/>
<stop offset="0.499157" style="stop-color:rgb(30.19608%,30.19608%,30.19608%);stop-opacity:1;"/>
<stop offset="1" style="stop-color:rgb(30.19608%,30.19608%,30.19608%);stop-opacity:1;"/>
</linearGradient>
<clipPath id="clip17">
  <rect x="0" y="0" width="210" height="150"/>
</clipPath>
<g id="surface2787" clip-path="url(#clip17)">
<path style=" stroke:none;fill-rule:nonzero;fill:url(#linear21);" d="M 67.652344 59.710938 C 67.628906 59.742188 67.578125 59.804688 67.519531 59.921875 C 67.390625 60.171875 67.242188 60.605469 67.105469 61.164062 C 66.839844 62.28125 66.605469 63.914062 66.433594 65.835938 C 66.414062 66.042969 66.265625 66.21875 66.058594 66.273438 C 64.273438 66.757812 62.554688 67.476562 60.960938 68.402344 C 60.773438 68.507812 60.542969 68.488281 60.378906 68.355469 C 58.882812 67.109375 57.546875 66.113281 56.554688 65.507812 C 56.0625 65.203125 55.644531 64.996094 55.371094 64.90625 C 55.25 64.867188 55.167969 64.859375 55.128906 64.855469 L 49.679688 70.257812 C 49.683594 70.296875 49.691406 70.378906 49.734375 70.5 C 49.824219 70.769531 50.03125 71.183594 50.335938 71.675781 C 50.949219 72.65625 51.953125 73.980469 53.207031 75.464844 C 53.34375 75.625 53.363281 75.855469 53.257812 76.039062 C 52.328125 77.621094 51.613281 79.328125 51.132812 81.097656 C 51.074219 81.300781 50.898438 81.449219 50.6875 81.464844 C 48.742188 81.636719 47.09375 81.867188 45.960938 82.136719 C 45.394531 82.269531 44.957031 82.414062 44.703125 82.539062 C 44.585938 82.597656 44.523438 82.648438 44.492188 82.675781 L 44.492188 90.308594 C 44.519531 90.335938 44.585938 90.382812 44.703125 90.441406 C 44.957031 90.570312 45.390625 90.71875 45.957031 90.851562 C 47.085938 91.117188 48.730469 91.347656 50.667969 91.519531 C 50.878906 91.539062 51.058594 91.683594 51.113281 91.886719 C 51.597656 93.660156 52.316406 95.371094 53.25 96.957031 C 53.355469 97.140625 53.335938 97.371094 53.199219 97.53125 C 51.945312 99.015625 50.945312 100.332031 50.335938 101.316406 C 50.03125 101.804688 49.824219 102.21875 49.734375 102.488281 C 49.691406 102.609375 49.683594 102.6875 49.679688 102.726562 L 55.128906 108.128906 C 55.167969 108.128906 55.246094 108.117188 55.371094 108.078125 C 55.640625 107.988281 56.054688 107.78125 56.550781 107.480469 C 57.539062 106.875 58.867188 105.886719 60.359375 104.648438 C 60.523438 104.511719 60.753906 104.492188 60.9375 104.59375 C 62.542969 105.511719 64.269531 106.21875 66.058594 106.691406 C 66.265625 106.746094 66.414062 106.921875 66.433594 107.132812 C 66.605469 109.058594 66.839844 110.691406 67.105469 111.816406 C 67.242188 112.375 67.386719 112.808594 67.515625 113.0625 C 67.574219 113.179688 67.625 113.242188 67.652344 113.273438 L 75.351562 113.273438 C 75.378906 113.242188 75.429688 113.179688 75.488281 113.066406 C 75.613281 112.8125 75.761719 112.378906 75.898438 111.820312 C 76.167969 110.703125 76.402344 109.070312 76.574219 107.148438 C 76.589844 106.941406 76.738281 106.765625 76.945312 106.710938 C 78.730469 106.226562 80.449219 105.507812 82.046875 104.582031 C 82.230469 104.476562 82.460938 104.496094 82.625 104.632812 C 84.121094 105.875 85.457031 106.871094 86.449219 107.480469 C 86.945312 107.78125 87.359375 107.988281 87.632812 108.078125 C 87.753906 108.117188 87.835938 108.128906 87.878906 108.128906 L 93.324219 102.726562 C 93.320312 102.6875 93.3125 102.609375 93.273438 102.484375 C 93.179688 102.214844 92.976562 101.804688 92.667969 101.3125 C 92.058594 100.328125 91.050781 99.003906 89.796875 97.519531 C 89.660156 97.359375 89.640625 97.128906 89.746094 96.949219 C 90.675781 95.363281 91.390625 93.65625 91.875 91.886719 C 91.929688 91.683594 92.105469 91.539062 92.316406 91.519531 C 94.261719 91.347656 95.910156 91.117188 97.042969 90.851562 C 97.609375 90.71875 98.046875 90.574219 98.300781 90.445312 C 98.417969 90.386719 98.484375 90.335938 98.511719 90.308594 L 98.511719 82.675781 C 98.484375 82.652344 98.421875 82.601562 98.304688 82.542969 C 98.050781 82.414062 97.613281 82.269531 97.046875 82.136719 C 95.921875 81.867188 94.273438 81.636719 92.335938 81.464844 C 92.125 81.449219 91.949219 81.300781 91.890625 81.097656 C 91.410156 79.324219 90.6875 77.617188 89.753906 76.027344 C 89.648438 75.84375 89.667969 75.617188 89.804688 75.453125 C 91.058594 73.972656 92.058594 72.652344 92.667969 71.671875 C 92.976562 71.179688 93.183594 70.769531 93.273438 70.5 C 93.3125 70.375 93.320312 70.296875 93.324219 70.257812 L 87.878906 64.855469 C 87.835938 64.859375 87.757812 64.867188 87.632812 64.90625 C 87.363281 64.996094 86.949219 65.203125 86.453125 65.503906 C 85.464844 66.109375 84.136719 67.097656 82.644531 68.339844 C 82.480469 68.472656 82.25 68.496094 82.066406 68.390625 C 80.460938 67.472656 78.734375 66.765625 76.945312 66.296875 C 76.742188 66.242188 76.589844 66.066406 76.574219 65.855469 C 76.402344 63.925781 76.167969 62.292969 75.898438 61.167969 C 75.761719 60.609375 75.617188 60.175781 75.488281 59.921875 C 75.429688 59.804688 75.378906 59.742188 75.351562 59.710938 Z M 67.652344 59.710938 "/>
</g>
<mask id="mask17">
  <g filter="url(#alpha)">
<rect x="0" y="0" width="64" height="64" style="fill:rgb(0%,0%,0%);fill-opacity:0.05;stroke:none;"/>
  </g>
</mask>
<linearGradient id="linear22" gradientUnits="userSpaceOnUse" x1="-119.084938" y1="49.391594" x2="-63.084942" y2="49.391594" gradientTransform="matrix(0.982187,0,0,0.973811,160.964737,38.881485)">
<stop offset="0" style="stop-color:rgb(100%,100%,100%);stop-opacity:1;"/>
<stop offset="0.499157" style="stop-color:rgb(100%,100%,100%);stop-opacity:1;"/>
<stop offset="0.499157" style="stop-color:rgb(30.19608%,30.19608%,30.19608%);stop-opacity:1;"/>
<stop offset="1" style="stop-color:rgb(30.19608%,30.19608%,30.19608%);stop-opacity:1;"/>
</linearGradient>
<clipPath id="clip18">
  <rect x="0" y="0" width="210" height="150"/>
</clipPath>
<g id="surface2790" clip-path="url(#clip18)">
<path style=" stroke:none;fill-rule:nonzero;fill:url(#linear22);" d="M 71.5 96.714844 C 77.574219 96.90625 82.777344 90.886719 81.660156 84.957031 C 80.9375 79.171875 74.578125 75 68.933594 76.625 C 63.214844 77.917969 59.664062 84.601562 61.84375 90.015625 C 63.25 93.960938 67.277344 96.773438 71.5 96.714844 Z M 71.5 96.714844 "/>
</g>
</defs>
<g id="surface2735">
<path style="fill-rule:nonzero;fill:url(#linear0);stroke-width:0.935329;stroke-linecap:round;stroke-linejoin:round;stroke:url(#linear1);stroke-miterlimit:4;" d="M 164.000085 239.503613 C 148.826321 239.503613 136.500141 251.826173 136.500141 266.998278 C 136.500141 282.174023 148.826321 294.496583 164.000085 294.496583 C 179.173849 294.496583 191.496387 282.174023 191.496387 266.998278 C 191.496387 251.826173 179.173849 239.503613 164.000085 239.503613 Z M 164.000085 239.503613 " transform="matrix(1.072729,0,0,1.073362,-144.177724,-254.820084)"/>
<path style="fill-rule:nonzero;fill:url(#linear2);stroke-width:0.931927;stroke-linecap:butt;stroke-linejoin:miter;stroke:url(#linear3);stroke-miterlimit:4;" d="M 163.501211 239.514531 C 148.542291 239.889376 136.500141 252.070003 136.500141 267.001918 C 136.500141 281.930192 148.542291 294.11082 163.501211 294.485665 Z M 163.501211 239.514531 " transform="matrix(1.072729,0,0,1.073362,-144.177724,-254.820084)"/>
<use xlink:href="#surface2739" transform="matrix(1,0,0,1,-140.25,-80.25)" mask="url(#mask0)"/>
<use xlink:href="#surface2742" transform="matrix(1,0,0,1,-140.25,-80.25)" mask="url(#mask1)"/>
<use xlink:href="#surface2745" transform="matrix(1,0,0,1,-140.25,-80.25)" mask="url(#mask2)"/>
<path style=" stroke:none;fill-rule:nonzero;fill:url(#linear7);" d="M 29.296875 14.59375 C 28.855469 14.59375 28.488281 16.300781 28.273438 18.734375 C 27.132812 19.046875 26.035156 19.507812 25.015625 20.105469 C 23.132812 18.527344 21.660156 17.574219 21.347656 17.886719 L 17.878906 21.359375 C 17.566406 21.671875 18.519531 23.144531 20.097656 25.027344 C 19.503906 26.050781 19.046875 27.148438 18.738281 28.289062 C 16.296875 28.503906 14.585938 28.871094 14.585938 29.3125 L 14.585938 34.222656 C 14.585938 34.664062 16.289062 35.03125 18.726562 35.246094 C 19.035156 36.390625 19.496094 37.488281 20.089844 38.515625 C 18.515625 40.394531 17.566406 41.863281 17.878906 42.175781 L 21.347656 45.648438 C 21.660156 45.960938 23.125 45.011719 25.003906 43.4375 C 26.027344 44.027344 27.128906 44.484375 28.273438 44.785156 C 28.488281 47.230469 28.855469 48.941406 29.296875 48.941406 L 34.203125 48.941406 C 34.644531 48.941406 35.011719 47.234375 35.226562 44.796875 C 36.367188 44.488281 37.464844 44.027344 38.484375 43.429688 C 40.367188 45.007812 41.839844 45.960938 42.152344 45.648438 L 45.621094 42.175781 C 45.933594 41.863281 44.980469 40.390625 43.402344 38.507812 C 43.996094 37.484375 44.453125 36.386719 44.761719 35.246094 C 47.203125 35.03125 48.914062 34.664062 48.914062 34.222656 L 48.914062 29.3125 C 48.914062 28.871094 47.210938 28.503906 44.773438 28.289062 C 44.464844 27.144531 44.003906 26.046875 43.410156 25.019531 C 44.984375 23.140625 45.933594 21.671875 45.621094 21.359375 L 42.152344 17.886719 C 41.839844 17.574219 40.375 18.523438 38.496094 20.097656 C 37.472656 19.503906 36.371094 19.050781 35.226562 18.75 C 35.011719 16.304688 34.644531 14.59375 34.203125 14.59375 Z M 31.75 25.632812 C 35.136719 25.632812 37.878906 28.378906 37.878906 31.765625 C 37.878906 35.15625 35.136719 37.902344 31.75 37.902344 C 28.363281 37.902344 25.621094 35.15625 25.621094 31.765625 C 25.621094 28.378906 28.363281 25.632812 31.75 25.632812 Z M 31.75 25.632812 "/>
<use xlink:href="#surface2748" transform="matrix(1,0,0,1,-140.25,-80.25)" mask="url(#mask3)"/>
<use xlink:href="#surface2751" transform="matrix(1,0,0,1,-140.25,-80.25)" mask="url(#mask4)"/>
<use xlink:href="#surface2754" transform="matrix(1,0,0,1,-140.25,-80.25)" mask="url(#mask5)"/>
<use xlink:href="#surface2757" transform="matrix(1,0,0,1,-140.25,-80.25)" mask="url(#mask6)"/>
<use xlink:href="#surface2769" transform="matrix(1,0,0,1,-140.25,-80.25)" mask="url(#mask7)"/>
<use xlink:href="#surface2781" transform="matrix(1,0,0,1,-140.25,-80.25)" mask="url(#mask11)"/>
<use xlink:href="#surface2784" transform="matrix(1,0,0,1,-140.25,-80.25)" mask="url(#mask15)"/>
<use xlink:href="#surface2787" transform="matrix(1,0,0,1,-140.25,-80.25)" mask="url(#mask16)"/>
<use xlink:href="#surface2790" transform="matrix(1,0,0,1,-140.25,-80.25)" mask="url(#mask17)"/>
</g>
</svg>
