<?xml version="1.0" encoding="UTF-8" standalone="no"?>
<svg
   xmlns:dc="http://purl.org/dc/elements/1.1/"
   xmlns:cc="http://creativecommons.org/ns#"
   xmlns:rdf="http://www.w3.org/1999/02/22-rdf-syntax-ns#"
   xmlns:svg="http://www.w3.org/2000/svg"
   xmlns="http://www.w3.org/2000/svg"
   xmlns:xlink="http://www.w3.org/1999/xlink"
   xmlns:sodipodi="http://sodipodi.sourceforge.net/DTD/sodipodi-0.dtd"
   xmlns:inkscape="http://www.inkscape.org/namespaces/inkscape"
   width="64"
   height="64"
   viewBox="0 0 64 64"
   id="svg2"
   version="1.1"
   inkscape:version="1.0.1 (3bc2e813f5, 2020-09-07)"
   sodipodi:docname="com.github.lainsce.icon-previewer.svg"
   inkscape:export-filename="/home/lainsce/Documenti/Projects/khronos/data/icon.png"
   inkscape:export-xdpi="96"
   inkscape:export-ydpi="96">
  <sodipodi:namedview
     pagecolor="#ffffff"
     bordercolor="#666666"
     borderopacity="1"
     objecttolerance="10"
     gridtolerance="10"
     guidetolerance="10"
     inkscape:pageopacity="0"
     inkscape:pageshadow="2"
     inkscape:window-width="2560"
     inkscape:window-height="958"
     id="namedview40"
     showgrid="true"
     inkscape:zoom="10.429825"
     inkscape:cx="0.6728396"
     inkscape:cy="28.417363"
     inkscape:window-x="0"
     inkscape:window-y="30"
     inkscape:window-maximized="1"
     inkscape:current-layer="svg2"
     inkscape:snap-global="true"
     inkscape:document-rotation="0">
    <inkscape:grid
       type="xygrid"
       id="grid845" />
  </sodipodi:namedview>
  <defs
     id="defs4">
    <linearGradient
       inkscape:collect="always"
       id="linearGradient1019">
      <stop
         style="stop-color:#fafafa;stop-opacity:1"
         offset="0"
         id="stop1015" />
      <stop
         style="stop-color:#fafafa;stop-opacity:1"
         offset="0.5"
         id="stop1023" />
      <stop
         style="stop-color:#4d4d4d;stop-opacity:1"
         offset="0.5"
         id="stop1025" />
      <stop
         style="stop-color:#4d4d4d;stop-opacity:1"
         offset="1"
         id="stop1017" />
    </linearGradient>
    <linearGradient
       id="linearGradient23419">
      <stop
         id="stop23421"
         style="stop-color:#000000;stop-opacity:1"
         offset="0" />
      <stop
         id="stop23423"
         style="stop-color:#000000;stop-opacity:0"
         offset="1" />
    </linearGradient>
    <linearGradient
       xlink:href="#linearGradient4806-2-9"
       id="linearGradient6927"
       gradientUnits="userSpaceOnUse"
       gradientTransform="matrix(1.7553612,0,0,1.7553612,-94.69513,-16.91647)"
       x1="71.204407"
       y1="15.369057"
       x2="71.204407"
       y2="40.495617" />
    <linearGradient
       id="linearGradient4806-2-9">
      <stop
         id="stop4808-4-6"
         style="stop-color:#ffffff;stop-opacity:1"
         offset="0" />
      <stop
         id="stop4810-0-9"
         style="stop-color:#ffffff;stop-opacity:0.23529412"
         offset="0.42447853" />
      <stop
         id="stop4812-8-7"
         style="stop-color:#ffffff;stop-opacity:0.15686275"
         offset="0.82089913" />
      <stop
         id="stop4814-0-7"
         style="stop-color:#ffffff;stop-opacity:0.39215687"
         offset="1" />
    </linearGradient>
    <linearGradient
       xlink:href="#linearGradient4806-2-9"
       id="linearGradient6923"
       gradientUnits="userSpaceOnUse"
       gradientTransform="matrix(1.9186506,0,0,-1.9186506,-106.48073,85.46685)"
       x1="71.204407"
       y1="15.369057"
       x2="71.204407"
       y2="40.495617" />
    <linearGradient
       xlink:href="#linearGradient4251"
       id="linearGradient6919"
       gradientUnits="userSpaceOnUse"
       gradientTransform="matrix(0.5625,0,0,0.5625,-221,-118.62498)"
       x1="304"
       y1="98"
       x2="368"
       y2="210" />
    <linearGradient
       id="linearGradient4251">
      <stop
         id="stop4259"
         offset="0"
         style="stop-color:#cccccc;stop-opacity:1" />
      <stop
         style="stop-color:#f4f4f4;stop-opacity:1"
         offset="0.51999998"
         id="stop6460" />
      <stop
         style="stop-color:#c1c1c1;stop-opacity:1"
         offset="1"
         id="stop4183" />
    </linearGradient>
    <linearGradient
       x1="71.204407"
       y1="15.369057"
       x2="71.204407"
       y2="40.495617"
       id="linearGradient3293"
       xlink:href="#linearGradient4806-2-9"
       gradientUnits="userSpaceOnUse"
       gradientTransform="matrix(2.3268746,0,0,2.3268746,-135.94475,-32.84278)" />
    <linearGradient
       xlink:href="#linearGradient4140"
       id="linearGradient6915"
       x1="196"
       y1="152"
       x2="252"
       y2="208"
       gradientUnits="userSpaceOnUse"
       gradientTransform="translate(-191.5,-148)" />
    <linearGradient
       id="linearGradient4140">
      <stop
         id="stop4142"
         offset="0"
         style="stop-color:#f9c440;stop-opacity:1" />
      <stop
         style="stop-color:#fff394;stop-opacity:1"
         offset="0.50190115"
         id="stop5784" />
      <stop
         id="stop4144"
         offset="1"
         style="stop-color:#f9c440;stop-opacity:1" />
    </linearGradient>
    <radialGradient
       xlink:href="#linearGradient23419"
       id="radialGradient3300-9"
       gradientUnits="userSpaceOnUse"
       gradientTransform="matrix(0.3823536,7.5555777e-8,-1.8372241e-8,0.1115198,-5.9254271,36.335849)"
       cx="99.189415"
       cy="185.29727"
       fx="99.189415"
       fy="185.29727"
       r="62.769119" />
    <radialGradient
       xlink:href="#linearGradient23419"
       id="radialGradient4192"
       gradientUnits="userSpaceOnUse"
       gradientTransform="matrix(0.2549024,5.3967361e-8,-1.2248161e-8,0.07965545,6.7163816,44.240666)"
       cx="99.189415"
       cy="185.29727"
       fx="99.189415"
       fy="185.29727"
       r="62.769119" />
    <linearGradient
       id="linearGradient4658">
      <stop
         offset="0"
         style="stop-color:#fafafa;stop-opacity:1;"
         id="stop4660" />
      <stop
         offset="1"
         style="stop-color:#e2e1de;stop-opacity:1;"
         id="stop4662" />
    </linearGradient>
    <radialGradient
       gradientTransform="matrix(2.003784,0,0,1.4,27.98813,-17.4)"
       gradientUnits="userSpaceOnUse"
       xlink:href="#linearGradient3688-166-749-4-0-3-8-1"
       id="radialGradient3337-2-2-8"
       fy="43.5"
       fx="4.9929786"
       r="2.5"
       cy="43.5"
       cx="4.9929786" />
    <linearGradient
       id="linearGradient3688-166-749-4-0-3-8-1">
      <stop
         offset="0"
         style="stop-color:#181818;stop-opacity:1"
         id="stop2883-4-0-1-8-1" />
      <stop
         offset="1"
         style="stop-color:#181818;stop-opacity:0"
         id="stop2885-9-2-9-6-6" />
    </linearGradient>
    <radialGradient
       gradientTransform="matrix(2.003784,0,0,1.4,-20.01187,-104.4)"
       gradientUnits="userSpaceOnUse"
       xlink:href="#linearGradient3688-166-749-4-0-3-8-1"
       id="radialGradient3339-1-4-96"
       fy="43.5"
       fx="4.9929786"
       r="2.5"
       cy="43.5"
       cx="4.9929786" />
    <linearGradient
       id="linearGradient3702-501-757-8-4-1-1-4">
      <stop
         offset="0"
         style="stop-color:#181818;stop-opacity:0"
         id="stop2895-8-9-9-1-7" />
      <stop
         offset="0.5"
         style="stop-color:#181818;stop-opacity:1"
         id="stop2897-7-8-7-7-6" />
      <stop
         offset="1"
         style="stop-color:#181818;stop-opacity:0"
         id="stop2899-4-5-1-5-0" />
    </linearGradient>
    <linearGradient
       gradientUnits="userSpaceOnUse"
       xlink:href="#linearGradient3702-501-757-8-4-1-1-4"
       id="linearGradient5515"
       y2="39.999443"
       x2="25.058096"
       y1="47.027729"
       x1="25.058096" />
    <linearGradient
       id="linearGradient3924-2-2-5-8-0">
      <stop
         id="stop3926-9-4-9-6-6"
         style="stop-color:#ffffff;stop-opacity:1"
         offset="0" />
      <stop
         id="stop3928-9-8-6-5-1"
         style="stop-color:#ffffff;stop-opacity:0.23529412"
         offset="0.06316455" />
      <stop
         id="stop3930-3-5-1-7-98"
         style="stop-color:#ffffff;stop-opacity:0.15686275"
         offset="0.95056331" />
      <stop
         id="stop3932-8-0-4-8-60"
         style="stop-color:#ffffff;stop-opacity:0.39215687"
         offset="1" />
    </linearGradient>
    <linearGradient
       y2="43"
       x2="23.99999"
       y1="4.999989"
       x1="23.99999"
       gradientTransform="matrix(1.4324324,0,0,1.4324324,-2.3783756,-1.8783739)"
       gradientUnits="userSpaceOnUse"
       id="linearGradient3681"
       xlink:href="#linearGradient3924-2-2-5-8-0" />
    <linearGradient
       y2="43"
       x2="23.99999"
       y1="4.999989"
       x1="23.99999"
       gradientTransform="matrix(1.4324324,0,0,1.4324324,-2.3783756,-1.8783738)"
       gradientUnits="userSpaceOnUse"
       id="linearGradient3681-6"
       xlink:href="#linearGradient3924-2-2-5-8-0" />
    <linearGradient
       id="linearGradient3242-7-3-8-0-4-58-06">
      <stop
         offset="0"
         style="stop-color:#8cd5ff;stop-opacity:1"
         id="stop3244-5-8-5-6-4-3-8" />
      <stop
         offset="0.26238"
         style="stop-color:#64baff;stop-opacity:1"
         id="stop3246-9-5-1-5-3-0-7" />
      <stop
         offset="0.66093999"
         style="stop-color:#3689e6;stop-opacity:1"
         id="stop3248-7-2-0-7-5-35-9" />
      <stop
         offset="1"
         style="stop-color:#0d52bf;stop-opacity:1"
         id="stop3250-8-2-8-5-6-40-4" />
    </linearGradient>
    <linearGradient
       y2="48.395687"
       x2="25.132275"
       y1="15.499894"
       x1="25.132275"
       gradientTransform="matrix(1.2903867,0,0,1.2373259,1.0307217,-0.56698844)"
       gradientUnits="userSpaceOnUse"
       id="linearGradient4556-9"
       xlink:href="#linearGradient4658" />
    <linearGradient
       gradientUnits="userSpaceOnUse"
       y2="48.933952"
       x2="24.169817"
       y1="-12.24244"
       x1="24.169817"
       id="linearGradient4654"
       xlink:href="#linearGradient3242-7-3-8-0-4-58-06"
       gradientTransform="translate(0,0.49999976)" />
    <linearGradient
       y2="19.963179"
       x2="23.954144"
       y1="15.999304"
       x1="23.954144"
       gradientTransform="matrix(1.4,0,0,0.5,-1.5999986,10.500001)"
       gradientUnits="userSpaceOnUse"
       id="linearGradient4656"
       xlink:href="#linearGradient23419" />
    <linearGradient
       x1="302.85715"
       y1="366.64789"
       x2="302.85715"
       y2="609.50507"
       id="linearGradient3128"
       xlink:href="#linearGradient5048"
       gradientUnits="userSpaceOnUse"
       gradientTransform="matrix(0.09153846,0,0,0.02058823,-1.084616,49.45142)" />
    <linearGradient
       id="linearGradient5048">
      <stop
         id="stop5050"
         style="stop-color:#000000;stop-opacity:0"
         offset="0" />
      <stop
         id="stop5056"
         style="stop-color:#000000;stop-opacity:1"
         offset="0.5" />
      <stop
         id="stop5052"
         style="stop-color:#000000;stop-opacity:0"
         offset="1" />
    </linearGradient>
    <radialGradient
       cx="605.71429"
       cy="486.64789"
       r="117.14286"
       fx="605.71429"
       fy="486.64789"
       id="radialGradient3060"
       xlink:href="#linearGradient23419"
       gradientUnits="userSpaceOnUse"
       gradientTransform="matrix(-0.03132632,0,0,0.02058823,28.779136,49.45142)" />
    <radialGradient
       cx="605.71429"
       cy="486.64789"
       r="117.14286"
       fx="605.71429"
       fy="486.64789"
       id="radialGradient3057"
       xlink:href="#linearGradient23419"
       gradientUnits="userSpaceOnUse"
       gradientTransform="matrix(0.03132633,0,0,0.02058823,35.220859,49.45142)" />
    <linearGradient
       id="linearGradient3600-9">
      <stop
         id="stop3602-3"
         style="stop-color:#f4f4f4;stop-opacity:1"
         offset="0" />
      <stop
         id="stop3604-7"
         style="stop-color:#dbdbdb;stop-opacity:1"
         offset="1" />
    </linearGradient>
    <linearGradient
       x1="25.132275"
       y1="0.98520643"
       x2="25.132275"
       y2="47.013336"
       id="linearGradient3054"
       xlink:href="#linearGradient3600-9"
       gradientUnits="userSpaceOnUse"
       gradientTransform="matrix(1.3142827,0,0,1.2602393,0.4572141,-2.1793201)" />
    <linearGradient
       id="linearGradient3977-4">
      <stop
         id="stop3979-7"
         style="stop-color:#ffffff;stop-opacity:1"
         offset="0" />
      <stop
         id="stop3981-6"
         style="stop-color:#ffffff;stop-opacity:0.23529412"
         offset="0.01214366" />
      <stop
         id="stop3983-5"
         style="stop-color:#ffffff;stop-opacity:0.15686275"
         offset="0.98781353" />
      <stop
         id="stop3985-6"
         style="stop-color:#ffffff;stop-opacity:0.39215687"
         offset="1" />
    </linearGradient>
    <linearGradient
       x1="23.99999"
       y1="5.8641062"
       x2="23.99999"
       y2="42.100208"
       id="linearGradient3051"
       xlink:href="#linearGradient3977-4"
       gradientUnits="userSpaceOnUse"
       gradientTransform="matrix(1.2162162,0,0,1.5405376,2.8108184,-6.9729501)" />
    <linearGradient
       id="linearGradient3104-6">
      <stop
         id="stop3106-3"
         style="stop-color:#000000;stop-opacity:0.31782946"
         offset="0" />
      <stop
         id="stop3108-9"
         style="stop-color:#000000;stop-opacity:0.24031007"
         offset="1" />
    </linearGradient>
    <linearGradient
       x1="-51.786404"
       y1="50.786446"
       x2="-51.786404"
       y2="2.9062471"
       id="linearGradient3048"
       xlink:href="#linearGradient3104-6"
       gradientUnits="userSpaceOnUse"
       gradientTransform="matrix(1.0843523,0,0,1.1997367,79.550862,-4.1628601)" />
    <linearGradient
       y2="40.495617"
       x2="71.204407"
       y1="15.369057"
       x1="71.204407"
       gradientTransform="matrix(1.1838482,0,0,1.1838482,-61.44558,-8.99018)"
       gradientUnits="userSpaceOnUse"
       id="linearGradient8460"
       xlink:href="#linearGradient4806-2-9" />
    <linearGradient
       y2="40.495617"
       x2="71.204407"
       y1="15.369057"
       x1="71.204407"
       gradientTransform="matrix(1.3471377,0,0,-1.3471377,-73.23118,61.54055)"
       gradientUnits="userSpaceOnUse"
       id="linearGradient8456"
       xlink:href="#linearGradient4806-2-9" />
    <linearGradient
       y2="210"
       x2="368"
       y1="98"
       x1="304"
       gradientTransform="matrix(0.38749999,0,0,0.38749999,-154.19999,-83.67496)"
       gradientUnits="userSpaceOnUse"
       id="linearGradient8452"
       xlink:href="#linearGradient4251" />
    <linearGradient
       y2="40.495617"
       x2="71.204407"
       y1="15.369057"
       x1="71.204407"
       gradientTransform="matrix(1.5920718,0,0,1.5920718,-90.90958,-20.3661)"
       gradientUnits="userSpaceOnUse"
       id="linearGradient8448"
       xlink:href="#linearGradient4806-2-9" />
    <linearGradient
       y2="208"
       x2="252"
       y1="152"
       x1="196"
       gradientTransform="matrix(0.69491525,0,0,0.69491525,-131.31359,-101.08475)"
       gradientUnits="userSpaceOnUse"
       id="linearGradient8444"
       xlink:href="#linearGradient4140" />
    <radialGradient
       cx="99.157013"
       cy="186.17059"
       r="62.769119"
       fx="99.157013"
       fy="186.17059"
       id="radialGradient3018"
       xlink:href="#linearGradient23419"
       gradientUnits="userSpaceOnUse"
       gradientTransform="matrix(0.25490241,0,0,0.08762273,-1.27539,25.1859)" />
    <radialGradient
       cx="4.9929786"
       cy="43.5"
       r="2.5"
       fx="4.9929786"
       fy="43.5"
       id="radialGradient3013"
       xlink:href="#linearGradient3688-166-749-4-0-3-8-1"
       gradientUnits="userSpaceOnUse"
       gradientTransform="matrix(2.003784,0,0,1.4,27.98813,-17.4)" />
    <radialGradient
       cx="4.9929786"
       cy="43.5"
       r="2.5"
       fx="4.9929786"
       fy="43.5"
       id="radialGradient3015"
       xlink:href="#linearGradient3688-166-749-4-0-3-8-1"
       gradientUnits="userSpaceOnUse"
       gradientTransform="matrix(2.003784,0,0,1.4,-20.01187,-104.4)" />
    <linearGradient
       x1="23.99999"
       y1="4.999989"
       x2="23.99999"
       y2="43"
       id="linearGradient3991"
       xlink:href="#linearGradient3924-2-2-5-8-0"
       gradientUnits="userSpaceOnUse"
       gradientTransform="translate(4e-6,0.75000619)" />
    <linearGradient
       x1="24.169817"
       y1="-12.24244"
       x2="24.169817"
       y2="48.933952"
       id="linearGradient4036"
       xlink:href="#linearGradient3242-7-3-8-0-4-58-06"
       gradientUnits="userSpaceOnUse"
       gradientTransform="matrix(0.70909089,0,0,0.70909089,1.309104,2.0590923)" />
    <linearGradient
       x1="23.954144"
       y1="15.999304"
       x2="23.954144"
       y2="19.963179"
       id="linearGradient4043"
       xlink:href="#linearGradient23419"
       gradientUnits="userSpaceOnUse"
       gradientTransform="matrix(0.99999997,0,0,0.37500001,1.801756e-6,8.7500009)" />
    <linearGradient
       x1="25.132275"
       y1="15.499894"
       x2="25.132275"
       y2="48.395687"
       id="linearGradient4046-7"
       xlink:href="#linearGradient4658"
       gradientUnits="userSpaceOnUse"
       gradientTransform="matrix(0.89153988,0,0,0.8548797,2.6030444,1.4165388)" />
    <linearGradient
       x1="23.99999"
       y1="4.999989"
       x2="23.99999"
       y2="43"
       id="linearGradient4100"
       xlink:href="#linearGradient3924-2-2-5-8-0"
       gradientUnits="userSpaceOnUse"
       gradientTransform="translate(4e-6,0.75000599)" />
    <radialGradient
       gradientTransform="matrix(0.18029682,0,0,0.05942685,-1.8776934,16.207162)"
       gradientUnits="userSpaceOnUse"
       xlink:href="#linearGradient23419"
       id="radialGradient3018-7"
       fy="186.17059"
       fx="99.157013"
       r="62.769119"
       cy="186.17059"
       cx="99.157013" />
    <linearGradient
       xlink:href="#linearGradient4140"
       id="linearGradient8444-5"
       gradientUnits="userSpaceOnUse"
       gradientTransform="matrix(0.49152541,0,0,0.47542369,-93.85593,-70.051269)"
       x1="196"
       y1="152"
       x2="252"
       y2="208" />
    <linearGradient
       xlink:href="#linearGradient4251"
       id="linearGradient8452-6"
       gradientUnits="userSpaceOnUse"
       gradientTransform="matrix(0.27808187,0,0,0.28749999,-108.96049,-60.274968)"
       x1="304"
       y1="98"
       x2="368"
       y2="210" />
    <linearGradient
       gradientTransform="matrix(0.67567568,0,0,0.64864865,-0.21621703,0.93244198)"
       gradientUnits="userSpaceOnUse"
       xlink:href="#linearGradient3924-2-2-5-8-0"
       id="linearGradient3223"
       y2="43"
       x2="23.99999"
       y1="4.999989"
       x1="23.99999" />
    <radialGradient
       gradientTransform="matrix(2.003784,0,0,1.4,27.98813,-17.4)"
       gradientUnits="userSpaceOnUse"
       xlink:href="#linearGradient3688-166-749-4-0-3-8-1"
       id="radialGradient4002"
       fy="43.5"
       fx="4.9929786"
       r="2.5"
       cy="43.5"
       cx="4.9929786" />
    <radialGradient
       gradientTransform="matrix(2.003784,0,0,1.4,-20.01187,-104.4)"
       gradientUnits="userSpaceOnUse"
       xlink:href="#linearGradient3688-166-749-4-0-3-8-1"
       id="radialGradient4004"
       fy="43.5"
       fx="4.9929786"
       r="2.5"
       cy="43.5"
       cx="4.9929786" />
    <linearGradient
       gradientTransform="matrix(0.69999998,0,0,0.26923077,-0.80000019,5.6153856)"
       gradientUnits="userSpaceOnUse"
       xlink:href="#linearGradient23419"
       id="linearGradient4056"
       y2="19.963179"
       x2="23.954144"
       y1="15.999304"
       x1="23.954144" />
    <linearGradient
       gradientTransform="matrix(0.56307783,0,0,0.53992403,2.4861325,2.5707699)"
       gradientUnits="userSpaceOnUse"
       xlink:href="#linearGradient4658"
       id="linearGradient4059-1"
       y2="48.395687"
       x2="25.132275"
       y1="15.499894"
       x1="25.132275" />
    <linearGradient
       gradientTransform="matrix(0.45454545,0,0,0.45454545,0.454544,1.454547)"
       gradientUnits="userSpaceOnUse"
       xlink:href="#linearGradient3242-7-3-8-0-4-58-06"
       id="linearGradient4052-7"
       y2="48.933952"
       x2="24.169817"
       y1="-12.24244"
       x1="24.169817" />
    <linearGradient
       gradientTransform="matrix(0.62162164,0,0,0.62162164,0.0810794,1.0810903)"
       gradientUnits="userSpaceOnUse"
       xlink:href="#linearGradient3924-2-2-5-8-0"
       id="linearGradient4307"
       y2="43"
       x2="23.99999"
       y1="4.999989"
       x1="23.99999" />
    <linearGradient
       id="linearGradient3957-2">
      <stop
         offset="0"
         style="stop-color:#ffffff;stop-opacity:1"
         id="stop3959-62" />
      <stop
         offset="1"
         style="stop-color:#c1c1c1;stop-opacity:1"
         id="stop3961-5" />
    </linearGradient>
    <linearGradient
       id="linearGradient2867-449-88-871-390-598-476-591-434-148-57-177-3-8">
      <stop
         offset="0"
         style="stop-color:#90dbec;stop-opacity:1"
         id="stop3750-8-9" />
      <stop
         offset="0.26238"
         style="stop-color:#42baea;stop-opacity:1"
         id="stop3752-3-2" />
      <stop
         offset="0.704952"
         style="stop-color:#3689e6;stop-opacity:1"
         id="stop3754-7-2" />
      <stop
         offset="1"
         style="stop-color:#2b63a0;stop-opacity:1"
         id="stop3756-9-3" />
    </linearGradient>
    <linearGradient
       id="linearGradient4168">
      <stop
         offset="0"
         style="stop-color:#f8b17e;stop-opacity:1"
         id="stop4170" />
      <stop
         offset="0.23208089"
         style="stop-color:#e35d4f;stop-opacity:1"
         id="stop4172" />
      <stop
         offset="0.5908742"
         style="stop-color:#c6262e;stop-opacity:1"
         id="stop4174" />
      <stop
         offset="1"
         style="stop-color:#690b54;stop-opacity:1"
         id="stop4176" />
    </linearGradient>
    <linearGradient
       xlink:href="#linearGradient4806-2-9"
       id="linearGradient3293-3"
       gradientUnits="userSpaceOnUse"
       gradientTransform="matrix(2.3268746,0,0,2.3268746,-135.94475,-32.842783)"
       x1="71.204407"
       y1="15.369057"
       x2="71.204407"
       y2="40.495617" />
    <radialGradient
       xlink:href="#linearGradient23419"
       id="radialGradient3300"
       gradientUnits="userSpaceOnUse"
       gradientTransform="matrix(0.3823536,7.5555777e-8,-1.8372241e-8,0.1115198,-5.9254271,36.335849)"
       cx="99.189415"
       cy="185.29727"
       fx="99.189415"
       fy="185.29727"
       r="62.769119" />
    <linearGradient
       xlink:href="#linearGradient3957-2"
       id="linearGradient4131"
       gradientUnits="userSpaceOnUse"
       gradientTransform="translate(8.0000046,8.0000026)"
       x1="24"
       y1="22"
       x2="24"
       y2="26" />
    <linearGradient
       xlink:href="#linearGradient3957-2"
       id="linearGradient4137"
       gradientUnits="userSpaceOnUse"
       gradientTransform="matrix(1.4390244,0,0,1.4390244,-2.536585,-2.5365857)"
       x1="21.013996"
       y1="25.433903"
       x2="22.805599"
       y2="27.343702" />
    <linearGradient
       xlink:href="#linearGradient4168"
       id="linearGradient4140-6"
       gradientUnits="userSpaceOnUse"
       gradientTransform="matrix(1.4390244,0,0,1.4390244,-2.536585,-2.5365857)"
       x1="27.92535"
       y1="15.149301"
       x2="33.447899"
       y2="22.986004" />
    <radialGradient
       xlink:href="#linearGradient2867-449-88-871-390-598-476-591-434-148-57-177-641-289-620-227-114-444-680-744-4-8-69-5-4-8-426-2-9-1-4-965"
       id="radialGradient4145"
       gradientUnits="userSpaceOnUse"
       gradientTransform="matrix(0,3.5958841,-3.8040162,-9.7874431e-8,64.14322,-20.064576)"
       cx="3.9722471"
       cy="8.4497671"
       fx="3.9722471"
       fy="8.4497671"
       r="19.99999" />
    <radialGradient
       inkscape:collect="always"
       xlink:href="#linearGradient23419"
       id="radialGradient4192-7"
       gradientUnits="userSpaceOnUse"
       gradientTransform="matrix(0.2549024,5.3967361e-8,-1.2248161e-8,0.07965545,6.7163816,44.240666)"
       cx="99.189415"
       cy="185.29727"
       fx="99.189415"
       fy="185.29727"
       r="62.769119" />
    <radialGradient
       cx="16"
       cy="15.377224"
       r="0.62612247"
       fx="16"
       fy="15.377224"
       id="radialGradient3139"
       xlink:href="#linearGradient4119"
       gradientUnits="userSpaceOnUse"
       gradientTransform="matrix(0,3.055572,-3.0638652,0,78.61374,-17.883806)" />
    <linearGradient
       id="linearGradient4119">
      <stop
         id="stop4121"
         style="stop-color:#ffffff;stop-opacity:1"
         offset="0" />
      <stop
         id="stop4148"
         style="stop-color:#afaba5;stop-opacity:1"
         offset="0.53996283" />
      <stop
         id="stop4146"
         style="stop-color:#837874;stop-opacity:1"
         offset="0.61988848" />
      <stop
         id="stop4123"
         style="stop-color:#b4b2aa;stop-opacity:1"
         offset="1" />
    </linearGradient>
    <linearGradient
       x1="71.204407"
       y1="15.369057"
       x2="71.204407"
       y2="40.495617"
       id="linearGradient3221"
       xlink:href="#linearGradient4806-2-9"
       gradientUnits="userSpaceOnUse"
       gradientTransform="matrix(2.2452289,0,0,2.2452299,-28.55189,-34.567594)" />
    <radialGradient
       cx="15.026252"
       cy="8.6257601"
       r="19.99999"
       fx="0.3035326"
       fy="8.625761"
       id="radialGradient3228"
       xlink:href="#linearGradient2867-449-88-871-390-598-476-591-434-148-57-177-641-289-620-227-114-444-680-744-4-8-69-5-4-8-426-2-9-1-4-965"
       gradientUnits="userSpaceOnUse"
       gradientTransform="matrix(-9.3338227e-8,1.5338669,-1.4451249,-1.0565052e-7,145.71114,-0.13834906)" />
    <linearGradient
       id="linearGradient2867-449-88-871-390-598-476-591-434-148-57-177-641-289-620-227-114-444-680-744-4-8-69-5-4-8-426-2-9-1-4-965">
      <stop
         id="stop4036"
         style="stop-color:#f4f4f4;stop-opacity:1"
         offset="0" />
      <stop
         id="stop4040"
         style="stop-color:#dadada;stop-opacity:1"
         offset="1" />
    </linearGradient>
    <radialGradient
       xlink:href="#linearGradient23419"
       id="radialGradient3300-9-5"
       gradientUnits="userSpaceOnUse"
       gradientTransform="matrix(0.3823536,7.5555777e-8,-1.8372241e-8,0.1115198,-5.9254271,36.335849)"
       cx="99.189415"
       cy="185.29727"
       fx="99.189415"
       fy="185.29727"
       r="62.769119" />
    <linearGradient
       x1="63.397362"
       y1="-12.489107"
       x2="63.397362"
       y2="5.4675598"
       id="linearGradient2926"
       xlink:href="#linearGradient4873-2"
       gradientUnits="userSpaceOnUse"
       gradientTransform="matrix(2.8014404,0,0,2.8013767,-61.250717,39.340052)" />
    <linearGradient
       id="linearGradient4873-2">
      <stop
         id="stop4875-7"
         style="stop-color:#ffffff;stop-opacity:1"
         offset="0" />
      <stop
         id="stop4877-6"
         style="stop-color:#ffffff;stop-opacity:0"
         offset="1" />
    </linearGradient>
    <linearGradient
       x1="3.6966691"
       y1="16.722891"
       x2="19.821404"
       y2="16.722891"
       id="linearGradient2945-0"
       xlink:href="#linearGradient3356-2-1-5"
       gradientUnits="userSpaceOnUse"
       gradientTransform="matrix(0,3.3490615,-3.2334858,0,153.88393,-9.8768743)" />
    <linearGradient
       id="linearGradient3356-2-1-5">
      <stop
         id="stop3358-8-5-6"
         style="stop-color:#808080;stop-opacity:1"
         offset="0" />
      <stop
         id="stop3360-9-9-6"
         style="stop-color:#6d6d6d;stop-opacity:1"
         offset="0.54610044" />
      <stop
         id="stop3362-6-9-4"
         style="stop-color:#4f5053;stop-opacity:1"
         offset="1" />
    </linearGradient>
    <linearGradient
       x1="56.323174"
       y1="25.882757"
       x2="72.451813"
       y2="25.882757"
       id="linearGradient2947-0"
       xlink:href="#linearGradient3227-7-4-0"
       gradientUnits="userSpaceOnUse"
       gradientTransform="matrix(0,3.3490615,-3.2334858,0,192.39358,-186.12626)" />
    <linearGradient
       id="linearGradient3227-7-4-0">
      <stop
         id="stop3229-0-9-4"
         style="stop-color:#4d4d4d;stop-opacity:1"
         offset="0" />
      <stop
         id="stop3231-1-1-6"
         style="stop-color:#333333;stop-opacity:1"
         offset="1" />
    </linearGradient>
    <linearGradient
       x1="17.610361"
       y1="0.99995786"
       x2="17.610361"
       y2="23.062979"
       id="linearGradient2950-2"
       xlink:href="#linearGradient3268-4-9-1"
       gradientUnits="userSpaceOnUse"
       gradientTransform="matrix(2.4287328,0,0,2.4286941,83.855862,0.36053357)" />
    <linearGradient
       id="linearGradient3268-4-9-1">
      <stop
         id="stop3270-6-3-0"
         style="stop-color:#ffffff;stop-opacity:1"
         offset="0" />
      <stop
         id="stop3272-2-6-5"
         style="stop-color:#cdcdcd;stop-opacity:1"
         offset="1" />
    </linearGradient>
    <linearGradient
       x1="12.962829"
       y1="2.6837947"
       x2="12.962829"
       y2="45.326431"
       id="linearGradient2952-1"
       xlink:href="#linearGradient3334-995-903-143-677-209-356-728-8-0-1"
       gradientUnits="userSpaceOnUse"
       gradientTransform="matrix(1.2533264,0,0,1.2533065,82.920821,-0.57449253)" />
    <linearGradient
       id="linearGradient3334-995-903-143-677-209-356-728-8-0-1">
      <stop
         id="stop5026-6-2-0"
         style="stop-color:#808080;stop-opacity:1"
         offset="0" />
      <stop
         id="stop5028-2-1-8"
         style="stop-color:#6d6d6d;stop-opacity:1"
         offset="0.87326682" />
      <stop
         id="stop5030-8-0-5"
         style="stop-color:#4f5053;stop-opacity:1"
         offset="1" />
    </linearGradient>
    <radialGradient
       xlink:href="#linearGradient23419"
       id="radialGradient3300-5"
       gradientUnits="userSpaceOnUse"
       gradientTransform="matrix(0.3823536,7.5555777e-8,-1.8372241e-8,0.1115198,-5.9254271,36.335849)"
       cx="99.189415"
       cy="185.29727"
       fx="99.189415"
       fy="185.29727"
       r="62.769119" />
    <radialGradient
       inkscape:collect="always"
       xlink:href="#linearGradient3356-2-1-5"
       id="radialGradient4397"
       gradientUnits="userSpaceOnUse"
       gradientTransform="matrix(0,3.5958841,-3.8040162,-9.7874431e-8,64.14322,-20.064576)"
       cx="3.9722471"
       cy="8.4497671"
       fx="3.9722471"
       fy="8.4497671"
       r="19.99999" />
    <linearGradient
       x1="38.856056"
       y1="26.320496"
       x2="38.856056"
       y2="32.521935"
       id="linearGradient4225-5"
       xlink:href="#linearGradient23419"
       gradientUnits="userSpaceOnUse"
       gradientTransform="matrix(0.99215968,0,0,-0.9932415,0.25417,64.294946)" />
    <linearGradient
       y2="42.091705"
       x2="23.99999"
       y1="5.9093657"
       x1="23.99999"
       gradientTransform="matrix(1.4324324,0,0,1.4362832,-132.26592,-18.914422)"
       gradientUnits="userSpaceOnUse"
       id="linearGradient3904"
       xlink:href="#linearGradient4270" />
    <linearGradient
       id="linearGradient4270">
      <stop
         id="stop4272"
         style="stop-color:#ffffff;stop-opacity:1"
         offset="0" />
      <stop
         id="stop4274"
         style="stop-color:#ffffff;stop-opacity:0.23529412"
         offset="0.0348749" />
      <stop
         id="stop4276"
         style="stop-color:#ffffff;stop-opacity:0.15686275"
         offset="0.96216321" />
      <stop
         id="stop4278"
         style="stop-color:#ffffff;stop-opacity:0.39215687"
         offset="1" />
    </linearGradient>
    <radialGradient
       r="12.671875"
       fy="9.9571075"
       fx="6.2001843"
       cy="9.9571075"
       cx="6.7304144"
       gradientTransform="matrix(0,13.393984,-16.443533,0,67.0145,-131.33732)"
       gradientUnits="userSpaceOnUse"
       id="radialGradient4147"
       xlink:href="#linearGradient2867-449-88-871-390-598-476-591-434-148-57-177-8-3-3-6-4-8-8-8-5" />
    <linearGradient
       id="linearGradient2867-449-88-871-390-598-476-591-434-148-57-177-8-3-3-6-4-8-8-8-5">
      <stop
         id="stop3750-1-0-7-6-6-1-3-9-3"
         style="stop-color:#919caf;stop-opacity:1;"
         offset="0" />
      <stop
         id="stop3752-3-7-4-0-32-8-923-0-7"
         style="stop-color:#68758e;stop-opacity:1;"
         offset="0.26238" />
      <stop
         id="stop3754-1-8-5-2-7-6-7-1-9"
         style="stop-color:#485a6c;stop-opacity:1;"
         offset="0.704952" />
      <stop
         id="stop3756-1-6-2-6-6-1-96-6-0"
         style="stop-color:#444c5c;stop-opacity:1;"
         offset="1" />
    </linearGradient>
    <radialGradient
       gradientTransform="matrix(2.003784,0,0,1.4,27.98813,-17.4)"
       gradientUnits="userSpaceOnUse"
       xlink:href="#linearGradient3688-166-749-4-0-3-8-1"
       id="radialGradient2873-966-168-714"
       fy="43.5"
       fx="4.9929786"
       r="2.5"
       cy="43.5"
       cx="4.9929786" />
    <radialGradient
       gradientTransform="matrix(2.003784,0,0,1.4,-20.01187,-104.4)"
       gradientUnits="userSpaceOnUse"
       xlink:href="#linearGradient3688-166-749-4-0-3-8-1"
       id="radialGradient2875-742-326-419"
       fy="43.5"
       fx="4.9929786"
       r="2.5"
       cy="43.5"
       cx="4.9929786" />
    <linearGradient
       inkscape:collect="always"
       xlink:href="#linearGradient1019"
       id="linearGradient1021"
       x1="15"
       y1="32.500916"
       x2="49"
       y2="32.500916"
       gradientUnits="userSpaceOnUse"
       gradientTransform="translate(0,-0.500915)" />
    <linearGradient
       inkscape:collect="always"
       xlink:href="#linearGradient1019"
       id="linearGradient1094"
       x1="-65.5"
       y1="31.500916"
       x2="-30.5"
       y2="31.500916"
       gradientUnits="userSpaceOnUse"
       gradientTransform="translate(79.5,1.499085)" />
    <linearGradient
       inkscape:collect="always"
       xlink:href="#linearGradient1019"
       id="linearGradient1130"
       x1="14.5"
       y1="33"
       x2="48.5"
       y2="33"
       gradientUnits="userSpaceOnUse"
       gradientTransform="translate(0.5)" />
  </defs>
  <metadata
     id="metadata7">
    <rdf:RDF>
      <cc:Work
         rdf:about="">
        <dc:format>image/svg+xml</dc:format>
        <dc:type
           rdf:resource="http://purl.org/dc/dcmitype/StillImage" />
        <dc:title />
      </cc:Work>
    </rdf:RDF>
  </metadata>
  <g
     id="g620">
    <g
       id="g4198">
      <path
         inkscape:connector-curvature="0"
         d="m 55.999998,57.0017 a 24,6.9985714 0 1 1 -47.9999991,0 24,6.9985714 0 1 1 47.9999991,0 z"
         id="path3818-0"
         style="opacity:0.2;fill:url(#radialGradient3300);fill-opacity:1;stroke:none" />
      <path
         style="opacity:0.4;fill:url(#radialGradient4192-7);fill-opacity:1;stroke:none"
         id="path4190"
         d="m 47.999998,59.0017 a 16,4.9988822 0 1 1 -31.999999,0 16,4.9988822 0 1 1 31.999999,0 z"
         inkscape:connector-curvature="0" />
    </g>
    <path
       style="color:#000000;display:inline;overflow:visible;visibility:visible;fill:url(#radialGradient4397);fill-opacity:1;fill-rule:nonzero;stroke:none;stroke-width:1;marker:none;enable-background:accumulate"
       d="M 32,2.5 C 15.722918,2.5 2.5,15.722916 2.5,32 2.5,48.277084 15.722918,61.500004 32,61.5 Z"
       id="path4393" />
    <path
       id="path4405"
       d="M 32,2.5 C 15.722918,2.5 2.5,15.722916 2.5,32 2.5,48.277084 15.722918,61.500004 32,61.5 Z"
       style="color:#000000;display:inline;overflow:visible;visibility:visible;opacity:0.5;fill:none;fill-opacity:1;fill-rule:nonzero;stroke:#000000;stroke-width:1;stroke-opacity:1;marker:none;enable-background:accumulate" />
    <path
       style="color:#000000;display:inline;overflow:visible;visibility:visible;fill:url(#radialGradient4145);fill-opacity:1;fill-rule:nonzero;stroke:none;stroke-width:1;marker:none;enable-background:accumulate"
       d="m 32,2.5 v 59 C 48.277076,61.5 61.500016,48.277084 61.5,32 61.5,15.722916 48.277076,2.5 32,2.5 Z"
       id="path2555" />
    <path
       style="color:#000000;display:inline;overflow:visible;visibility:visible;opacity:0.3;fill:#000000;fill-opacity:0;fill-rule:nonzero;stroke:#000000;stroke-width:1;stroke-linecap:round;stroke-linejoin:round;stroke-miterlimit:4;stroke-dasharray:none;stroke-dashoffset:0;stroke-opacity:1;marker:none;enable-background:accumulate"
       id="path2555-7-1"
       d="m 32,2.499999 c -16.277082,0 -29.5,13.222915 -29.5,29.499998 0,16.277083 13.222918,29.500005 29.5,29.5 16.27708,0 29.50001,-13.222917 29.5,-29.5 C 61.5,15.722914 48.27708,2.499999 32,2.499999 Z"
       inkscape:connector-curvature="0"
       sodipodi:nodetypes="sssss" />
    <path
       style="color:#000000;display:inline;overflow:visible;visibility:visible;opacity:0.4;fill:none;stroke:url(#linearGradient3293-3);stroke-width:1;stroke-linecap:round;stroke-linejoin:round;stroke-miterlimit:4;stroke-dasharray:none;stroke-dashoffset:0;stroke-opacity:1;marker:none;enable-background:accumulate"
       id="path3019"
       d="m 60.50001,31.999999 c 0,15.740115 -12.7599,28.499999 -28.50002,28.499999 -15.740099,0 -28.499991,-12.759884 -28.499991,-28.499999 0,-15.740116 12.759892,-28.5000013 28.499991,-28.5000013 15.74012,0 28.50002,12.7598853 28.50002,28.5000013 z"
       inkscape:connector-curvature="0"
       sodipodi:nodetypes="sssss" />
    <path
       style="opacity:0.4;fill:none;fill-rule:evenodd;stroke:#000000;stroke-width:1px;stroke-linecap:butt;stroke-linejoin:miter;stroke-opacity:1"
       d="m 31.5,2.5 v 59"
       id="path4400"
       inkscape:connector-curvature="0" />
  </g>
  <path
     style="color:#000000;clip-rule:nonzero;display:inline;overflow:visible;visibility:visible;opacity:0.07;isolation:auto;mix-blend-mode:normal;color-interpolation:sRGB;color-interpolation-filters:linearRGB;solid-color:#000000;solid-opacity:1;fill:none;fill-opacity:1;fill-rule:nonzero;stroke:none;stroke-width:1;stroke-linecap:butt;stroke-linejoin:miter;stroke-miterlimit:4;stroke-dasharray:none;stroke-dashoffset:0;stroke-opacity:1;marker:none;color-rendering:auto;image-rendering:auto;shape-rendering:auto;text-rendering:auto;enable-background:accumulate"
     d="m 34.42857,16.500915 c 0.43706,0 0.80128,1.688081 1.01507,4.100586 a -13.357143,13.357143 0 0 1 3.22782,1.356585 c 1.86459,-1.56272 3.32111,-2.506037 3.631,-2.19615 l 3.43652,3.436524 c 0.30989,0.309887 -0.63343,1.766405 -2.19615,3.630998 a -13.357143,13.357143 0 0 1 1.34473,3.227818 C 47.30682,30.270863 49,30.634552 49,31.072344 v 4.857142 c 0,0.43706 -1.68808,0.801276 -4.10059,1.015068 a -13.357143,13.357143 0 0 1 -1.35184,3.234932 c 1.55917,1.861254 2.50092,3.31437 2.19141,3.623884 l -3.43652,3.436524 c -0.30923,0.309221 -1.76051,-0.630281 -3.61915,-2.186663 a -13.357143,13.357143 0 0 1 -3.23967,1.335239 c -0.21359,2.419264 -0.57728,4.112445 -1.01507,4.112445 h -4.857141 c -0.43706,0 -0.801276,-1.688081 -1.015068,-4.100586 a -13.357143,13.357143 0 0 1 -3.227818,-1.356585 c -1.864593,1.56272 -3.321111,2.506037 -3.630998,2.19615 L 18.261021,43.80337 c -0.309887,-0.309887 0.63343,-1.766405 2.19615,-3.630998 A -13.357143,13.357143 0 0 1 19.112445,36.944554 C 16.693181,36.730967 15,36.367278 15,35.929486 v -4.857142 c 0,-0.43706 1.688081,-0.801276 4.100586,-1.015068 a -13.357143,13.357143 0 0 1 1.351841,-3.234932 C 18.89326,24.96109 17.951507,23.507974 18.261021,23.19846 l 3.436524,-3.436524 c 0.309221,-0.309221 1.760509,0.630281 3.619141,2.186663 a -13.357143,13.357143 0 0 1 3.239675,-1.33524 c 0.213587,-2.419263 0.577276,-4.112444 1.015068,-4.112444 z M 32,27.429486 A -6.0714286,6.0714286 0 0 0 25.928571,33.500915 -6.0714286,6.0714286 0 0 0 32,39.572344 -6.0714286,6.0714286 0 0 0 38.07143,33.500915 -6.0714286,6.0714286 0 0 0 32,27.429486 Z"
     id="path4690-3"
     inkscape:connector-curvature="0" />
  <path
     style="color:#000000;clip-rule:nonzero;display:inline;overflow:visible;visibility:visible;isolation:auto;mix-blend-mode:normal;color-interpolation:sRGB;color-interpolation-filters:linearRGB;solid-color:#000000;solid-opacity:1;fill:url(#linearGradient1021);fill-opacity:1;fill-rule:nonzero;stroke:none;stroke-width:1;stroke-linecap:butt;stroke-linejoin:miter;stroke-miterlimit:4;stroke-dasharray:none;stroke-dashoffset:0;stroke-opacity:1;marker:none;color-rendering:auto;image-rendering:auto;shape-rendering:auto;text-rendering:auto;enable-background:accumulate"
     d="m 29.57143,15 c -0.43706,0 -0.80128,1.688081 -1.01507,4.100586 a 13.357143,13.357143 0 0 0 -3.22782,1.356585 c -1.86459,-1.56272 -3.32111,-2.506037 -3.631,-2.19615 l -3.43652,3.436524 c -0.30989,0.309887 0.63343,1.766405 2.19615,3.630998 a 13.357143,13.357143 0 0 0 -1.34473,3.227818 C 16.69318,28.769948 15,29.133637 15,29.571429 v 4.857142 c 0,0.437059 1.68808,0.801276 4.10059,1.015068 a 13.357143,13.357143 0 0 0 1.35184,3.234932 c -1.55917,1.861254 -2.50092,3.31437 -2.19141,3.623884 l 3.43652,3.436524 c 0.30923,0.309221 1.76051,-0.630281 3.61915,-2.186663 a 13.357143,13.357143 0 0 0 3.23967,1.335239 C 28.76995,47.306819 29.13364,49 29.57143,49 h 4.857141 c 0.43706,0 0.801276,-1.688081 1.015068,-4.100586 a 13.357143,13.357143 0 0 0 3.227818,-1.356585 c 1.864593,1.56272 3.321111,2.506037 3.630998,2.19615 l 3.436524,-3.436524 c 0.309887,-0.309887 -0.63343,-1.766405 -2.19615,-3.630998 a 13.357143,13.357143 0 0 0 1.344726,-3.227818 C 47.306819,35.230052 49,34.866363 49,34.428571 v -4.857142 c 0,-0.43706 -1.688081,-0.801276 -4.100586,-1.015068 a 13.357143,13.357143 0 0 0 -1.351841,-3.234932 c 1.559167,-1.861254 2.50092,-3.31437 2.191406,-3.623884 l -3.436524,-3.436524 c -0.309221,-0.309221 -1.760509,0.630281 -3.619141,2.186663 a 13.357143,13.357143 0 0 0 -3.239675,-1.33524 C 35.230052,16.693181 34.866363,15 34.428571,15 Z M 32,25.928571 A 6.0714286,6.0714286 0 0 1 38.071429,32 6.0714286,6.0714286 0 0 1 32,38.071429 6.0714286,6.0714286 0 0 1 25.92857,32 6.0714286,6.0714286 0 0 1 32,25.928571 Z"
     id="path4690"
     inkscape:connector-curvature="0" />
  <path
     style="color:#000000;clip-rule:nonzero;display:inline;overflow:visible;visibility:visible;opacity:0.07;isolation:auto;mix-blend-mode:normal;color-interpolation:sRGB;color-interpolation-filters:linearRGB;solid-color:#000000;solid-opacity:1;fill:none;fill-opacity:1;fill-rule:nonzero;stroke:none;stroke-width:1;stroke-linecap:butt;stroke-linejoin:miter;stroke-miterlimit:4;stroke-dasharray:none;stroke-dashoffset:0;stroke-opacity:1;marker:none;color-rendering:auto;image-rendering:auto;shape-rendering:auto;text-rendering:auto;enable-background:accumulate"
     d="m 86.42857,-9.499085 c 0.43706,0 0.80128,1.688081 1.01507,4.100586 a 13.357143,13.357143 0 0 1 3.22782,1.356585 c 1.86459,-1.56272 3.32111,-2.506037 3.631,-2.19615 l 3.43652,3.436524 c 0.30989,0.309887 -0.63343,1.766405 -2.19615,3.630998 a 13.357143,13.357143 0 0 1 1.34473,3.227818 C 99.30682,4.270863 101,4.634552 101,5.072344 v 4.857142 c 0,0.43706 -1.68808,0.801276 -4.10059,1.015068 a 13.357143,13.357143 0 0 1 -1.35184,3.234932 c 1.55917,1.861254 2.50092,3.31437 2.19141,3.623884 l -3.43652,3.436524 c -0.30923,0.309221 -1.76051,-0.630281 -3.61915,-2.186663 a 13.357143,13.357143 0 0 1 -3.23967,1.335239 c -0.21359,2.419264 -0.57728,4.112445 -1.01507,4.112445 h -4.857141 c -0.43706,0 -0.801276,-1.688081 -1.015068,-4.100586 a 13.357143,13.357143 0 0 1 -3.227818,-1.356585 c -1.864593,1.56272 -3.321111,2.506037 -3.630998,2.19615 L 70.261021,17.80337 c -0.309887,-0.309887 0.63343,-1.766405 2.19615,-3.630998 A 13.357143,13.357143 0 0 1 71.112445,10.944554 C 68.693181,10.730967 67,10.367278 67,9.929486 V 5.072344 c 0,-0.43706 1.688081,-0.801276 4.100586,-1.015068 A 13.357143,13.357143 0 0 1 72.452427,0.822344 C 70.89326,-1.03891 69.951507,-2.492026 70.261021,-2.80154 l 3.436524,-3.436524 c 0.309221,-0.309221 1.760509,0.630281 3.619141,2.186663 a 13.357143,13.357143 0 0 1 3.239675,-1.33524 c 0.213587,-2.419263 0.577276,-4.112444 1.015068,-4.112444 z M 84,1.429486 A 6.0714286,6.0714286 0 0 0 77.928571,7.500915 6.0714286,6.0714286 0 0 0 84,13.572344 6.0714286,6.0714286 0 0 0 90.07143,7.500915 6.0714286,6.0714286 0 0 0 84,1.429486 Z"
     id="path4690-3-3"
     inkscape:connector-curvature="0" />
  <path
     style="color:#000000;clip-rule:nonzero;display:inline;overflow:visible;visibility:visible;opacity:0.07;isolation:auto;mix-blend-mode:normal;color-interpolation:sRGB;color-interpolation-filters:linearRGB;solid-color:#000000;solid-opacity:1;fill:none;fill-opacity:1;fill-rule:nonzero;stroke:url(#linearGradient1094);stroke-width:1;stroke-linecap:butt;stroke-linejoin:miter;stroke-miterlimit:4;stroke-dasharray:none;stroke-dashoffset:0;stroke-opacity:1;marker:none;color-rendering:auto;image-rendering:auto;shape-rendering:auto;text-rendering:auto;enable-background:accumulate"
     d="m 33.92857,16 c 0.43706,0 0.80128,1.688081 1.01507,4.100586 a 13.357143,13.357143 0 0 1 3.22782,1.356585 c 1.86459,-1.56272 3.32111,-2.506037 3.631,-2.19615 l 3.43652,3.436524 c 0.30989,0.309887 -0.63343,1.766405 -2.19615,3.630998 a 13.357143,13.357143 0 0 1 1.34473,3.227818 C 46.80682,29.769948 48.5,30.133637 48.5,30.571429 v 4.857142 c 0,0.43706 -1.68808,0.801276 -4.10059,1.015068 a 13.357143,13.357143 0 0 1 -1.35184,3.234932 c 1.55917,1.861254 2.50092,3.31437 2.19141,3.623884 l -3.43652,3.436524 C 41.49323,47.0482 40.04195,46.108698 38.18331,44.552316 a 13.357143,13.357143 0 0 1 -3.23967,1.335239 C 34.73005,48.306819 34.36636,50 33.92857,50 h -4.857141 c -0.43706,0 -0.801276,-1.688081 -1.015068,-4.100586 a 13.357143,13.357143 0 0 1 -3.227818,-1.356585 c -1.864593,1.56272 -3.321111,2.506037 -3.630998,2.19615 l -3.436524,-3.436524 c -0.309887,-0.309887 0.63343,-1.766405 2.19615,-3.630998 A 13.357143,13.357143 0 0 1 18.612445,36.443639 C 16.193181,36.230052 14.5,35.866363 14.5,35.428571 v -4.857142 c 0,-0.43706 1.688081,-0.801276 4.100586,-1.015068 a 13.357143,13.357143 0 0 1 1.351841,-3.234932 c -1.559167,-1.861254 -2.50092,-3.31437 -2.191406,-3.623884 l 3.436524,-3.436524 c 0.309221,-0.309221 1.760509,0.630281 3.619141,2.186663 a 13.357143,13.357143 0 0 1 3.239675,-1.33524 C 28.269948,17.693181 28.633637,16 29.071429,16 Z M 31.5,26.928571 A 6.0714286,6.0714286 0 0 0 25.428571,33 6.0714286,6.0714286 0 0 0 31.5,39.071429 6.0714286,6.0714286 0 0 0 37.57143,33 6.0714286,6.0714286 0 0 0 31.5,26.928571 Z"
     id="path4690-3-6"
     inkscape:connector-curvature="0" />
  <path
     style="color:#000000;clip-rule:nonzero;display:inline;overflow:visible;visibility:visible;opacity:0.07;isolation:auto;mix-blend-mode:normal;color-interpolation:sRGB;color-interpolation-filters:linearRGB;solid-color:#000000;solid-opacity:1;fill:url(#linearGradient1130);fill-opacity:1;fill-rule:nonzero;stroke:none;stroke-width:1;stroke-linecap:butt;stroke-linejoin:miter;stroke-miterlimit:4;stroke-dasharray:none;stroke-dashoffset:0;stroke-opacity:1;marker:none;color-rendering:auto;image-rendering:auto;shape-rendering:auto;text-rendering:auto;enable-background:accumulate"
     d="m 34.42857,16 c 0.43706,0 0.80128,1.688081 1.01507,4.100586 a 13.357143,13.357143 0 0 1 3.22782,1.356585 c 1.86459,-1.56272 3.32111,-2.506037 3.631,-2.19615 l 3.43652,3.436524 c 0.30989,0.309887 -0.63343,1.766405 -2.19615,3.630998 a 13.357143,13.357143 0 0 1 1.34473,3.227818 C 47.30682,29.769948 49,30.133637 49,30.571429 v 4.857142 c 0,0.43706 -1.68808,0.801276 -4.10059,1.015068 a 13.357143,13.357143 0 0 1 -1.35184,3.234932 c 1.55917,1.861254 2.50092,3.31437 2.19141,3.623884 l -3.43652,3.436524 C 41.99323,47.0482 40.54195,46.108698 38.68331,44.552316 a 13.357143,13.357143 0 0 1 -3.23967,1.335239 C 35.23005,48.306819 34.86636,50 34.42857,50 h -4.857141 c -0.43706,0 -0.801276,-1.688081 -1.015068,-4.100586 a 13.357143,13.357143 0 0 1 -3.227818,-1.356585 c -1.864593,1.56272 -3.321111,2.506037 -3.630998,2.19615 l -3.436524,-3.436524 c -0.309887,-0.309887 0.63343,-1.766405 2.19615,-3.630998 A 13.357143,13.357143 0 0 1 19.112445,36.443639 C 16.693181,36.230052 15,35.866363 15,35.428571 v -4.857142 c 0,-0.43706 1.688081,-0.801276 4.100586,-1.015068 a 13.357143,13.357143 0 0 1 1.351841,-3.234932 c -1.559167,-1.861254 -2.50092,-3.31437 -2.191406,-3.623884 l 3.436524,-3.436524 c 0.309221,-0.309221 1.760509,0.630281 3.619141,2.186663 a 13.357143,13.357143 0 0 1 3.239675,-1.33524 C 28.769948,17.693181 29.133637,16 29.571429,16 Z M 32,26.928571 A 6.0714286,6.0714286 0 0 0 25.928571,33 6.0714286,6.0714286 0 0 0 32,39.071429 6.0714286,6.0714286 0 0 0 38.07143,33 6.0714286,6.0714286 0 0 0 32,26.928571 Z"
     id="path4690-3-6-2"
     inkscape:connector-curvature="0" />
</svg>
